SplineFontDB: 3.1
FontName: pcm-outline-webicons
FullName: pcm-outline-webicons
FamilyName: pcm-outline-webicons
Weight: Book
FontLog: "+AKkA Joachim Weichert, Zeitlofs, 2018+AAoA-PCM Pro Care Mangement, Bad Kissingen"
Version: 1.0
ItalicAngle: 0
UnderlinePosition: 0
UnderlineWidth: 0
Ascent: 480
Descent: 32
InvalidEm: 0
sfntRevision: 0x00010000
LayerCount: 2
Layer: 0 1 "Back" 1
Layer: 1 1 "Zeichen" 0
XUID: [1021 84 2060037977 21593]
StyleMap: 0x0000
FSType: 8
OS2Version: 1
OS2_WeightWidthSlopeOnly: 0
OS2_UseTypoMetrics: 0
CreationTime: 1519752405
ModificationTime: 1519752405
PfmFamily: 17
TTFWeight: 400
TTFWidth: 5
LineGap: 46
VLineGap: 0
Panose: 2 0 5 9 0 0 0 0 0 0
OS2TypoAscent: 480
OS2TypoAOffset: 0
OS2TypoDescent: -32
OS2TypoDOffset: 0
OS2TypoLinegap: 46
OS2WinAscent: 512
OS2WinAOffset: 0
OS2WinDescent: 0
OS2WinDOffset: 0
HheadAscent: 512
HheadAOffset: 0
HheadDescent: 0
HheadDOffset: 0
OS2SubXSize: 332
OS2SubYSize: 358
OS2SubXOff: 0
OS2SubYOff: 71
OS2SupXSize: 332
OS2SupYSize: 358
OS2SupXOff: 0
OS2SupYOff: 245
OS2StrikeYSize: 25
OS2StrikeYPos: 132
OS2Vendor: 'PfEd'
OS2CodePages: 00000001.00000000
OS2UnicodeRanges: 00000083.3200c082.00000000.00000000
DEI: 91125
ShortTable: maxp 16
  1
  0
  683
  608
  72
  0
  0
  2
  0
  1
  1
  0
  64
  0
  0
  0
EndShort
LangName: 1033 "" "" "" "FontForge 2.0 : pcm-outline-webicons : 27-2-2018" "" "Version 1.0"
GaspTable: 1 65535 2 0
Encoding: UnicodeFull
UnicodeInterp: none
NameList: AGL For New Fonts
DisplaySize: -48
AntiAlias: 1
FitToEm: 0
WinInfo: 9723 21 11
BeginChars: 1114115 683

StartChar: home
Encoding: 62432 62432 3
Width: 512
GlyphClass: 2
Flags: W
LayerCount: 2
Fore
SplineSet
482 253 m 0,0,1
 482 243 482 243 473 243 c 0,2,3
 469 243 469 243 466 246 c 1,4,-1
 466 246 l 1,5,6
 266 445 266 445 257 454 c 1,7,-1
 48 246 l 1,8,-1
 48 246 l 1,9,10
 45 243 45 243 41 243 c 0,11,12
 32 243 32 243 32 253 c 0,13,14
 32 258 32 258 37 261 c 2,15,-1
 257 480 l 1,16,-1
 257 480 l 1,17,-1
 477 261 l 2,18,19
 482 258 482 258 482 253 c 0,0,1
445 32 m 1,20,-1
 445 240 l 1,21,-1
 256 429 l 1,22,-1
 66 240 l 1,23,-1
 66 32 l 1,24,-1
 191 32 l 1,25,-1
 191 32 l 1,26,27
 200 32 200 32 200 41 c 0,28,29
 200 51 200 51 191 51 c 1,30,-1
 191 51 l 1,31,-1
 85 51 l 1,32,-1
 85 232 l 1,33,-1
 256 402 l 1,34,-1
 427 232 l 1,35,-1
 427 51 l 1,36,-1
 370 51 l 1,37,-1
 370 202 l 1,38,-1
 237 202 l 1,39,-1
 237 32 l 1,40,-1
 257 32 l 1,41,-1
 257 183 l 1,42,-1
 350 183 l 1,43,-1
 350 32 l 1,44,-1
 445 32 l 1,20,-1
EndSplineSet
Validated: 5
EndChar

StartChar: plus
Encoding: 10133 10133 4
Width: 512
GlyphClass: 2
Flags: W
LayerCount: 2
Fore
SplineSet
51 293 m 1,0,-1
 219 293 l 1,1,-1
 219 461 l 1,2,-1
 294 461 l 1,3,-1
 294 293 l 1,4,-1
 461 293 l 1,5,-1
 461 219 l 1,6,-1
 294 219 l 1,7,-1
 294 51 l 1,8,-1
 219 51 l 1,9,-1
 219 219 l 1,10,-1
 51 219 l 1,11,-1
 51 293 l 1,0,-1
200 480 m 1,12,-1
 200 311 l 1,13,-1
 32 311 l 1,14,-1
 32 200 l 1,15,-1
 200 200 l 1,16,-1
 200 32 l 1,17,-1
 313 32 l 1,18,-1
 312 200 l 1,19,-1
 480 200 l 1,20,-1
 480 312 l 1,21,-1
 313 312 l 1,22,-1
 313 480 l 1,23,-1
 200 480 l 1,12,-1
EndSplineSet
Validated: 9
EndChar

StartChar: minus
Encoding: 10134 10134 5
Width: 512
GlyphClass: 2
Flags: W
LayerCount: 2
Fore
SplineSet
50 292 m 1,0,-1
 460 292 l 1,1,-1
 460 218 l 1,2,-1
 50 218 l 1,3,-1
 50 292 l 1,0,-1
479 311 m 1,4,-1
 31 310 l 1,5,-1
 31 199 l 1,6,-1
 479 199 l 1,7,-1
 479 311 l 1,4,-1
EndSplineSet
Validated: 9
EndChar

StartChar: delete
Encoding: 10060 10060 6
Width: 512
GlyphClass: 2
Flags: W
LayerCount: 2
Fore
SplineSet
400 454 m 1,0,-1
 453 401 l 1,1,-1
 309 257 l 1,2,-1
 454 112 l 1,3,-1
 400 59 l 1,4,-1
 256 203 l 1,5,-1
 111 59 l 1,6,-1
 59 111 l 1,7,-1
 203 256 l 1,8,-1
 58 400 l 1,9,-1
 112 453 l 1,10,-1
 256 310 l 1,11,-1
 400 454 l 1,0,-1
400 480 m 1,12,-1
 256 336 l 1,13,-1
 112 480 l 1,14,-1
 32 400 l 1,15,-1
 177 256 l 1,16,-1
 33 111 l 1,17,-1
 111 32 l 1,18,-1
 256 177 l 1,19,-1
 400 32 l 1,20,-1
 480 112 l 1,21,-1
 335 256 l 1,22,-1
 479 401 l 1,23,-1
 400 480 l 1,12,-1
EndSplineSet
Validated: 9
EndChar

StartChar: kreis-auswahl
Encoding: 61956 61956 7
Width: 512
GlyphClass: 2
Flags: W
LayerCount: 2
Fore
SplineSet
461 256 m 128,-1,1
 461 171 461 171 401 111 c 128,-1,2
 341 51 341 51 256 51 c 128,-1,3
 171 51 171 51 111 111 c 128,-1,4
 51 171 51 171 51 256 c 128,-1,5
 51 341 51 341 111 401 c 128,-1,6
 171 461 171 461 256 461 c 128,-1,7
 341 461 341 461 401 401 c 128,-1,0
 461 341 461 341 461 256 c 128,-1,1
480 256 m 128,-1,9
 480 349 480 349 414.5 414.5 c 128,-1,10
 349 480 349 480 256 480 c 128,-1,11
 163 480 163 480 97.5 414.5 c 128,-1,12
 32 349 32 349 32 256 c 128,-1,13
 32 163 32 163 97.5 97.5 c 128,-1,14
 163 32 163 32 256 32 c 128,-1,15
 349 32 349 32 414.5 97.5 c 128,-1,8
 480 163 480 163 480 256 c 128,-1,9
355 355 m 1,16,17
 348 362 348 362 342 355 c 2,18,-1
 256 269 l 1,19,-1
 170 355 l 2,20,21
 164 362 164 362 157 355 c 128,-1,22
 150 348 150 348 157 342 c 2,23,-1
 243 256 l 1,24,-1
 157 170 l 2,25,26
 150 164 150 164 157 157 c 128,-1,27
 164 150 164 150 170 157 c 2,28,-1
 256 243 l 1,29,-1
 342 157 l 2,30,31
 348 150 348 150 355 157 c 128,-1,32
 362 164 362 164 355 170 c 2,33,-1
 269 256 l 1,34,-1
 355 342 l 2,35,36
 362 348 362 348 355 355 c 1,37,-1
 355 355 l 1,16,17
EndSplineSet
Validated: 521
EndChar

StartChar: kreis-leer
Encoding: 61952 61952 8
Width: 512
GlyphClass: 2
Flags: W
LayerCount: 2
Fore
SplineSet
461 256 m 128,-1,1
 461 171 461 171 401 111 c 128,-1,2
 341 51 341 51 256 51 c 128,-1,3
 171 51 171 51 111 111 c 128,-1,4
 51 171 51 171 51 256 c 128,-1,5
 51 341 51 341 111 401 c 128,-1,6
 171 461 171 461 256 461 c 128,-1,7
 341 461 341 461 401 401 c 128,-1,0
 461 341 461 341 461 256 c 128,-1,1
480 256 m 1,8,9
 480 349 480 349 414.5 414.5 c 128,-1,10
 349 480 349 480 256 480 c 128,-1,11
 163 480 163 480 97.5 414.5 c 128,-1,12
 32 349 32 349 32 256 c 128,-1,13
 32 163 32 163 97.5 97.5 c 128,-1,14
 163 32 163 32 256 32 c 128,-1,15
 349 32 349 32 414.5 97.5 c 128,-1,16
 480 163 480 163 480 256 c 1,17,-1
 480 256 l 1,8,9
EndSplineSet
Validated: 517
EndChar

StartChar: kreis-mittelpunkt
Encoding: 61954 61954 9
Width: 512
GlyphClass: 2
Flags: W
LayerCount: 2
Fore
SplineSet
350 256 m 0,0,1
 350 217 350 217 322.5 189.5 c 128,-1,2
 295 162 295 162 256 162 c 0,3,4
 218 162 218 162 190.5 189.5 c 128,-1,5
 163 217 163 217 163 256 c 0,6,7
 163 294 163 294 190.5 321.5 c 128,-1,8
 218 349 218 349 256 349 c 0,9,10
 295 349 295 349 322.5 321.5 c 128,-1,11
 350 294 350 294 350 256 c 0,0,1
368 256 m 128,-1,13
 368 302 368 302 335 335 c 128,-1,14
 302 368 302 368 256 368 c 128,-1,15
 210 368 210 368 177 335 c 128,-1,16
 144 302 144 302 144 256 c 128,-1,17
 144 210 144 210 177 177 c 128,-1,18
 210 144 210 144 256 144 c 128,-1,19
 302 144 302 144 335 177 c 128,-1,12
 368 210 368 210 368 256 c 128,-1,13
461 256 m 128,-1,21
 461 171 461 171 401 111 c 128,-1,22
 341 51 341 51 256 51 c 128,-1,23
 171 51 171 51 111 111 c 128,-1,24
 51 171 51 171 51 256 c 128,-1,25
 51 341 51 341 111 401 c 128,-1,26
 171 461 171 461 256 461 c 128,-1,27
 341 461 341 461 401 401 c 128,-1,20
 461 341 461 341 461 256 c 128,-1,21
480 256 m 128,-1,29
 480 349 480 349 414.5 414.5 c 128,-1,30
 349 480 349 480 256 480 c 128,-1,31
 163 480 163 480 97.5 414.5 c 128,-1,32
 32 349 32 349 32 256 c 128,-1,33
 32 163 32 163 97.5 97.5 c 128,-1,34
 163 32 163 32 256 32 c 128,-1,35
 349 32 349 32 414.5 97.5 c 128,-1,28
 480 163 480 163 480 256 c 128,-1,29
263 163 m 1,36,-1
 334 203 l 1,37,38
 342 215 342 215 347 232 c 1,39,-1
 231 166 l 1,40,41
 248 161 248 161 263 163 c 1,36,-1
181 201 m 1,42,-1
 342 294 l 2,43,44
 341 295 341 295 339.5 298 c 128,-1,45
 338 301 338 301 337 302 c 0,46,47
 336 306 336 306 332 310 c 1,48,-1
 171 217 l 2,49,50
 172 216 172 216 173.5 213.5 c 128,-1,51
 175 211 175 211 176 209 c 0,52,53
 176 208 176 208 181 201 c 1,42,-1
281 345 m 1,54,55
 268 349 268 349 250 349 c 1,56,-1
 179 308 l 1,57,58
 171 296 171 296 166 279 c 1,59,-1
 281 345 l 1,54,55
320 324 m 1,60,61
 313 331 313 331 303 336 c 1,62,-1
 163 256 l 1,63,64
 163 249 163 249 165 235 c 1,65,-1
 320 324 l 1,60,61
350 255 m 1,66,67
 350 262 350 262 348 276 c 1,68,-1
 193 187 l 1,69,70
 200 180 200 180 210 175 c 1,71,-1
 350 255 l 1,66,67
EndSplineSet
Validated: 549
EndChar

StartChar: kreis-auswahl-bestaetigt
Encoding: 61957 61957 10
Width: 512
GlyphClass: 2
Flags: W
LayerCount: 2
Fore
SplineSet
394 432 m 1,0,1
 333 480 333 480 256 480 c 0,2,3
 163 480 163 480 97.5 414.5 c 128,-1,4
 32 349 32 349 32 256 c 128,-1,5
 32 163 32 163 97.5 97.5 c 128,-1,6
 163 32 163 32 256 32 c 128,-1,7
 349 32 349 32 414.5 97.5 c 128,-1,8
 480 163 480 163 480 256 c 0,9,10
 480 313 480 313 451 365 c 1,11,-1
 438 351 l 1,12,13
 461 307 461 307 461 256 c 0,14,15
 461 171 461 171 401 111 c 128,-1,16
 341 51 341 51 256 51 c 128,-1,17
 171 51 171 51 111 111 c 128,-1,18
 51 171 51 171 51 256 c 128,-1,19
 51 341 51 341 111 401 c 128,-1,20
 171 461 171 461 256 461 c 0,21,22
 325 461 325 461 380 420 c 1,23,-1
 394 432 l 1,0,1
256 269 m 2,24,-1
 170 355 l 2,25,26
 164 362 164 362 157 355 c 128,-1,27
 150 348 150 348 157 342 c 2,28,-1
 243 256 l 1,29,-1
 157 170 l 2,30,31
 150 164 150 164 157 157 c 128,-1,32
 164 150 164 150 170 157 c 2,33,-1
 256 243 l 1,34,-1
 342 157 l 2,35,36
 348 150 348 150 355 157 c 128,-1,37
 362 164 362 164 355 170 c 2,38,-1
 269 256 l 1,39,-1
 283 270 l 1,40,-1
 270 283 l 2,41,42
 268 281 268 281 265.5 279 c 128,-1,43
 263 277 263 277 260.5 274 c 128,-1,44
 258 271 258 271 256 269 c 2,24,-1
466 450 m 1,45,-1
 462 437 l 1,46,-1
 463 435 l 1,47,-1
 328 291 l 1,48,-1
 250 354 l 1,49,-1
 250 359 l 1,50,-1
 247 371 l 1,51,-1
 253 360 l 1,52,-1
 328 323 l 1,53,-1
 458 436 l 1,54,-1
 466 450 l 1,45,-1
480 427 m 1,55,-1
 480 480 l 1,56,-1
 325 346 l 1,57,-1
 230 392 l 1,58,-1
 230 347 l 1,59,-1
 329 262 l 1,60,-1
 480 427 l 1,55,-1
EndSplineSet
Validated: 521
EndChar

StartChar: ok
Encoding: 10004 10004 11
Width: 512
GlyphClass: 2
Flags: W
LayerCount: 2
Fore
SplineSet
458 415 m 1,0,-1
 465 425 l 1,1,-1
 461 415 l 1,2,-1
 461 371 l 1,3,-1
 198 97 l 1,4,-1
 51 222 l 1,5,-1
 51 257 l 1,6,-1
 47 266 l 1,7,-1
 52 259 l 1,8,-1
 199 191 l 1,9,-1
 458 415 l 1,0,-1
480 458 m 1,10,-1
 196 213 l 1,11,-1
 32 290 l 1,12,-1
 32 214 l 1,13,-1
 199 68 l 1,14,-1
 480 365 l 1,15,-1
 480 458 l 1,10,-1
EndSplineSet
Validated: 9
EndChar

StartChar: intervalle
Encoding: 9203 9203 12
Width: 512
GlyphClass: 2
Flags: W
LayerCount: 2
Fore
SplineSet
59 32 m 128,-1,1
 68 32 68 32 68 41 c 1,2,-1
 68 41 l 1,3,-1
 68 471 l 1,4,-1
 68 471 l 1,5,6
 68 480 68 480 59 480 c 128,-1,7
 50 480 50 480 50 471 c 1,8,-1
 50 471 l 1,9,-1
 50 41 l 1,10,-1
 50 41 l 1,11,0
 50 32 50 32 59 32 c 128,-1,1
450 32 m 128,-1,13
 459 32 459 32 459 41 c 1,14,-1
 459 41 l 1,15,-1
 459 471 l 1,16,-1
 459 471 l 1,17,18
 459 480 459 480 450 480 c 128,-1,19
 441 480 441 480 441 471 c 1,20,-1
 441 471 l 1,21,-1
 441 41 l 1,22,-1
 441 41 l 1,23,12
 441 32 441 32 450 32 c 128,-1,13
404 442 m 128,-1,25
 404 434 404 434 396 423 c 2,26,-1
 296 288 l 2,27,28
 287 274 287 274 287 257 c 0,29,30
 287 239 287 239 297 224 c 2,31,-1
 395 89 l 2,32,33
 403 78 403 78 403 71 c 0,34,35
 403 63 403 63 398 57.5 c 128,-1,36
 393 52 393 52 385 52 c 2,37,-1
 125 52 l 2,38,39
 117 52 117 52 112 57.5 c 128,-1,40
 107 63 107 63 107 71 c 0,41,42
 107 77 107 77 115 90 c 2,43,-1
 216 224 l 2,44,45
 227 240 227 240 227 257 c 0,46,47
 227 273 227 273 217 288 c 2,48,-1
 116 422 l 2,49,50
 107 434 107 434 107 442 c 128,-1,51
 107 450 107 450 112.5 455.5 c 128,-1,52
 118 461 118 461 126 461 c 2,53,-1
 385 461 l 2,54,55
 392 461 392 461 398 455.5 c 128,-1,24
 404 450 404 450 404 442 c 128,-1,25
422 442 m 128,-1,57
 422 457 422 457 411.5 468 c 128,-1,58
 401 479 401 479 385 479 c 2,59,-1
 126 479 l 2,60,61
 110 479 110 479 99.5 468 c 128,-1,62
 89 457 89 457 89 442 c 128,-1,63
 89 427 89 427 100 412 c 2,64,-1
 201 277 l 1,65,-1
 202 277 l 1,66,67
 208 270 208 270 208 257 c 128,-1,68
 208 244 208 244 200 234 c 2,69,-1
 100 100 l 2,70,71
 88 84 88 84 88 71 c 0,72,73
 88 55 88 55 99 44 c 128,-1,74
 110 33 110 33 125 33 c 2,75,-1
 385 33 l 2,76,77
 400 33 400 33 411 44 c 128,-1,78
 422 55 422 55 422 71 c 0,79,80
 422 84 422 84 411 100 c 2,81,-1
 313 234 l 2,82,83
 305 245 305 245 305 257 c 0,84,85
 305 268 305 268 312 278 c 2,86,-1
 411 413 l 2,87,56
 422 427 422 427 422 442 c 128,-1,57
173 76 m 0,88,89
 181 88 181 88 170 95 c 0,90,91
 159 104 159 104 150 93 c 0,92,93
 143 81 143 81 153 73 c 0,94,95
 163 64 163 64 173 76 c 0,88,89
219 76 m 0,96,97
 229 88 229 88 216 95 c 0,98,99
 206 104 206 104 197 93 c 0,100,101
 189 82 189 82 200 73 c 128,-1,102
 211 64 211 64 219 76 c 0,96,97
266 76 m 0,103,104
 274 88 274 88 263 95 c 0,105,106
 252 104 252 104 243 93 c 0,107,108
 236 81 236 81 246 73 c 0,109,110
 256 64 256 64 266 76 c 0,103,104
312 76 m 0,111,112
 321 87 321 87 310 95 c 128,-1,113
 299 103 299 103 290 93 c 0,114,115
 282 82 282 82 293 73 c 128,-1,116
 304 64 304 64 312 76 c 0,111,112
359 76 m 128,-1,118
 368 87 368 87 356 95 c 0,119,120
 345 104 345 104 337 93 c 128,-1,121
 329 82 329 82 339 73 c 0,122,117
 350 65 350 65 359 76 c 128,-1,118
243 119 m 0,123,124
 250 131 250 131 240 139 c 0,125,126
 230 148 230 148 220 136 c 0,127,128
 212 124 212 124 223 117 c 0,129,130
 234 108 234 108 243 119 c 0,123,124
289 119 m 0,131,132
 297 130 297 130 286 139 c 128,-1,133
 275 148 275 148 267 136 c 0,134,135
 258 125 258 125 269 117 c 128,-1,136
 280 109 280 109 289 119 c 0,131,132
219 392 m 0,137,138
 227 380 227 380 216 372 c 0,139,140
 206 364 206 364 197 375 c 128,-1,141
 188 386 188 386 200 394 c 0,142,143
 211 403 211 403 219 392 c 0,137,138
266 392 m 0,144,145
 273 380 273 380 263 372 c 0,146,147
 253 363 253 363 243 375 c 0,148,149
 235 387 235 387 246 394 c 0,150,151
 257 403 257 403 266 392 c 0,144,145
312 392 m 128,-1,153
 320 381 320 381 310 372 c 0,154,155
 299 364 299 364 290 375 c 128,-1,156
 281 386 281 386 293 394 c 0,157,152
 304 403 304 403 312 392 c 128,-1,153
243 348 m 0,158,159
 251 337 251 337 240 328 c 0,160,161
 229 320 229 320 220 331 c 0,162,163
 212 342 212 342 223 351 c 0,164,165
 234 358 234 358 243 348 c 0,158,159
289 348 m 0,166,167
 298 338 298 338 286 328 c 0,168,169
 274 320 274 320 267 331 c 0,170,171
 258 342 258 342 269 351 c 0,172,173
 281 358 281 358 289 348 c 0,166,167
267 307 m 0,174,175
 274 296 274 296 264 287 c 0,176,177
 253 280 253 280 244 290 c 0,178,179
 236 301 236 301 247 310 c 0,180,181
 258 318 258 318 267 307 c 0,174,175
266 214 m 1,182,183
 275 203 275 203 263 194 c 0,184,185
 252 187 252 187 244 197 c 0,186,187
 234 209 234 209 247 216 c 0,188,189
 258 225 258 225 266 214 c 1,190,-1
 266 214 l 1,182,183
EndSplineSet
Validated: 37
EndChar

StartChar: bestellung-notiz-ausstehend
Encoding: 61848 61848 13
Width: 512
GlyphClass: 2
Flags: W
LayerCount: 2
Fore
SplineSet
32 480 m 1,0,-1
 44 465 l 2,1,2
 46 463 46 463 52.5 453.5 c 128,-1,3
 59 444 59 444 71 422 c 128,-1,4
 83 400 83 400 93 374 c 128,-1,5
 103 348 103 348 109 311 c 128,-1,6
 115 274 115 274 113 238 c 0,7,8
 112 224 112 224 113 208.5 c 128,-1,9
 114 193 114 193 117 178 c 128,-1,10
 120 163 120 163 123.5 148.5 c 128,-1,11
 127 134 127 134 131 120 c 128,-1,12
 135 106 135 106 139.5 94 c 128,-1,13
 144 82 144 82 148 71.5 c 128,-1,14
 152 61 152 61 155 54 c 128,-1,15
 158 47 158 47 160 42 c 2,16,-1
 163 37 l 1,17,-1
 166 32 l 1,18,-1
 480 70 l 1,19,-1
 467 83 l 1,20,-1
 463 88 l 2,21,22
 459 93 459 93 451.5 103 c 128,-1,23
 444 113 444 113 437 124 c 1,24,-1
 417 124 l 1,25,26
 428 103 428 103 443 84 c 1,27,-1
 176 51 l 1,28,29
 126 157 126 157 130 236 c 0,30,31
 138 353 138 353 68 462 c 1,32,-1
 252 462 l 1,33,34
 267 479 267 479 286 479 c 2,35,-1
 32 480 l 1,0,-1
176 118 m 0,36,37
 176 110 176 110 186 110 c 2,38,-1
 187 110 l 1,39,-1
 317 124 l 1,40,-1
 286 124 l 2,41,42
 270 124 270 124 256 136 c 1,43,-1
 185 129 l 1,44,-1
 184 129 l 2,45,46
 174 127 174 127 176 118 c 0,36,37
160 180 m 0,47,48
 160 171 160 171 170 171 c 2,49,-1
 171 171 l 1,50,-1
 241 178 l 1,51,52
 242 186 242 186 248 197 c 1,53,-1
 169 190 l 1,54,-1
 168 190 l 2,55,56
 158 188 158 188 160 180 c 0,47,48
156 244 m 0,57,58
 156 235 156 235 166 235 c 2,59,-1
 167 235 l 1,60,-1
 279 242 l 1,61,-1
 293 262 l 1,62,-1
 166 254 l 1,63,-1
 165 254 l 2,64,65
 156 252 156 252 156 244 c 0,57,58
153 309 m 0,66,67
 155 300 155 300 163 300 c 1,68,-1
 164 301 l 1,69,-1
 164 300 l 1,70,-1
 318 305 l 1,71,-1
 305 323 l 1,72,-1
 163 319 l 1,73,-1
 162 319 l 2,74,75
 153 319 153 319 153 309 c 0,66,67
147 387 m 1,76,-1
 147 386 l 1,77,-1
 146 387 l 1,78,79
 137 387 137 387 137 377 c 0,80,81
 137 368 137 368 146 368 c 2,82,-1
 147 368 l 1,83,-1
 274 368 l 1,84,-1
 261 387 l 1,85,-1
 147 387 l 1,76,-1
280 420 m 2,86,87
 274 428 274 428 274 432 c 0,88,89
 274 443 274 443 284 443 c 2,90,-1
 453 443 l 2,91,92
 463 443 463 443 463 432 c 0,93,94
 463 428 463 428 459 421 c 2,95,-1
 394 326 l 1,96,-1
 392 324 l 1,97,98
 387 312 387 312 387 303 c 0,99,100
 387 292 387 292 394 278 c 1,101,-1
 396 277 l 1,102,-1
 458 184 l 2,103,104
 463 178 463 178 463 172 c 0,105,106
 463 161 463 161 453 161 c 2,107,-1
 284 161 l 2,108,109
 274 161 274 161 274 172 c 0,110,111
 274 175 274 175 279 184 c 2,112,-1
 345 279 l 1,113,-1
 346 280 l 1,114,-1
 346 281 l 1,115,116
 352 290 352 290 352 303 c 128,-1,117
 352 316 352 316 346 326 c 2,118,-1
 344 328 l 1,119,-1
 280 420 l 2,86,87
480 432 m 0,120,121
 480 444 480 444 472 452.5 c 128,-1,122
 464 461 464 461 453 461 c 2,123,-1
 284 461 l 2,124,125
 273 461 273 461 265.5 452.5 c 128,-1,126
 258 444 258 444 258 432 c 0,127,128
 258 424 258 424 266 410 c 2,129,-1
 332 316 l 2,130,131
 336 311 336 311 336 303 c 128,-1,132
 336 295 336 295 331 288 c 2,133,-1
 330 286 l 1,134,-1
 266 194 l 2,135,136
 258 183 258 183 258 172 c 0,137,138
 258 160 258 160 265.5 152 c 128,-1,139
 273 144 273 144 284 144 c 2,140,-1
 453 144 l 2,141,142
 464 144 464 144 471.5 152 c 128,-1,143
 479 160 479 160 479 172 c 128,-1,144
 479 184 479 184 472 194 c 2,145,-1
 408 288 l 1,146,-1
 407 290 l 2,147,148
 403 298 403 298 403 303 c 128,-1,149
 403 308 403 308 407 316 c 2,150,-1
 472 411 l 2,151,152
 480 422 480 422 480 432 c 0,120,121
325 174 m 0,153,154
 331 182 331 182 323 188 c 0,155,156
 314 195 314 195 308 186 c 0,157,158
 300 178 300 178 310 172 c 0,159,160
 317 165 317 165 325 174 c 0,153,154
360 174 m 0,161,162
 366 182 366 182 358 188 c 0,163,164
 349 195 349 195 343 186 c 0,165,166
 335 178 335 178 345 172 c 0,167,168
 352 165 352 165 360 174 c 0,161,162
395 174 m 0,169,170
 401 182 401 182 393 188 c 0,171,172
 384 195 384 195 378 186 c 0,173,174
 370 178 370 178 380 172 c 0,175,176
 387 165 387 165 395 174 c 0,169,170
430 174 m 0,177,178
 436 182 436 182 428 188 c 0,179,180
 419 195 419 195 413 186 c 0,181,182
 405 178 405 178 415 172 c 0,183,184
 422 165 422 165 430 174 c 0,177,178
360 207 m 0,185,186
 366 215 366 215 358 221 c 0,187,188
 349 228 349 228 343 219 c 0,189,190
 336 212 336 212 345 204 c 0,191,192
 353 198 353 198 360 207 c 0,185,186
395 207 m 0,193,194
 401 215 401 215 393 221 c 0,195,196
 384 228 384 228 378 219 c 0,197,198
 371 212 371 212 380 204 c 0,199,200
 388 198 388 198 395 207 c 0,193,194
360 378 m 0,201,202
 366 371 366 371 358 363 c 0,203,204
 348 357 348 357 343 366 c 0,205,206
 335 374 335 374 345 380 c 0,207,208
 352 387 352 387 360 378 c 0,201,202
395 378 m 0,209,210
 401 371 401 371 393 363 c 0,211,212
 383 357 383 357 378 366 c 0,213,214
 370 374 370 374 380 380 c 0,215,216
 387 387 387 387 395 378 c 0,209,210
377 347 m 0,217,218
 385 339 385 339 375 333 c 0,219,220
 367 326 367 326 360 335 c 0,221,222
 354 343 354 343 362 349 c 0,223,224
 371 356 371 356 377 347 c 0,217,218
377 264 m 1,225,226
 384 256 384 256 375 249 c 0,227,228
 367 244 367 244 360 251 c 0,229,230
 354 260 354 260 362 266 c 0,231,232
 371 273 371 273 377 264 c 1,233,-1
 377 264 l 1,225,226
EndSplineSet
Validated: 553
EndChar

StartChar: bestellung-notiz-bearbeiten
Encoding: 61841 61841 14
Width: 512
GlyphClass: 2
Flags: W
LayerCount: 2
Fore
SplineSet
310 50 m 1,0,-1
 480 70 l 1,1,-1
 467 83 l 2,2,3
 429 121 429 121 413 181 c 1,4,-1
 402 159 l 1,5,6
 415 119 415 119 443 84 c 1,7,-1
 340 71 l 1,8,-1
 310 50 l 1,0,-1
383 413 m 1,9,10
 379 424 379 424 373.5 434 c 128,-1,11
 368 444 368 444 364 451.5 c 128,-1,12
 360 459 360 459 356.5 464.5 c 128,-1,13
 353 470 353 470 350 474 c 2,14,-1
 348 477 l 1,15,-1
 345 480 l 1,16,-1
 32 480 l 1,17,-1
 44 465 l 2,18,19
 46 463 46 463 52.5 453.5 c 128,-1,20
 59 444 59 444 71 422 c 128,-1,21
 83 400 83 400 93 374 c 128,-1,22
 103 348 103 348 109 311 c 128,-1,23
 115 274 115 274 113 238 c 0,24,25
 112 224 112 224 113 208.5 c 128,-1,26
 114 193 114 193 117 178 c 128,-1,27
 120 163 120 163 123.5 148.5 c 128,-1,28
 127 134 127 134 131 120 c 128,-1,29
 135 106 135 106 139.5 94 c 128,-1,30
 144 82 144 82 148 71.5 c 128,-1,31
 152 61 152 61 155 54 c 128,-1,32
 158 47 158 47 160 42 c 2,33,-1
 163 37 l 1,34,-1
 166 32 l 1,35,-1
 223 39 l 1,36,-1
 225 57 l 1,37,-1
 176 51 l 1,38,39
 126 157 126 157 130 236 c 0,40,41
 138 353 138 353 68 462 c 1,42,-1
 337 462 l 1,43,44
 354 439 354 439 371 395 c 1,45,-1
 382 413 l 1,46,-1
 383 413 l 1,9,10
350 377 m 0,47,48
 350 387 350 387 340 387 c 2,49,-1
 147 387 l 1,50,-1
 147 386 l 1,51,-1
 146 387 l 1,52,53
 137 387 137 387 137 377 c 0,54,55
 137 368 137 368 146 368 c 2,56,-1
 147 368 l 1,57,-1
 340 368 l 2,58,59
 350 368 350 368 350 377 c 0,47,48
163 319 m 1,60,-1
 162 319 l 2,61,62
 153 319 153 319 153 309 c 0,63,64
 153 300 153 300 163 300 c 1,65,-1
 164 301 l 1,66,-1
 164 300 l 1,67,-1
 319 305 l 1,68,-1
 330 324 l 1,69,-1
 163 319 l 1,60,-1
166 254 m 1,70,-1
 165 254 l 2,71,72
 156 252 156 252 156 244 c 0,73,74
 156 235 156 235 166 235 c 2,75,-1
 167 235 l 1,76,-1
 282 243 l 1,77,-1
 294 262 l 1,78,-1
 166 254 l 1,70,-1
185 129 m 1,79,-1
 184 129 l 2,80,81
 174 127 174 127 176 118 c 0,82,83
 176 110 176 110 186 110 c 2,84,-1
 187 110 l 1,85,-1
 231 115 l 1,86,-1
 233 134 l 1,87,-1
 185 129 l 1,79,-1
169 190 m 1,88,-1
 168 190 l 2,89,90
 158 188 158 188 160 180 c 0,91,92
 160 171 160 171 170 171 c 2,93,-1
 171 171 l 1,94,-1
 245 178 l 1,95,-1
 256 198 l 1,96,-1
 169 190 l 1,88,-1
446 383 m 1,97,98
 425 394 425 394 402 389 c 0,99,100
 391 385 391 385 385 381 c 2,101,-1
 383 379 l 1,102,-1
 266 176 l 1,103,-1
 264 172 l 1,104,-1
 269 172 l 1,105,-1
 273 172 l 1,106,-1
 282 172 l 1,107,-1
 284 171 l 1,108,-1
 286 173 l 1,109,-1
 398 367 l 1,110,-1
 400 368 l 2,111,112
 401 368 401 368 403 369 c 128,-1,113
 405 370 405 370 407 371 c 0,114,115
 424 374 424 374 436 366 c 0,116,117
 459 353 459 353 459 331 c 1,118,119
 440 297 440 297 403.5 234.5 c 128,-1,120
 367 172 367 172 347 138 c 2,121,-1
 346 136 l 1,122,-1
 347 135 l 2,123,124
 348 134 348 134 350.5 129.5 c 128,-1,125
 353 125 353 125 354 122 c 2,126,-1
 356 117 l 1,127,-1
 359 122 l 1,128,-1
 477 325 l 1,129,-1
 477 326 l 1,130,-1
 478 328 l 1,131,132
 478 363 478 363 446 382 c 1,133,-1
 446 383 l 1,97,98
311 143 m 0,134,135
 304 147 304 147 296.5 150 c 128,-1,136
 289 153 289 153 283.5 153.5 c 128,-1,137
 278 154 278 154 272 154 c 128,-1,138
 266 154 266 154 262.5 153.5 c 128,-1,139
 259 153 259 153 256 152 c 2,140,-1
 253 152 l 1,141,-1
 251 151 l 1,142,-1
 251 149 l 1,143,-1
 248 104 l 1,144,-1
 262 107 l 1,145,-1
 266 106 l 1,146,147
 268 124 268 124 269 135 c 1,148,149
 282 137 282 137 300 127 c 0,150,151
 307 123 307 123 312.5 117.5 c 128,-1,152
 318 112 318 112 320 108 c 2,153,-1
 321 104 l 1,154,-1
 297 84 l 2,155,156
 300 82 300 82 302 78 c 2,157,-1
 304 68 l 1,158,-1
 342 95 l 1,159,-1
 344 96 l 1,160,-1
 343 98 l 2,161,162
 343 99 343 99 342.5 101.5 c 128,-1,163
 342 104 342 104 340 109.5 c 128,-1,164
 338 115 338 115 334.5 120.5 c 128,-1,165
 331 126 331 126 325 132 c 128,-1,166
 319 138 319 138 311 143 c 0,134,135
417 348 m 2,167,168
 414 350 414 350 410 348 c 0,169,170
 405 346 405 346 402 339 c 2,171,-1
 324 204 l 2,172,173
 318 195 318 195 327 190 c 0,174,175
 331 186 331 186 340 195 c 2,176,-1
 418 330 l 2,177,178
 422 338 422 338 422 343 c 2,179,-1
 417 348 l 2,167,168
293 61 m 2,180,181
 293 74 293 74 275 85 c 0,182,183
 268 89 268 89 261 89.5 c 128,-1,184
 254 90 254 90 250.5 89 c 128,-1,185
 247 88 247 88 247 87 c 2,186,-1
 245 86 l 1,187,-1
 245 85 l 1,188,-1
 243 45 l 2,189,190
 243 37 243 37 248 34 c 128,-1,191
 253 31 253 31 258 36 c 2,192,-1
 291 58 l 1,193,-1
 292 58 l 1,194,-1
 292 59 l 1,195,-1
 293 60 l 1,196,-1
 293 61 l 2,180,181
EndSplineSet
Validated: 553
EndChar

StartChar: bestellung-notiz-ok
Encoding: 61844 61844 15
Width: 512
GlyphClass: 2
Flags: W
LayerCount: 2
Fore
SplineSet
399 364 m 1,0,1
 384 423 384 423 348 477 c 1,2,-1
 345 480 l 1,3,-1
 32 480 l 1,4,-1
 44 465 l 2,5,6
 46 463 46 463 52.5 453.5 c 128,-1,7
 59 444 59 444 71 422 c 128,-1,8
 83 400 83 400 93 374 c 128,-1,9
 103 348 103 348 109 311 c 128,-1,10
 115 274 115 274 113 238 c 0,11,12
 112 224 112 224 113 208.5 c 128,-1,13
 114 193 114 193 117 178 c 128,-1,14
 120 163 120 163 123.5 148.5 c 128,-1,15
 127 134 127 134 131 120 c 128,-1,16
 135 106 135 106 139.5 94 c 128,-1,17
 144 82 144 82 148 71.5 c 128,-1,18
 152 61 152 61 155 54 c 128,-1,19
 158 47 158 47 160 42 c 2,20,-1
 163 37 l 1,21,-1
 166 32 l 1,22,-1
 480 70 l 1,23,-1
 467 83 l 2,24,25
 460 90 460 90 448.5 104.5 c 128,-1,26
 437 119 437 119 421 158.5 c 128,-1,27
 405 198 405 198 409 236 c 1,28,-1
 391 218 l 1,29,30
 392 149 392 149 443 84 c 1,31,-1
 176 51 l 1,32,33
 126 157 126 157 130 236 c 0,34,35
 138 353 138 353 68 462 c 1,36,-1
 337 462 l 1,37,38
 370 412 370 412 385 352 c 1,39,-1
 399 364 l 1,0,1
350 377 m 0,40,41
 350 387 350 387 340 387 c 2,42,-1
 147 387 l 1,43,-1
 147 386 l 1,44,-1
 146 387 l 1,45,46
 137 387 137 387 137 377 c 0,47,48
 137 368 137 368 146 368 c 2,49,-1
 147 368 l 1,50,-1
 340 368 l 2,51,52
 350 368 350 368 350 377 c 0,40,41
163 319 m 1,53,-1
 162 319 l 2,54,55
 153 319 153 319 153 309 c 0,56,57
 153 300 153 300 163 300 c 1,58,-1
 164 301 l 1,59,-1
 164 300 l 1,60,-1
 330 305 l 1,61,-1
 355 325 l 1,62,-1
 163 319 l 1,53,-1
176 118 m 0,63,64
 176 110 176 110 186 110 c 2,65,-1
 187 110 l 1,66,-1
 241 116 l 1,67,-1
 223 133 l 1,68,-1
 185 129 l 1,69,-1
 184 129 l 2,70,71
 174 127 174 127 176 118 c 0,63,64
458 365 m 1,72,-1
 464 376 l 1,73,-1
 461 366 l 1,74,-1
 462 343 l 1,75,-1
 268 145 l 1,76,-1
 169 232 l 1,77,-1
 169 250 l 1,78,-1
 166 260 l 1,79,-1
 169 255 l 1,80,-1
 270 204 l 1,81,-1
 458 365 l 1,72,-1
480 337 m 1,82,-1
 480 409 l 1,83,-1
 267 226 l 1,84,-1
 151 284 l 1,85,-1
 151 224 l 1,86,-1
 269 117 l 1,87,-1
 480 337 l 1,82,-1
359 137 m 1,88,89
 357 146 357 146 348 146 c 1,90,91
 348 145 348 145 347 145 c 2,92,-1
 347 146 l 1,93,-1
 319 142 l 1,94,-1
 300 122 l 1,95,-1
 349 127 l 1,96,-1
 350 127 l 2,97,98
 359 129 359 129 359 137 c 1,99,-1
 359 137 l 1,88,89
EndSplineSet
Validated: 553
EndChar

StartChar: bestellung-notiz
Encoding: 61840 61840 16
Width: 512
GlyphClass: 2
Flags: W
LayerCount: 2
Fore
SplineSet
68 462 m 1,0,1
 138 353 138 353 130 236 c 0,2,3
 126 157 126 157 176 51 c 1,4,-1
 443 84 l 1,5,6
 383 159 383 159 392 241 c 0,7,8
 405 359 405 359 337 462 c 1,9,-1
 68 462 l 1,0,1
166 32 m 1,10,-1
 163 37 l 1,11,-1
 160 42 l 2,12,13
 158 47 158 47 155 54 c 128,-1,14
 152 61 152 61 148 71.5 c 128,-1,15
 144 82 144 82 139.5 94 c 128,-1,16
 135 106 135 106 131 120 c 128,-1,17
 127 134 127 134 123.5 148.5 c 128,-1,18
 120 163 120 163 117 178 c 128,-1,19
 114 193 114 193 113 208.5 c 128,-1,20
 112 224 112 224 113 238 c 0,21,22
 115 274 115 274 109 311 c 128,-1,23
 103 348 103 348 93 374 c 128,-1,24
 83 400 83 400 71 422 c 128,-1,25
 59 444 59 444 52.5 453.5 c 128,-1,26
 46 463 46 463 44 465 c 2,27,-1
 32 480 l 1,28,-1
 345 480 l 1,29,-1
 348 477 l 1,30,31
 377 429 377 429 387 401 c 0,32,33
 418 320 418 320 409 239 c 0,34,35
 406 215 406 215 411 190 c 128,-1,36
 416 165 416 165 424.5 147.5 c 128,-1,37
 433 130 433 130 443.5 113.5 c 128,-1,38
 454 97 454 97 459 91.5 c 128,-1,39
 464 86 464 86 467 83 c 2,40,-1
 480 70 l 1,41,-1
 166 32 l 1,10,-1
350 377 m 0,42,43
 350 387 350 387 340 387 c 2,44,-1
 147 387 l 1,45,-1
 147 386 l 1,46,-1
 146 387 l 1,47,48
 137 387 137 387 137 377 c 0,49,50
 137 368 137 368 146 368 c 2,51,-1
 147 368 l 1,52,-1
 340 368 l 2,53,54
 350 368 350 368 350 377 c 0,42,43
367 316 m 0,55,56
 365 325 365 325 357 325 c 2,57,-1
 163 319 l 1,58,-1
 162 319 l 2,59,60
 153 319 153 319 153 309 c 0,61,62
 153 300 153 300 163 300 c 1,63,-1
 164 301 l 1,64,-1
 164 300 l 1,65,-1
 357 306 l 2,66,67
 367 306 367 306 367 316 c 0,55,56
360 257 m 0,68,69
 358 266 358 266 350 266 c 2,70,-1
 166 254 l 1,71,-1
 165 254 l 2,72,73
 156 252 156 252 156 244 c 0,74,75
 156 235 156 235 166 235 c 2,76,-1
 167 235 l 1,77,-1
 351 247 l 2,78,79
 360 247 360 247 360 257 c 0,68,69
338 136 m 0,80,81
 336 144 336 144 327 144 c 2,82,-1
 185 129 l 1,83,-1
 184 129 l 2,84,85
 174 127 174 127 176 118 c 0,86,87
 176 110 176 110 186 110 c 2,88,-1
 187 110 l 1,89,-1
 329 125 l 2,90,91
 338 127 338 127 338 136 c 0,80,81
363 199 m 1,92,93
 363 209 363 209 353 207 c 2,94,-1
 169 190 l 1,95,-1
 168 190 l 2,96,97
 158 188 158 188 160 180 c 0,98,99
 160 171 160 171 170 171 c 2,100,-1
 171 171 l 1,101,-1
 355 189 l 2,102,103
 363 189 363 189 363 199 c 1,104,-1
 363 199 l 1,92,93
EndSplineSet
Validated: 553
EndChar

StartChar: bestellung-notiz-ztermin
Encoding: 61847 61847 17
Width: 512
GlyphClass: 2
Flags: W
LayerCount: 2
Fore
SplineSet
147 387 m 1,0,-1
 147 386 l 1,1,-1
 146 387 l 1,2,3
 137 387 137 387 137 377 c 0,4,5
 137 368 137 368 146 368 c 2,6,-1
 147 368 l 1,7,-1
 210 368 l 1,8,9
 214 379 214 379 219 387 c 1,10,-1
 147 387 l 1,0,-1
163 319 m 1,11,-1
 162 319 l 2,12,13
 153 319 153 319 153 309 c 0,14,15
 153 300 153 300 163 300 c 1,16,-1
 164 301 l 1,17,-1
 164 300 l 1,18,-1
 200 301 l 1,19,20
 199 305 199 305 199 313 c 2,21,-1
 199 320 l 1,22,-1
 163 319 l 1,11,-1
166 254 m 1,23,-1
 165 254 l 2,24,25
 156 252 156 252 156 244 c 0,26,27
 156 235 156 235 166 235 c 2,28,-1
 167 235 l 1,29,-1
 219 239 l 1,30,31
 214 246 214 246 210 257 c 1,32,-1
 166 254 l 1,23,-1
338 136 m 0,33,34
 336 144 336 144 327 144 c 2,35,-1
 185 129 l 1,36,-1
 184 129 l 2,37,38
 174 127 174 127 176 118 c 0,39,40
 176 110 176 110 186 110 c 2,41,-1
 187 110 l 1,42,-1
 329 125 l 2,43,44
 338 127 338 127 338 136 c 0,33,34
169 190 m 1,45,-1
 168 190 l 2,46,47
 158 188 158 188 160 180 c 0,48,49
 160 171 160 171 170 171 c 2,50,-1
 171 171 l 1,51,-1
 277 181 l 1,52,53
 269 186 269 186 253 198 c 1,54,-1
 169 190 l 1,45,-1
358 462 m 2,55,56
 356 465 356 465 354 467.5 c 128,-1,57
 352 470 352 470 351 472 c 128,-1,58
 350 474 350 474 349 476 c 2,59,-1
 348 477 l 1,60,-1
 345 480 l 1,61,-1
 32 480 l 1,62,-1
 44 465 l 2,63,64
 46 463 46 463 52.5 453.5 c 128,-1,65
 59 444 59 444 71 422 c 128,-1,66
 83 400 83 400 93 374 c 128,-1,67
 103 348 103 348 109 311 c 128,-1,68
 115 274 115 274 113 238 c 0,69,70
 112 224 112 224 113 208.5 c 128,-1,71
 114 193 114 193 117 178 c 128,-1,72
 120 163 120 163 123.5 148.5 c 128,-1,73
 127 134 127 134 131 120 c 128,-1,74
 135 106 135 106 139.5 94 c 128,-1,75
 144 82 144 82 148 71.5 c 128,-1,76
 152 61 152 61 155 54 c 128,-1,77
 158 47 158 47 160 42 c 2,78,-1
 163 37 l 1,79,-1
 166 32 l 1,80,-1
 480 70 l 1,81,-1
 467 83 l 2,82,83
 428 122 428 122 414 179 c 1,84,85
 411 177 411 177 398 172 c 1,86,87
 411 126 411 126 443 84 c 1,88,-1
 176 51 l 1,89,90
 126 157 126 157 130 236 c 0,91,92
 138 353 138 353 68 462 c 1,93,-1
 337 462 l 1,94,-1
 348 462 l 1,95,-1
 358 462 l 2,55,56
460 313 m 128,-1,97
 460 266 460 266 427 233.5 c 128,-1,98
 394 201 394 201 348 201 c 128,-1,99
 302 201 302 201 269 234 c 128,-1,100
 236 267 236 267 236 313 c 128,-1,101
 236 359 236 359 269 392 c 128,-1,102
 302 425 302 425 348 425 c 128,-1,103
 394 425 394 425 427 392.5 c 128,-1,96
 460 360 460 360 460 313 c 128,-1,97
479 313 m 128,-1,105
 479 367 479 367 441 405 c 128,-1,106
 403 443 403 443 348 443 c 0,107,108
 294 443 294 443 256 405 c 128,-1,109
 218 367 218 367 218 313 c 128,-1,110
 218 259 218 259 256 220.5 c 128,-1,111
 294 182 294 182 348 182 c 0,112,113
 403 182 403 182 441 220.5 c 128,-1,104
 479 259 479 259 479 313 c 128,-1,105
413 292 m 1,114,115
 381 307 381 307 367 314 c 1,116,117
 365 325 365 325 358 329 c 1,118,-1
 358 396 l 2,119,120
 358 405 358 405 348 405 c 1,121,-1
 338 395 l 1,122,-1
 338 328 l 1,123,124
 330 323 330 323 330 313 c 0,125,126
 330 305 330 305 335 299.5 c 128,-1,127
 340 294 340 294 348 294 c 0,128,129
 354 294 354 294 357 297 c 1,130,-1
 404 274 l 2,131,132
 415 270 415 270 419 278 c 0,133,134
 423 288 423 288 413 292 c 1,135,-1
 413 292 l 1,114,115
EndSplineSet
Validated: 553
EndChar

StartChar: bestellung-telefonisch-zpc
Encoding: 61843 61843 18
Width: 512
GlyphClass: 2
Flags: W
LayerCount: 2
Fore
SplineSet
138 99 m 1,0,1
 143 84 143 84 149 69 c 128,-1,2
 155 54 155 54 159 46 c 2,3,-1
 163 37 l 1,4,-1
 166 32 l 1,5,-1
 480 70 l 1,6,-1
 467 83 l 2,7,8
 464 86 464 86 459 91.5 c 128,-1,9
 454 97 454 97 443.5 113.5 c 128,-1,10
 433 130 433 130 424.5 147.5 c 128,-1,11
 416 165 416 165 411 190 c 128,-1,12
 406 215 406 215 409 239 c 0,13,14
 413 277 413 277 408 319 c 1,15,16
 401 316 401 316 391 318 c 1,17,18
 396 278 396 278 392 241 c 0,19,20
 383 159 383 159 443 84 c 1,21,-1
 176 51 l 1,22,23
 170 61 170 61 159 90 c 0,24,25
 158 90 158 90 157 90.5 c 128,-1,26
 156 91 156 91 155 91 c 0,27,28
 147 93 147 93 138 99 c 1,0,1
367 446 m 1,29,30
 363 454 363 454 358.5 461.5 c 128,-1,31
 354 469 354 469 351 473 c 2,32,-1
 348 477 l 1,33,-1
 345 480 l 1,34,-1
 32 480 l 1,35,-1
 44 465 l 2,36,37
 46 463 46 463 52.5 453.5 c 128,-1,38
 59 444 59 444 71 422 c 128,-1,39
 83 400 83 400 93 374 c 128,-1,40
 103 348 103 348 109 311 c 128,-1,41
 115 274 115 274 113 238 c 0,42,43
 112 212 112 212 117 177 c 1,44,45
 127 199 127 199 131 206 c 1,46,47
 130 216 130 216 130 236 c 0,48,49
 138 353 138 353 68 462 c 1,50,-1
 337 462 l 2,51,52
 339 460 339 460 352 437 c 0,53,54
 354 438 354 438 357 440 c 128,-1,55
 360 442 360 442 362.5 443.5 c 128,-1,56
 365 445 365 445 367 446 c 1,29,30
147 387 m 1,57,-1
 147 386 l 1,58,-1
 146 387 l 1,59,60
 137 387 137 387 137 377 c 0,61,62
 137 368 137 368 146 368 c 2,63,-1
 147 368 l 1,64,-1
 264 368 l 2,65,66
 267 371 267 371 274 377.5 c 128,-1,67
 281 384 281 384 285 387 c 2,68,-1
 147 387 l 1,57,-1
333 306 m 2,69,-1
 357 306 l 2,70,71
 367 306 367 306 367 316 c 0,72,73
 365 325 365 325 357 325 c 2,74,-1
 354 325 l 2,75,76
 350 322 350 322 341 313 c 0,77,78
 340 312 340 312 337.5 310 c 128,-1,79
 335 308 335 308 333 306 c 2,69,-1
163 319 m 1,80,-1
 162 319 l 2,81,82
 153 319 153 319 153 309 c 0,83,84
 153 300 153 300 163 300 c 1,85,-1
 164 301 l 1,86,-1
 164 300 l 1,87,-1
 199 301 l 1,88,89
 215 320 215 320 216 321 c 2,90,-1
 163 319 l 1,80,-1
273 242 m 1,91,-1
 351 247 l 2,92,93
 360 247 360 247 360 257 c 0,94,95
 358 266 358 266 350 266 c 2,96,-1
 291 262 l 1,97,98
 283 254 283 254 273 242 c 1,91,-1
236 115 m 2,99,-1
 329 125 l 2,100,101
 338 127 338 127 338 136 c 0,102,103
 336 144 336 144 327 144 c 2,104,-1
 248 135 l 1,105,106
 242 125 242 125 237 118 c 2,107,-1
 236 117 l 2,108,109
 236 116 236 116 236 115 c 2,99,-1
268 181 m 1,110,-1
 355 189 l 2,111,112
 363 189 363 189 363 199 c 128,-1,113
 363 209 363 209 353 207 c 2,114,-1
 266 199 l 1,115,116
 270 194 270 194 268 181 c 1,110,-1
475 412 m 1,117,118
 468 439 468 439 458 447 c 0,119,120
 454 451 454 451 450 453 c 2,121,-1
 448 454 l 2,122,123
 447 454 447 454 444.5 454.5 c 128,-1,124
 442 455 442 455 440 455 c 2,125,-1
 437 455 l 2,126,127
 408 455 408 455 356 420.5 c 128,-1,128
 304 386 304 386 249 331 c 0,129,130
 191 273 191 273 157 220 c 128,-1,131
 123 167 123 167 125 139 c 0,132,133
 126 133 126 133 128 131 c 0,134,135
 135 126 135 126 142 133 c 0,136,137
 144 137 144 137 143 141 c 1,138,-1
 144 141 l 1,139,140
 142 163 142 163 173.5 212 c 128,-1,141
 205 261 205 261 262 318 c 0,142,143
 317 373 317 373 365.5 404.5 c 128,-1,144
 414 436 414 436 437 436 c 2,145,-1
 439 436 l 1,146,-1
 440 436 l 1,147,-1
 441 436 l 1,148,-1
 442 436 l 2,149,150
 443 435 443 435 446 433 c 0,151,152
 452 427 452 427 457 407 c 0,153,154
 462 388 462 388 460 384 c 0,155,156
 457 374 457 374 428 360 c 2,157,-1
 422 357 l 2,158,159
 406 348 406 348 398 348 c 0,160,161
 394 348 394 348 393 349 c 0,162,163
 391 350 391 350 389 351.5 c 128,-1,164
 387 353 387 353 386 353 c 0,165,166
 371 364 371 364 361 364 c 0,167,168
 354 364 354 364 346 359 c 2,169,-1
 345 358 l 1,170,171
 310 332 310 332 279 301 c 0,172,173
 257 279 257 279 221 235 c 1,174,-1
 221 234 l 1,175,176
 211 215 211 215 227 194 c 0,177,178
 227 193 227 193 228.5 191 c 128,-1,179
 230 189 230 189 231 187 c 0,180,181
 236 179 236 179 223 158 c 2,182,-1
 220 152 l 2,183,184
 206 123 206 123 196 120 c 0,185,186
 195 119 195 119 193 119 c 0,187,188
 190 119 190 119 180 122 c 2,189,-1
 169 124 l 2,190,191
 162 126 162 126 159 121 c 0,192,193
 152 114 152 114 160 108 c 2,194,-1
 161 107 l 2,195,196
 162 106 162 106 163 106 c 2,197,-1
 176 104 l 2,198,199
 188 101 188 101 193 101 c 0,200,201
 199 101 199 101 201 102 c 0,202,203
 220 107 220 107 237 144 c 0,204,205
 238 145 238 145 240 149 c 0,206,207
 256 182 256 182 247 197 c 0,208,209
 246 199 246 199 244.5 201.5 c 128,-1,210
 243 204 243 204 242 205 c 0,211,212
 232 217 232 217 237 224 c 0,213,214
 261 257 261 257 292 288 c 128,-1,215
 323 319 323 319 356 343 c 0,216,217
 360 345 360 345 361 345 c 0,218,219
 366 345 366 345 375 338 c 0,220,221
 382 333 382 333 383 333 c 0,222,223
 388 329 388 329 398 329 c 0,224,225
 411 329 411 329 431 340 c 0,226,227
 435 342 435 342 436 343 c 0,228,229
 473 361 473 361 478 379 c 0,230,231
 481 389 481 389 475 412 c 1,232,-1
 475 412 l 1,117,118
EndSplineSet
Validated: 553
EndChar

StartChar: bestell-einheit
Encoding: 61846 61846 19
Width: 512
GlyphClass: 2
Flags: W
LayerCount: 2
Fore
SplineSet
128 394 m 1,0,-1
 319 394 l 1,1,2
 327 382 327 382 336 364.5 c 128,-1,3
 345 347 345 347 354 309 c 128,-1,4
 363 271 363 271 359 234 c 0,5,6
 352 175 352 175 395 120 c 1,7,-1
 205 96 l 1,8,9
 169 173 169 173 172 230 c 0,10,11
 178 318 178 318 128 394 c 1,0,-1
480 256 m 0,12,13
 480 349 480 349 414.5 414.5 c 128,-1,14
 349 480 349 480 256 480 c 0,15,16
 159 480 159 480 95 411 c 1,17,18
 98 406 98 406 106 396 c 0,19,20
 158 316 158 316 153 231 c 0,21,22
 152 213 152 213 155 191.5 c 128,-1,23
 158 170 158 170 164 151 c 128,-1,24
 170 132 170 132 175.5 117 c 128,-1,25
 181 102 181 102 186 92 c 2,26,-1
 190 81 l 1,27,-1
 192 77 l 1,28,-1
 391 101 l 1,29,30
 333 51 333 51 256 51 c 0,31,32
 171 51 171 51 111 111 c 128,-1,33
 51 171 51 171 51 256 c 0,34,35
 51 322 51 322 89 374 c 0,36,37
 90 374 90 374 90 379 c 0,38,39
 90 388 90 388 80 388 c 0,40,41
 74 388 74 388 73 384 c 0,42,43
 32 327 32 327 32 256 c 0,44,45
 32 163 32 163 97.5 97.5 c 128,-1,46
 163 32 163 32 256 32 c 0,47,48
 358 32 358 32 425 109 c 1,49,-1
 412 123 l 1,50,51
 368 177 368 177 375 233 c 0,52,53
 380 260 380 260 375 289.5 c 128,-1,54
 370 319 370 319 365 337.5 c 128,-1,55
 360 356 360 356 350 375 c 128,-1,56
 340 394 340 394 336 400.5 c 128,-1,57
 332 407 332 407 329 411 c 2,58,-1
 327 413 l 1,59,-1
 124 413 l 1,60,61
 182 461 182 461 256 461 c 0,62,63
 341 461 341 461 401 401 c 128,-1,64
 461 341 461 341 461 256 c 0,65,66
 461 192 461 192 427 143 c 0,67,68
 426 139 426 139 426 138 c 0,69,70
 426 128 426 128 435 128 c 0,71,72
 440 128 440 128 443 133 c 0,73,74
 480 189 480 189 480 256 c 0,12,13
321 347 m 128,-1,76
 321 356 321 356 312 356 c 2,77,-1
 185 356 l 2,78,79
 175 356 175 356 175 347 c 128,-1,80
 175 338 175 338 185 338 c 2,81,-1
 312 338 l 2,82,75
 321 338 321 338 321 347 c 128,-1,76
341 286 m 0,83,84
 341 295 341 295 331 295 c 2,85,-1
 204 290 l 2,86,87
 195 290 195 290 195 281 c 0,88,89
 195 270 195 270 205 272 c 2,90,-1
 332 276 l 2,91,92
 341 276 341 276 341 286 c 0,83,84
342 226 m 0,93,94
 340 235 340 235 332 235 c 0,95,96
 205 226 205 226 204 226 c 0,97,98
 194 226 194 226 196 216 c 0,99,100
 196 207 196 207 206 207 c 2,101,-1
 333 216 l 2,102,103
 342 218 342 218 342 226 c 0,93,94
317 161 m 1,104,105
 317 171 317 171 307 169 c 0,106,107
 218 161 218 161 217 161 c 0,108,109
 207 159 207 159 209 151 c 0,110,111
 209 142 209 142 219 142 c 2,112,-1
 309 151 l 2,113,114
 319 151 319 151 317 161 c 1,115,-1
 317 161 l 1,104,105
EndSplineSet
Validated: 553
EndChar

StartChar: bestellungdokument
Encoding: 61850 61850 20
Width: 512
GlyphClass: 2
Flags: W
LayerCount: 2
Fore
SplineSet
399 449 m 1,0,-1
 399 404 l 1,1,-1
 445 404 l 1,2,-1
 399 449 l 1,0,-1
480 137 m 1,3,-1
 480 423 l 1,4,-1
 423 480 l 1,5,-1
 232 480 l 1,6,-1
 232 384 l 1,7,-1
 251 384 l 1,8,-1
 251 461 l 1,9,-1
 414 461 l 1,10,-1
 461 414 l 1,11,-1
 461 156 l 1,12,-1
 339 156 l 1,13,14
 340 149 340 149 344 137 c 1,15,-1
 480 137 l 1,3,-1
423 366 m 0,16,17
 423 375 423 375 413 375 c 2,18,-1
 299 375 l 2,19,20
 294 375 294 375 291 371 c 1,21,22
 296 365 296 365 300 356 c 1,23,-1
 413 356 l 2,24,25
 423 356 423 356 423 366 c 0,16,17
423 309 m 0,26,27
 423 318 423 318 413 318 c 2,28,-1
 319 318 l 1,29,30
 323 311 323 311 326 299 c 1,31,-1
 413 299 l 2,32,33
 423 299 423 299 423 309 c 0,26,27
423 251 m 0,34,35
 423 261 423 261 413 261 c 2,36,-1
 336 261 l 2,37,38
 336 258 336 258 337 251.5 c 128,-1,39
 338 245 338 245 339 242 c 2,40,-1
 413 242 l 2,41,42
 423 242 423 242 423 251 c 0,34,35
383 194 m 128,-1,44
 383 204 383 204 373 204 c 2,45,-1
 340 204 l 1,46,47
 340 191 340 191 339 184 c 1,48,-1
 373 184 l 2,49,43
 383 184 383 184 383 194 c 128,-1,44
341 67 m 1,50,-1
 147 43 l 1,51,52
 111 120 111 120 114 180 c 0,53,54
 119 268 119 268 68 348 c 1,55,-1
 264 348 l 1,56,57
 314 270 314 270 304 184 c 0,58,59
 298 126 298 126 341 67 c 1,50,-1
365 63 m 1,60,-1
 362 66 l 2,61,62
 359 70 359 70 354.5 75.5 c 128,-1,63
 350 81 350 81 345 89.5 c 128,-1,64
 340 98 340 98 335 108 c 128,-1,65
 330 118 330 118 326 130 c 128,-1,66
 322 142 322 142 320.5 155 c 128,-1,67
 319 168 319 168 321 182 c 0,68,69
 332 277 332 277 274 364 c 2,70,-1
 272 367 l 1,71,-1
 32 367 l 1,72,-1
 41 355 l 2,73,74
 43 355 43 355 56.5 333.5 c 128,-1,75
 70 312 70 312 83.5 269 c 128,-1,76
 97 226 97 226 94 181 c 0,77,78
 93 167 93 167 94.5 151.5 c 128,-1,79
 96 136 96 136 99.5 121.5 c 128,-1,80
 103 107 103 107 107 93.5 c 128,-1,81
 111 80 111 80 115.5 68.5 c 128,-1,82
 120 57 120 57 123.5 48 c 128,-1,83
 127 39 127 39 130 34 c 2,84,-1
 132 28 l 1,85,-1
 134 24 l 1,86,-1
 375 53 l 1,87,-1
 365 63 l 1,60,-1
266 302 m 0,88,89
 266 311 266 311 256 311 c 2,90,-1
 127 311 l 1,91,-1
 126 311 l 2,92,93
 117 311 117 311 117 302 c 0,94,95
 117 292 117 292 126 292 c 2,96,-1
 127 292 l 1,97,-1
 256 292 l 2,98,99
 266 292 266 292 266 302 c 0,88,89
286 239 m 0,100,101
 286 250 286 250 276 248 c 2,102,-1
 147 244 l 1,103,-1
 146 244 l 2,104,105
 137 244 137 244 137 234 c 0,106,107
 137 225 137 225 147 225 c 2,108,-1
 148 225 l 1,109,-1
 277 229 l 2,110,111
 286 231 286 231 286 239 c 0,100,101
287 178 m 0,112,113
 285 189 285 189 276 187 c 2,114,-1
 148 178 l 1,115,-1
 147 178 l 2,116,117
 136 178 136 178 138 168 c 0,118,119
 138 159 138 159 148 159 c 2,120,-1
 149 159 l 1,121,-1
 278 168 l 2,122,123
 287 170 287 170 287 178 c 0,112,113
262 112 m 1,124,125
 260 122 260 122 251 120 c 2,126,-1
 161 112 l 1,127,-1
 160 112 l 2,128,129
 151 110 151 110 151 101 c 0,130,131
 153 91 153 91 162 93 c 2,132,-1
 163 93 l 1,133,-1
 253 102 l 2,134,135
 262 102 262 102 262 112 c 1,136,-1
 262 112 l 1,124,125
EndSplineSet
Validated: 41
EndChar

StartChar: filter-k-loeschen
Encoding: 93 93 21
Width: 512
GlyphClass: 2
Flags: W
LayerCount: 2
Fore
SplineSet
459 328 m 0,0,1
 468 305 468 305 449 263 c 128,-1,2
 430 221 430 221 402 202 c 0,3,4
 381 190 381 190 363 187 c 1,5,-1
 363 186 l 1,6,7
 356 184 356 184 356 177 c 0,8,9
 356 168 356 168 365 168 c 0,10,11
 367 168 367 168 367 169 c 2,12,-1
 368 169 l 1,13,-1
 369 169 l 1,14,15
 393 174 393 174 412 186 c 0,16,17
 446 209 446 209 467 257.5 c 128,-1,18
 488 306 488 306 476 335 c 0,19,20
 467 356 467 356 449 362 c 1,21,-1
 439 343 l 1,22,23
 454 340 454 340 459 328 c 0,0,1
221 41 m 0,24,25
 221 32 221 32 230 32 c 2,26,-1
 286 32 l 2,27,28
 295 32 295 32 295 41 c 0,29,30
 295 51 295 51 286 51 c 2,31,-1
 230 51 l 2,32,33
 221 51 221 51 221 41 c 0,24,25
33 98 m 128,-1,35
 33 87 33 87 41 78.5 c 128,-1,36
 49 70 49 70 60 69 c 2,37,-1
 128 69 l 1,38,39
 132 53 132 53 141.5 44 c 128,-1,40
 151 35 151 35 156.5 33.5 c 128,-1,41
 162 32 162 32 165 32 c 2,42,-1
 182 32 l 2,43,44
 192 32 192 32 192 41 c 0,45,46
 192 51 192 51 182 51 c 2,47,-1
 166 51 l 2,48,49
 150 51 150 51 146 74 c 0,50,51
 144 81 144 81 142 83 c 0,52,53
 135 89 135 89 109 89 c 2,54,-1
 60 89 l 2,55,56
 52 89 52 89 52 98 c 128,-1,57
 52 107 52 107 60 107 c 2,58,-1
 154 107 l 2,59,60
 185 109 185 109 196 127 c 0,61,62
 203 137 203 137 203 153 c 1,63,-1
 178 178 l 1,64,65
 188 148 188 148 181 137 c 0,66,67
 173 126 173 126 154 126 c 2,68,-1
 99 126 l 1,69,-1
 98 125 l 1,70,-1
 97 126 l 1,71,-1
 63 126 l 1,72,-1
 60 126 l 2,73,74
 49 126 49 126 41 117.5 c 128,-1,34
 33 109 33 109 33 98 c 128,-1,35
478 473 m 0,75,76
 476 480 476 480 465 480 c 2,77,-1
 48 480 l 2,78,79
 39 480 39 480 34 472 c 0,80,81
 29 463 29 463 34 456 c 0,82,83
 45 435 45 435 61 405 c 1,84,-1
 77 421 l 1,85,-1
 62 450 l 2,86,87
 61 452 61 452 61 454 c 0,88,89
 61 459 61 459 67 461 c 2,90,-1
 444 461 l 1,91,-1
 444 461 l 1,92,93
 450 459 450 459 450 454 c 2,94,-1
 450 453 l 2,95,96
 449 452 449 452 449 451 c 2,97,-1
 320 197 l 2,98,99
 299 158 299 158 316 130 c 0,100,101
 328 107 328 107 357 107 c 2,102,-1
 452 107 l 2,103,104
 461 107 461 107 461 98 c 0,105,106
 461 88 461 88 452 88 c 2,107,-1
 396 88 l 2,108,109
 374 88 374 88 367 83 c 2,110,-1
 362 74 l 1,111,112
 359 60 359 60 354 55.5 c 128,-1,113
 349 51 349 51 336 51 c 2,114,-1
 329 51 l 2,115,116
 319 51 319 51 319 41 c 0,117,118
 319 32 319 32 329 32 c 2,119,-1
 336 32 l 2,120,121
 371 32 371 32 380 69 c 1,122,-1
 452 69 l 2,123,124
 463 70 463 70 471.5 78.5 c 128,-1,125
 480 87 480 87 480 98 c 128,-1,126
 480 109 480 109 471.5 117.5 c 128,-1,127
 463 126 463 126 452 126 c 2,128,-1
 357 126 l 2,129,130
 339 126 339 126 332 139 c 0,131,132
 326 149 326 149 328 164 c 0,133,134
 330 178 330 178 337 188 c 2,135,-1
 477 456 l 1,136,-1
 478 457 l 2,137,138
 482 466 482 466 478 473 c 0,75,76
271 351 m 1,139,-1
 204 284 l 1,140,-1
 270 218 l 1,141,-1
 231 179 l 1,142,-1
 165 245 l 1,143,-1
 99 179 l 1,144,-1
 60 219 l 1,145,-1
 125 284 l 1,146,-1
 58 351 l 1,147,-1
 97 390 l 1,148,-1
 164 323 l 1,149,-1
 231 391 l 1,150,-1
 271 351 l 1,139,-1
297 350 m 1,151,-1
 231 416 l 1,152,-1
 165 350 l 1,153,-1
 99 416 l 1,154,-1
 33 350 l 1,155,-1
 99 284 l 1,156,-1
 33 218 l 1,157,-1
 99 152 l 1,158,-1
 165 218 l 1,159,-1
 231 152 l 1,160,-1
 297 218 l 1,161,-1
 231 284 l 1,162,-1
 297 350 l 1,151,-1
EndSplineSet
Validated: 549
EndChar

StartChar: filter-k
Encoding: 91 91 22
Width: 512
GlyphClass: 2
Flags: W
LayerCount: 2
Fore
SplineSet
459 328 m 0,0,1
 468 305 468 305 449 263 c 128,-1,2
 430 221 430 221 402 202 c 0,3,4
 381 190 381 190 363 187 c 1,5,-1
 363 186 l 1,6,7
 356 184 356 184 356 177 c 0,8,9
 356 168 356 168 365 168 c 0,10,11
 367 168 367 168 367 169 c 2,12,-1
 368 169 l 1,13,-1
 369 169 l 1,14,15
 393 174 393 174 412 186 c 0,16,17
 446 209 446 209 467 257.5 c 128,-1,18
 488 306 488 306 476 335 c 0,19,20
 467 356 467 356 449 362 c 1,21,-1
 439 343 l 1,22,23
 454 340 454 340 459 328 c 0,0,1
221 41 m 0,24,25
 221 32 221 32 230 32 c 2,26,-1
 286 32 l 2,27,28
 295 32 295 32 295 41 c 0,29,30
 295 51 295 51 286 51 c 2,31,-1
 230 51 l 2,32,33
 221 51 221 51 221 41 c 0,24,25
478 473 m 0,34,35
 476 480 476 480 465 480 c 2,36,-1
 48 480 l 2,37,38
 39 480 39 480 34 472 c 0,39,40
 29 463 29 463 34 456 c 0,41,42
 170 197 170 197 171 195 c 0,43,44
 189 151 189 151 181 137 c 0,45,46
 173 126 173 126 154 126 c 2,47,-1
 63 126 l 1,48,-1
 60 126 l 2,49,50
 49 126 49 126 41 117.5 c 128,-1,51
 33 109 33 109 33 98 c 128,-1,52
 33 87 33 87 41 78.5 c 128,-1,53
 49 70 49 70 60 69 c 2,54,-1
 128 69 l 1,55,56
 132 53 132 53 141.5 44 c 128,-1,57
 151 35 151 35 156.5 33.5 c 128,-1,58
 162 32 162 32 165 32 c 2,59,-1
 182 32 l 2,60,61
 192 32 192 32 192 41 c 0,62,63
 192 51 192 51 182 51 c 2,64,-1
 166 51 l 2,65,66
 150 51 150 51 146 74 c 0,67,68
 144 81 144 81 142 83 c 0,69,70
 135 89 135 89 109 89 c 2,71,-1
 60 89 l 2,72,73
 52 89 52 89 52 98 c 128,-1,74
 52 107 52 107 60 107 c 2,75,-1
 154 107 l 2,76,77
 185 109 185 109 196 127 c 0,78,79
 212 150 212 150 188 202 c 2,80,-1
 62 450 l 2,81,82
 61 452 61 452 61 454 c 0,83,84
 61 459 61 459 67 461 c 2,85,-1
 444 461 l 1,86,-1
 444 461 l 1,87,88
 450 459 450 459 450 454 c 2,89,-1
 450 453 l 2,90,91
 449 452 449 452 449 451 c 2,92,-1
 320 197 l 2,93,94
 299 158 299 158 316 130 c 0,95,96
 328 107 328 107 357 107 c 2,97,-1
 452 107 l 2,98,99
 461 107 461 107 461 98 c 0,100,101
 461 88 461 88 452 88 c 2,102,-1
 396 88 l 2,103,104
 374 88 374 88 367 83 c 2,105,-1
 362 74 l 1,106,107
 359 60 359 60 354 55.5 c 128,-1,108
 349 51 349 51 336 51 c 2,109,-1
 329 51 l 2,110,111
 319 51 319 51 319 41 c 0,112,113
 319 32 319 32 329 32 c 2,114,-1
 336 32 l 2,115,116
 371 32 371 32 380 69 c 1,117,-1
 452 69 l 2,118,119
 463 70 463 70 471.5 78.5 c 128,-1,120
 480 87 480 87 480 98 c 128,-1,121
 480 109 480 109 471.5 117.5 c 128,-1,122
 463 126 463 126 452 126 c 2,123,-1
 357 126 l 2,124,125
 339 126 339 126 332 139 c 0,126,127
 326 149 326 149 328 164 c 0,128,129
 330 178 330 178 337 188 c 2,130,-1
 477 456 l 1,131,-1
 478 457 l 2,132,133
 482 466 482 466 478 473 c 0,34,35
214 224 m 1,134,135
 205 221 205 221 201 228 c 1,136,-1
 201 228 l 1,137,-1
 118 392 l 1,138,-1
 118 393 l 1,139,140
 114 401 114 401 122 406 c 0,141,142
 132 410 132 410 135 402 c 2,143,-1
 135 401 l 1,144,-1
 218 237 l 1,145,-1
 218 237 l 1,146,147
 223 230 223 230 214 224 c 1,148,-1
 214 224 l 1,134,135
EndSplineSet
Validated: 549
EndChar

StartChar: post-brief
Encoding: 9993 9993 23
Width: 512
GlyphClass: 2
Flags: W
LayerCount: 2
Fore
SplineSet
462 186 m 2,0,1
 462 182 462 182 460 180 c 128,-1,2
 458 178 458 178 456 178 c 2,3,-1
 453 177 l 1,4,-1
 60 177 l 2,5,6
 56 177 56 177 54 179.5 c 128,-1,7
 52 182 52 182 52 184 c 2,8,-1
 51 186 l 1,9,-1
 51 410 l 1,10,-1
 60 420 l 1,11,-1
 453 420 l 2,12,13
 457 420 457 420 459.5 417.5 c 128,-1,14
 462 415 462 415 462 412 c 2,15,-1
 462 410 l 1,16,-1
 462 186 l 2,0,1
480 186 m 2,17,-1
 480 410 l 2,18,19
 480 411 480 411 480 413 c 128,-1,20
 480 415 480 415 478.5 420 c 128,-1,21
 477 425 477 425 474 428.5 c 128,-1,22
 471 432 471 432 465.5 435 c 128,-1,23
 460 438 460 438 452 438 c 2,24,-1
 60 438 l 2,25,26
 59 438 59 438 57 438 c 128,-1,27
 55 438 55 438 50 436.5 c 128,-1,28
 45 435 45 435 41.5 432 c 128,-1,29
 38 429 38 429 35 423.5 c 128,-1,30
 32 418 32 418 32 410 c 2,31,-1
 32 186 l 2,32,33
 32 185 32 185 32 183 c 128,-1,34
 32 181 32 181 33.5 176 c 128,-1,35
 35 171 35 171 38 167.5 c 128,-1,36
 41 164 41 164 46.5 161 c 128,-1,37
 52 158 52 158 60 158 c 2,38,-1
 452 158 l 2,39,40
 453 158 453 158 455 158 c 128,-1,41
 457 158 457 158 462 159.5 c 128,-1,42
 467 161 467 161 470.5 164 c 128,-1,43
 474 167 474 167 477 172.5 c 128,-1,44
 480 178 480 178 480 186 c 2,17,-1
437 382 m 1,45,-1
 263 285 l 2,46,47
 262 285 262 285 260 284 c 0,48,49
 259 284 259 284 258 283 c 2,50,-1
 256 283 l 1,51,-1
 254 283 l 2,52,53
 253 284 253 284 252 284 c 0,54,55
 250 284 250 284 250 285 c 2,56,-1
 163 334 l 2,57,58
 76 382 76 382 75 382 c 0,59,60
 66 389 66 389 69 397 c 0,61,62
 74 405 74 405 85 400 c 0,63,64
 234 316 234 316 256 304 c 1,65,-1
 427 400 l 2,66,67
 438 405 438 405 443 397 c 0,68,69
 446 388 446 388 437 382 c 1,70,-1
 437 382 l 1,45,-1
EndSplineSet
Validated: 549
EndChar

StartChar: post-email
Encoding: 62695 62695 24
Width: 512
GlyphClass: 2
Flags: W
LayerCount: 2
Fore
SplineSet
480 228 m 2,0,-1
 480 452 l 2,1,2
 480 453 480 453 480 455 c 128,-1,3
 480 457 480 457 478.5 462 c 128,-1,4
 477 467 477 467 474 470.5 c 128,-1,5
 471 474 471 474 465.5 477 c 128,-1,6
 460 480 460 480 452 480 c 2,7,-1
 60 480 l 2,8,9
 59 480 59 480 57 480 c 128,-1,10
 55 480 55 480 50 478.5 c 128,-1,11
 45 477 45 477 41.5 474 c 128,-1,12
 38 471 38 471 35 465.5 c 128,-1,13
 32 460 32 460 32 452 c 2,14,-1
 32 228 l 2,15,16
 32 227 32 227 32 225 c 128,-1,17
 32 223 32 223 33.5 218 c 128,-1,18
 35 213 35 213 38 209.5 c 128,-1,19
 41 206 41 206 46.5 203 c 128,-1,20
 52 200 52 200 60 200 c 2,21,-1
 79 200 l 1,22,23
 84 214 84 214 87 219 c 1,24,-1
 60 219 l 2,25,26
 56 219 56 219 54 221.5 c 128,-1,27
 52 224 52 224 52 226 c 2,28,-1
 51 228 l 1,29,-1
 51 452 l 2,30,31
 51 456 51 456 53.5 458 c 128,-1,32
 56 460 56 460 58 460 c 2,33,-1
 60 461 l 1,34,-1
 453 461 l 2,35,36
 457 461 457 461 459.5 458.5 c 128,-1,37
 462 456 462 456 462 454 c 2,38,-1
 462 452 l 1,39,-1
 462 228 l 2,40,41
 462 224 462 224 460 222 c 128,-1,42
 458 220 458 220 456 220 c 2,43,-1
 453 219 l 1,44,-1
 336 219 l 1,45,46
 341 209 341 209 344 200 c 1,47,-1
 452 200 l 2,48,49
 453 200 453 200 455 200 c 128,-1,50
 457 200 457 200 462 201.5 c 128,-1,51
 467 203 467 203 470.5 206 c 128,-1,52
 474 209 474 209 477 214.5 c 128,-1,53
 480 220 480 220 480 228 c 2,0,-1
437 424 m 2,54,-1
 263 327 l 2,55,56
 262 326 262 326 260 326 c 2,57,-1
 259 326 l 1,58,-1
 258 325 l 1,59,-1
 256 325 l 1,60,-1
 254 325 l 1,61,-1
 253 326 l 1,62,-1
 252 326 l 2,63,64
 250 326 250 326 250 327 c 2,65,-1
 163 376 l 2,66,67
 76 424 76 424 75 424 c 0,68,69
 65 430 65 430 69 439 c 0,70,71
 74 447 74 447 85 442 c 0,72,73
 234 358 234 358 256 346 c 1,74,-1
 427 442 l 2,75,76
 438 447 438 447 443 439 c 0,77,78
 447 429 447 429 437 424 c 2,54,-1
180 147 m 2,79,-1
 180 146 l 2,80,81
 182 135 182 135 190 127 c 128,-1,82
 198 119 198 119 208 119 c 0,83,84
 230 119 230 119 237 146 c 2,85,-1
 243 181 l 1,86,87
 231 188 231 188 220 188 c 0,88,89
 203 188 203 188 191.5 176.5 c 128,-1,90
 180 165 180 165 180 147 c 2,79,-1
212 32 m 1,91,92
 162 32 162 32 126 67.5 c 128,-1,93
 90 103 90 103 90 153 c 128,-1,94
 90 203 90 203 126 238.5 c 128,-1,95
 162 274 162 274 212 274 c 0,96,97
 264 274 264 274 298.5 241 c 128,-1,98
 333 208 333 208 333 159 c 2,99,-1
 333 156 l 2,100,101
 333 133 333 133 318 116.5 c 128,-1,102
 303 100 303 100 283 100 c 0,103,104
 258 100 258 100 245 119 c 1,105,106
 231 100 231 100 208 100 c 0,107,108
 191 100 191 100 178 111.5 c 128,-1,109
 165 123 165 123 162 140 c 2,110,-1
 161 145 l 1,111,-1
 161 147 l 2,112,113
 161 172 161 172 177.5 189 c 128,-1,114
 194 206 194 206 220 206 c 0,115,116
 234 206 234 206 247 200 c 1,117,-1
 247 202 l 2,118,119
 247 203 247 203 247.5 203.5 c 128,-1,120
 248 204 248 204 251 205 c 128,-1,121
 254 206 254 206 258 206 c 128,-1,122
 262 206 262 206 264 204 c 128,-1,123
 266 202 266 202 266 200 c 2,124,-1
 266 198 l 1,125,-1
 265 193 l 2,126,127
 263 182 263 182 261.5 172.5 c 128,-1,128
 260 163 260 163 259 158 c 128,-1,129
 258 153 258 153 257 149.5 c 128,-1,130
 256 146 256 146 256 144 c 2,131,-1
 256 143 l 2,132,133
 256 136 256 136 262 128 c 0,134,135
 271 119 271 119 283 119 c 0,136,137
 294 119 294 119 302.5 129.5 c 128,-1,138
 311 140 311 140 313 152 c 2,139,-1
 313 153 l 2,140,141
 313 154 313 154 313.5 156 c 128,-1,142
 314 158 314 158 314 159 c 0,143,144
 314 200 314 200 285 227.5 c 128,-1,145
 256 255 256 255 212 255 c 0,146,147
 169 255 169 255 139.5 225 c 128,-1,148
 110 195 110 195 110 153 c 128,-1,149
 110 111 110 111 139.5 81 c 128,-1,150
 169 51 169 51 212 51 c 0,151,152
 248 51 248 51 277 75 c 1,153,-1
 285 77 l 1,154,155
 294 74 294 74 294 68 c 0,156,157
 294 65 294 65 290 61 c 0,158,159
 256 32 256 32 212 32 c 1,160,-1
 212 32 l 1,91,92
EndSplineSet
Validated: 549
EndChar

StartChar: post-adressen-kontakte
Encoding: 42 42 25
Width: 512
GlyphClass: 2
Flags: W
LayerCount: 2
Fore
SplineSet
200 424 m 128,-1,1
 200 433 200 433 189 433 c 1,2,-1
 189 433 l 1,3,-1
 99 433 l 1,4,-1
 99 433 l 1,5,6
 88 433 88 433 88 424 c 128,-1,7
 88 415 88 415 99 415 c 1,8,-1
 99 415 l 1,9,-1
 189 415 l 1,10,-1
 189 415 l 1,11,0
 200 415 200 415 200 424 c 128,-1,1
405 340 m 128,-1,13
 405 349 405 349 394 349 c 1,14,-1
 394 349 l 1,15,-1
 305 349 l 1,16,-1
 304 349 l 2,17,18
 293 349 293 349 293 340 c 128,-1,19
 293 331 293 331 304 331 c 2,20,-1
 305 331 l 1,21,-1
 394 331 l 1,22,-1
 394 331 l 1,23,12
 405 331 405 331 405 340 c 128,-1,13
405 303 m 0,24,25
 405 313 405 313 394 313 c 1,26,-1
 394 313 l 1,27,-1
 305 313 l 1,28,-1
 304 313 l 2,29,30
 293 313 293 313 293 303 c 0,31,32
 293 294 293 294 304 294 c 2,33,-1
 305 294 l 1,34,-1
 394 294 l 1,35,-1
 394 294 l 1,36,37
 405 294 405 294 405 303 c 0,24,25
405 265 m 0,38,39
 405 275 405 275 394 275 c 1,40,-1
 394 275 l 1,41,-1
 305 275 l 1,42,-1
 304 275 l 2,43,44
 293 275 293 275 293 265 c 0,45,46
 293 256 293 256 304 256 c 2,47,-1
 305 256 l 1,48,-1
 394 256 l 1,49,-1
 394 256 l 1,50,51
 405 256 405 256 405 265 c 0,38,39
294 69 m 1,52,-1
 312 69 l 1,53,-1
 312 32 l 1,54,-1
 331 32 l 1,55,-1
 331 88 l 1,56,-1
 312 88 l 1,57,-1
 312 106 l 1,58,-1
 368 106 l 1,59,-1
 368 88 l 1,60,-1
 350 88 l 1,61,-1
 350 32 l 1,62,-1
 368 32 l 1,63,-1
 368 69 l 1,64,-1
 387 69 l 1,65,-1
 387 125 l 1,66,-1
 294 125 l 1,67,-1
 294 69 l 1,52,-1
218 41 m 0,68,69
 218 32 218 32 228 32 c 2,70,-1
 285 32 l 2,71,72
 294 32 294 32 294 41 c 0,73,74
 294 51 294 51 285 51 c 2,75,-1
 284 51 l 1,76,-1
 228 51 l 2,77,78
 218 51 218 51 218 41 c 0,68,69
219 125 m 1,79,-1
 125 125 l 1,80,-1
 125 69 l 1,81,-1
 144 69 l 1,82,-1
 144 32 l 1,83,-1
 163 32 l 1,84,-1
 163 88 l 1,85,-1
 144 88 l 1,86,-1
 144 106 l 1,87,-1
 200 106 l 1,88,-1
 200 88 l 1,89,-1
 181 88 l 1,90,-1
 181 32 l 1,91,-1
 200 32 l 1,92,-1
 200 69 l 1,93,-1
 219 69 l 1,94,-1
 219 125 l 1,79,-1
480 32 m 1,95,-1
 480 424 l 1,96,-1
 293 424 l 1,97,-1
 293 480 l 1,98,-1
 32 480 l 1,99,-1
 32 32 l 1,100,-1
 116 32 l 2,101,102
 125 32 125 32 125 41 c 0,103,104
 125 49 125 49 116 51 c 2,105,-1
 51 51 l 1,106,-1
 51 461 l 1,107,-1
 275 461 l 1,108,-1
 275 405 l 1,109,-1
 461 405 l 1,110,-1
 461 51 l 1,111,-1
 396 51 l 2,112,113
 388 49 388 49 388 41 c 0,114,115
 388 32 388 32 396 32 c 2,116,-1
 480 32 l 1,95,-1
186 303 m 0,117,118
 186 298 186 298 181.5 293.5 c 128,-1,119
 177 289 177 289 172 289 c 0,120,121
 166 289 166 289 162 293.5 c 128,-1,122
 158 298 158 298 158 303 c 0,123,124
 158 317 158 317 172 317 c 0,125,126
 177 317 177 317 181.5 313 c 128,-1,127
 186 309 186 309 186 303 c 0,117,118
204 303 m 0,128,129
 204 317 204 317 194.5 326.5 c 128,-1,130
 185 336 185 336 172 336 c 0,131,132
 158 336 158 336 148.5 326 c 128,-1,133
 139 316 139 316 139 303 c 128,-1,134
 139 290 139 290 148.5 280.5 c 128,-1,135
 158 271 158 271 172 271 c 128,-1,136
 186 271 186 271 195 280.5 c 128,-1,137
 204 290 204 290 204 303 c 0,128,129
237 349 m 1,138,-1
 237 238 l 2,139,140
 236 238 236 238 236 239 c 128,-1,141
 236 240 236 240 235 241 c 0,142,143
 220 254 220 254 197 254 c 1,144,-1
 195 255 l 1,145,-1
 150 255 l 2,146,147
 122 254 122 254 109 241 c 0,148,149
 107 239 107 239 107 238 c 2,150,-1
 107 349 l 1,151,-1
 237 349 l 1,138,-1
115 219 m 1,152,153
 117 223 117 223 121 229 c 0,154,155
 129 236 129 236 145 237 c 2,156,-1
 200 237 l 2,157,158
 216 235 216 235 222 229 c 0,159,160
 227 224 227 224 228 219 c 1,161,-1
 115 219 l 1,152,153
256 368 m 1,162,-1
 88 368 l 1,163,-1
 88 200 l 1,164,-1
 256 200 l 1,165,-1
 256 368 l 1,162,-1
EndSplineSet
Validated: 517
EndChar

StartChar: at-zeichen
Encoding: 64 64 26
Width: 512
GlyphClass: 2
Flags: W
LayerCount: 2
Fore
SplineSet
327 315 m 1,0,-1
 314 241 l 2,1,2
 307 215 307 215 289 198.5 c 128,-1,3
 271 182 271 182 248 182 c 0,4,5
 224 182 224 182 206.5 199.5 c 128,-1,6
 189 217 189 217 187 242 c 1,7,-1
 186 242 l 1,8,-1
 186 244 l 2,9,10
 186 282 186 282 209.5 307 c 128,-1,11
 233 332 233 332 272 332 c 0,12,13
 304 332 304 332 327 315 c 1,0,-1
480 268 m 1,14,15
 480 359 480 359 415 419.5 c 128,-1,16
 350 480 350 480 256 480 c 0,17,18
 163 480 163 480 97.5 414.5 c 128,-1,19
 32 349 32 349 32 256 c 128,-1,20
 32 163 32 163 97.5 97.5 c 128,-1,21
 163 32 163 32 256 32 c 0,22,23
 339 32 339 32 401 86 c 0,24,25
 404 88 404 88 404 93 c 0,26,27
 404 102 404 102 395 102 c 0,28,29
 390 102 390 102 389 99 c 0,30,31
 331 51 331 51 256 51 c 0,32,33
 171 51 171 51 111 111 c 128,-1,34
 51 171 51 171 51 256 c 128,-1,35
 51 341 51 341 111 401 c 128,-1,36
 171 461 171 461 256 461 c 0,37,38
 342 461 342 461 401.5 406.5 c 128,-1,39
 461 352 461 352 461 268 c 2,40,-1
 461 254 l 2,41,42
 458 228 458 228 438 205 c 128,-1,43
 418 182 418 182 394 182 c 0,44,45
 368 182 368 182 349 199 c 128,-1,46
 330 216 330 216 332 237 c 2,47,-1
 349 336 l 1,48,-1
 349 336 l 1,49,50
 351 347 351 347 343 349 c 0,51,52
 333 351 333 351 331 339 c 1,53,-1
 331 339 l 1,54,-1
 330 333 l 1,55,56
 303 349 303 349 271 349 c 0,57,58
 225 349 225 349 197 319 c 128,-1,59
 169 289 169 289 169 244 c 2,60,-1
 169 241 l 2,61,62
 172 209 172 209 194.5 186.5 c 128,-1,63
 217 164 217 164 248 164 c 0,64,65
 271 164 271 164 290.5 176.5 c 128,-1,66
 310 189 310 189 320 210 c 1,67,68
 340 164 340 164 394 164 c 0,69,70
 428 164 428 164 454 193.5 c 128,-1,71
 480 223 480 223 480 262 c 2,72,-1
 480 268 l 1,73,-1
 480 268 l 1,14,15
EndSplineSet
Validated: 549
EndChar

StartChar: ansehen
Encoding: 62529 62529 27
Width: 512
GlyphClass: 2
Flags: W
LayerCount: 2
Fore
SplineSet
457 298 m 1,0,-1
 444 277 l 1,1,2
 361 177 361 177 257 177 c 0,3,4
 142 177 142 177 55 298 c 1,5,6
 141 418 141 418 257 418 c 0,7,8
 363 418 363 418 447 314 c 1,9,-1
 457 298 l 1,0,-1
257 158 m 0,10,11
 372 158 372 158 458 266 c 1,12,-1
 480 298 l 1,13,-1
 462 326 l 1,14,15
 373 437 373 437 257 437 c 0,16,17
 129 437 129 437 36 304 c 2,18,-1
 32 298 l 1,19,-1
 36 292 l 2,20,21
 128 158 128 158 257 158 c 0,10,11
359 299 m 0,22,23
 359 256 359 256 329 226 c 128,-1,24
 299 196 299 196 256 196 c 128,-1,25
 213 196 213 196 183 226 c 128,-1,26
 153 256 153 256 153 299 c 0,27,28
 153 335 153 335 177 364 c 1,29,30
 177 351 177 351 190 351 c 1,31,32
 172 326 172 326 172 299 c 0,33,34
 172 264 172 264 196.5 239.5 c 128,-1,35
 221 215 221 215 256 215 c 128,-1,36
 291 215 291 215 315.5 239.5 c 128,-1,37
 340 264 340 264 340 299 c 128,-1,38
 340 334 340 334 315 358.5 c 128,-1,39
 290 383 290 383 256 383 c 0,40,41
 247 383 247 383 231 379 c 0,42,43
 227 378 227 378 224 381 c 128,-1,44
 221 384 221 384 221 388 c 0,45,46
 221 394 221 394 227 397 c 2,47,-1
 226 397 l 1,48,49
 239 401 239 401 256 401 c 0,50,51
 299 401 299 401 329 371 c 128,-1,52
 359 341 359 341 359 299 c 0,22,23
271 281 m 1,53,54
 287 281 287 281 297.5 291.5 c 128,-1,55
 308 302 308 302 308 318 c 0,56,57
 308 333 308 333 297.5 344 c 128,-1,58
 287 355 287 355 271 355 c 128,-1,59
 255 355 255 355 244.5 344 c 128,-1,60
 234 333 234 333 234 318 c 0,61,62
 234 302 234 302 244.5 291.5 c 128,-1,63
 255 281 255 281 271 281 c 1,64,-1
 271 281 l 1,53,54
EndSplineSet
Validated: 5
EndChar

StartChar: pflege
Encoding: 112 112 28
Width: 512
GlyphClass: 2
Flags: W
LayerCount: 2
Fore
SplineSet
269 349 m 1,0,-1
 269 348 l 2,1,2
 266 351 266 351 263 351 c 0,3,4
 253 351 253 351 253 342 c 0,5,6
 253 338 253 338 256 335 c 2,7,-1
 363 228 l 1,8,-1
 284 149 l 1,9,-1
 153 280 l 1,10,-1
 245 372 l 1,11,12
 237 381 237 381 232 386 c 1,13,-1
 127 280 l 1,14,-1
 285 121 l 1,15,-1
 391 227 l 1,16,-1
 269 349 l 1,0,-1
181 395 m 0,17,18
 190 384 190 384 201 395 c 0,19,20
 210 404 210 404 201 414 c 0,21,22
 190 425 190 425 181 414 c 0,23,24
 170 404 170 404 181 395 c 0,17,18
95 309 m 0,25,26
 105 299 105 299 115 309 c 0,27,28
 124 318 124 318 115 329 c 0,29,30
 105 337 105 337 95 329 c 0,31,32
 86 318 86 318 95 309 c 0,25,26
138 352 m 0,33,34
 147 341 147 341 158 352 c 0,35,36
 167 361 167 361 158 372 c 0,37,38
 147 381 147 381 138 371 c 0,39,40
 127 362 127 362 138 352 c 0,33,34
122 416 m 128,-1,42
 122 410 122 410 126.5 406 c 128,-1,43
 131 402 131 402 136 402 c 0,44,45
 150 402 150 402 150 416 c 128,-1,46
 150 430 150 430 136 430 c 0,47,48
 131 430 131 430 126.5 426 c 128,-1,41
 122 422 122 422 122 416 c 128,-1,42
84 363 m 0,49,50
 94 354 94 354 103 363 c 0,51,52
 114 374 114 374 103 383 c 0,53,54
 93 393 93 393 84 383 c 0,55,56
 73 374 73 374 84 363 c 0,49,50
399 177 m 0,57,58
 388 186 388 186 399 197 c 0,59,60
 408 206 408 206 418 197 c 0,61,62
 429 186 429 186 418 177 c 0,63,64
 408 166 408 166 399 177 c 0,57,58
313 91 m 0,65,66
 303 101 303 101 313 111 c 0,67,68
 322 120 322 120 333 111 c 0,69,70
 341 101 341 101 333 91 c 0,71,72
 322 82 322 82 313 91 c 0,65,66
356 134 m 0,73,74
 345 143 345 143 356 154 c 0,75,76
 366 164 366 164 375 154 c 0,77,78
 386 143 386 143 375 134 c 0,79,80
 366 123 366 123 356 134 c 0,73,74
410 122 m 0,81,82
 401 133 401 133 410 142 c 0,83,84
 420 152 420 152 430 142 c 0,85,86
 439 133 439 133 430 122 c 0,87,88
 420 114 420 114 410 122 c 0,81,82
367 79 m 0,89,90
 358 90 358 90 367 99 c 0,91,92
 377 109 377 109 387 99 c 0,93,94
 396 90 396 90 387 80 c 0,95,96
 377 70 377 70 367 79 c 0,89,90
448 222 m 1,97,-1
 223 448 l 2,98,99
 190 480 190 480 143.5 480 c 128,-1,100
 97 480 97 480 65 447 c 0,101,102
 32 415 32 415 32 369 c 128,-1,103
 32 323 32 323 64 290 c 2,104,-1
 75 279 l 2,105,106
 77 277 77 277 81 277 c 0,107,108
 91 277 91 277 91 286 c 0,109,110
 91 289 91 289 87 293 c 2,111,-1
 78 303 l 2,112,113
 51 330 51 330 51 368.5 c 128,-1,114
 51 407 51 407 78 434 c 128,-1,115
 105 461 105 461 144 460.5 c 128,-1,116
 183 460 183 460 210 434 c 2,117,-1
 434 210 l 2,118,119
 461 182 461 182 461 143.5 c 128,-1,120
 461 105 461 105 434 78 c 128,-1,121
 407 51 407 51 368.5 51 c 128,-1,122
 330 51 330 51 302 78 c 2,123,-1
 120 260 l 2,124,125
 117 263 117 263 113 263 c 0,126,127
 104 263 104 263 104 253 c 0,128,129
 104 249 104 249 107 246 c 2,130,-1
 290 64 l 2,131,132
 323 32 323 32 369 32 c 128,-1,133
 415 32 415 32 447 65 c 0,134,135
 480 97 480 97 480 143 c 128,-1,136
 480 189 480 189 448 222 c 1,137,-1
 448 222 l 1,97,-1
EndSplineSet
Validated: 37
EndChar

StartChar: leerzeichen
Encoding: 32 32 29
Width: 512
GlyphClass: 2
Flags: W
LayerCount: 2
Fore
SplineSet
0 512 m 1,0,-1
 3 512 l 1,1,-1
 3 509 l 1,2,-1
 0 509 l 1,3,-1
 0 512 l 1,0,-1
509 512 m 1,4,-1
 512 512 l 1,5,-1
 512 509 l 1,6,-1
 509 509 l 1,7,-1
 509 512 l 1,4,-1
509 3 m 1,8,-1
 512 3 l 1,9,-1
 512 0 l 1,10,-1
 509 0 l 1,11,-1
 509 3 l 1,8,-1
0 3 m 1,12,-1
 3 3 l 1,13,-1
 3 0 l 1,14,-1
 0 0 l 1,15,-1
 0 3 l 1,12,-1
EndSplineSet
Validated: 1
EndChar

StartChar: med-produkt
Encoding: 80 80 30
Width: 512
GlyphClass: 2
Flags: W
LayerCount: 2
Fore
SplineSet
362 175 m 0,0,1
 362 183 362 183 357 188.5 c 128,-1,2
 352 194 352 194 344 194 c 0,3,4
 325 194 325 194 325 175 c 0,5,6
 325 167 325 167 330.5 162 c 128,-1,7
 336 157 336 157 344 157 c 128,-1,8
 352 157 352 157 357 162.5 c 128,-1,9
 362 168 362 168 362 175 c 0,0,1
381 175 m 0,10,11
 381 160 381 160 370 149 c 128,-1,12
 359 138 359 138 344 138 c 0,13,14
 328 138 328 138 317 149 c 128,-1,15
 306 160 306 160 306 175 c 0,16,17
 306 191 306 191 317 202 c 128,-1,18
 328 213 328 213 344 213 c 0,19,20
 359 213 359 213 370 202 c 128,-1,21
 381 191 381 191 381 175 c 0,10,11
480 172 m 1,22,23
 480 225 480 225 456.5 254.5 c 128,-1,24
 433 284 433 284 390 284 c 1,25,-1
 390 284 l 1,26,27
 368 284 368 284 352 268.5 c 128,-1,28
 336 253 336 253 334 230 c 1,29,30
 314 227 314 227 301 211.5 c 128,-1,31
 288 196 288 196 288 175 c 0,32,33
 288 152 288 152 304.5 135.5 c 128,-1,34
 321 119 321 119 344 119 c 128,-1,35
 367 119 367 119 383.5 135.5 c 128,-1,36
 400 152 400 152 400 175 c 0,37,38
 400 196 400 196 386.5 211.5 c 128,-1,39
 373 227 373 227 353 230 c 1,40,41
 355 245 355 245 365 255 c 128,-1,42
 375 265 375 265 390 265 c 1,43,-1
 390 265 l 1,44,45
 464 265 464 265 461 172 c 0,46,47
 458 121 458 121 420.5 86 c 128,-1,48
 383 51 383 51 331 51 c 128,-1,49
 279 51 279 51 242 86 c 128,-1,50
 205 121 205 121 201 172 c 1,51,-1
 201 229 l 1,52,53
 236 232 236 232 284 289 c 128,-1,54
 332 346 332 346 346 387 c 0,55,56
 358 422 358 422 343 447 c 0,57,58
 325 474 325 474 284 480 c 1,59,-1
 283 480 l 1,60,-1
 283 480 l 1,61,62
 280 480 280 480 278 479 c 0,63,64
 277 479 277 479 277 478 c 2,65,-1
 276 478 l 1,66,67
 269 473 269 473 269 466 c 0,68,69
 269 460 269 460 273.5 456 c 128,-1,70
 278 452 278 452 283 452 c 0,71,72
 289 452 289 452 295 458 c 1,73,74
 318 451 318 451 327 437 c 0,75,76
 338 420 338 420 329 393 c 0,77,78
 315 354 315 354 269.5 301 c 128,-1,79
 224 248 224 248 194 247 c 2,80,-1
 192 247 l 1,81,-1
 190 247 l 2,82,83
 159 248 159 248 113.5 301.5 c 128,-1,84
 68 355 68 355 55 393 c 0,85,86
 46 421 46 421 56 437 c 0,87,88
 66 452 66 452 89 458 c 1,89,90
 93 452 93 452 100 452 c 0,91,92
 114 452 114 452 114 466 c 0,93,94
 114 474 114 474 108 478 c 1,95,-1
 106 478 l 2,96,97
 106 479 106 479 105 479 c 0,98,99
 104 480 104 480 101 480 c 2,100,-1
 100 480 l 1,101,-1
 99 480 l 1,102,103
 58 473 58 473 41 447 c 0,104,105
 24 423 24 423 37 387 c 0,106,107
 52 345 52 345 99.5 288.5 c 128,-1,108
 147 232 147 232 182 229 c 1,109,-1
 182 171 l 1,110,-1
 183 171 l 1,111,112
 187 113 187 113 229.5 72.5 c 128,-1,113
 272 32 272 32 331 32 c 128,-1,114
 390 32 390 32 432.5 72 c 128,-1,115
 475 112 475 112 480 171 c 1,116,-1
 480 172 l 1,117,-1
 480 172 l 1,118,-1
 480 172 l 1,22,23
EndSplineSet
Validated: 549
EndChar

StartChar: kreis-voll
Encoding: 61955 61955 31
Width: 512
GlyphClass: 2
Flags: W
LayerCount: 2
Fore
SplineSet
401 401 m 128,-1,1
 461 341 461 341 461 256 c 128,-1,2
 461 171 461 171 401 111 c 128,-1,3
 341 51 341 51 256 51 c 128,-1,4
 171 51 171 51 111 111 c 128,-1,5
 51 171 51 171 51 256 c 128,-1,6
 51 341 51 341 111 401 c 128,-1,7
 171 461 171 461 256 461 c 128,-1,0
 341 461 341 461 401 401 c 128,-1,1
414 414 m 0,8,9
 349 480 349 480 256 480 c 128,-1,10
 163 480 163 480 98 414 c 0,11,12
 32 349 32 349 32 256 c 128,-1,13
 32 163 32 163 98 98 c 0,14,15
 163 32 163 32 256 32 c 128,-1,16
 349 32 349 32 414 98 c 0,17,18
 480 163 480 163 480 256 c 128,-1,19
 480 349 480 349 414 414 c 0,8,9
304 84 m 0,20,21
 300 80 300 80 300 74 c 1,22,23
 311 77 311 77 325 82 c 1,24,25
 324 83 324 83 324 84 c 0,26,27
 313 93 313 93 304 84 c 0,20,21
436 302 m 1,28,29
 435 308 435 308 428 328 c 1,30,-1
 427 327 l 2,31,32
 426 326 426 326 425 326 c 0,33,34
 415 316 415 316 425 306 c 0,35,36
 429 302 429 302 436 302 c 1,28,29
309 402 m 0,37,38
 298 411 298 411 289 402 c 0,39,40
 278 391 278 391 289 382 c 0,41,42
 298 371 298 371 309 382 c 0,43,44
 318 391 318 391 309 402 c 0,37,38
278 432 m 0,45,46
 269 441 269 441 258 432 c 0,47,48
 249 421 249 421 258 412 c 0,49,50
 269 401 269 401 278 412 c 0,51,52
 289 421 289 421 278 432 c 0,45,46
339 371 m 0,53,54
 328 382 328 382 319 371 c 0,55,56
 310 362 310 362 319 351 c 0,57,58
 328 342 328 342 339 351 c 0,59,60
 348 362 348 362 339 371 c 0,53,54
369 341 m 128,-1,62
 360 350 360 350 349 341 c 0,63,64
 340 332 340 332 349 321 c 0,65,66
 360 312 360 312 369 321 c 0,67,61
 378 332 378 332 369 341 c 128,-1,62
399 311 m 0,68,69
 390 320 390 320 379 311 c 0,70,71
 370 300 370 300 379 291 c 0,72,73
 390 282 390 282 399 291 c 0,74,75
 410 300 410 300 399 311 c 0,68,69
430 281 m 0,76,77
 419 290 419 290 410 281 c 0,78,79
 399 270 399 270 410 261 c 0,80,81
 419 250 419 250 430 261 c 0,82,83
 439 270 439 270 430 281 c 0,76,77
440 230 m 1,84,85
 442 244 442 244 442 252 c 1,86,-1
 440 250 l 2,87,88
 429 241 429 241 440 230 c 1,84,85
263 386 m 0,89,90
 254 397 254 397 243 386 c 0,91,92
 234 376 234 376 243 367 c 0,93,94
 254 356 254 356 263 367 c 0,95,96
 274 376 274 376 263 386 c 0,89,90
233 417 m 0,97,98
 223 425 223 425 213 417 c 0,99,100
 204 406 204 406 213 397 c 0,101,102
 223 387 223 387 233 397 c 0,103,104
 242 406 242 406 233 417 c 0,97,98
293 356 m 0,105,106
 284 367 284 367 274 356 c 0,107,108
 263 347 263 347 274 336 c 0,109,110
 284 326 284 326 293 336 c 0,111,112
 304 347 304 347 293 356 c 0,105,106
324 326 m 0,113,114
 313 335 313 335 304 326 c 0,115,116
 294 316 294 316 304 306 c 0,117,118
 313 297 313 297 324 306 c 0,119,120
 332 316 332 316 324 326 c 0,113,114
354 296 m 0,121,122
 344 304 344 304 334 296 c 0,123,124
 325 285 325 285 334 276 c 0,125,126
 344 266 344 266 354 276 c 0,127,128
 363 285 363 285 354 296 c 0,121,122
384 265 m 0,129,130
 375 276 375 276 364 265 c 0,131,132
 354 256 354 256 364 246 c 0,133,134
 375 235 375 235 384 246 c 0,135,136
 395 256 395 256 384 265 c 0,129,130
414 235 m 0,137,138
 404 246 404 246 395 235 c 0,139,140
 384 226 384 226 395 215 c 0,141,142
 404 206 404 206 414 215 c 0,143,144
 425 226 425 226 414 235 c 0,137,138
425 185 m 0,145,146
 426 184 426 184 426 184 c 2,147,148
 428 184 428 184 428 183 c 1,149,150
 435 203 435 203 436 209 c 1,151,152
 429 209 429 209 425 205 c 0,153,154
 415 195 415 195 425 185 c 0,145,146
218 371 m 0,155,156
 207 382 207 382 198 371 c 0,157,158
 189 362 189 362 198 351 c 0,159,160
 207 342 207 342 218 351 c 0,161,162
 227 362 227 362 218 371 c 0,155,156
188 401 m 0,163,164
 177 412 177 412 168 401 c 0,165,166
 157 392 157 392 168 382 c 0,167,168
 177 371 177 371 188 382 c 0,169,170
 198 392 198 392 188 401 c 0,163,164
248 341 m 0,171,172
 239 350 239 350 228 341 c 0,173,174
 219 332 219 332 228 321 c 0,175,176
 239 312 239 312 248 321 c 0,177,178
 259 332 259 332 248 341 c 0,171,172
278 311 m 0,179,180
 269 320 269 320 258 311 c 0,181,182
 249 300 249 300 258 291 c 0,183,184
 269 282 269 282 278 291 c 0,185,186
 289 300 289 300 278 311 c 0,179,180
309 281 m 0,187,188
 298 290 298 290 289 281 c 0,189,190
 278 270 278 270 289 261 c 0,191,192
 298 250 298 250 309 261 c 0,193,194
 318 270 318 270 309 281 c 0,187,188
339 250 m 0,195,196
 328 261 328 261 319 250 c 0,197,198
 310 241 310 241 319 230 c 0,199,200
 328 221 328 221 339 230 c 0,201,202
 348 241 348 241 339 250 c 0,195,196
369 220 m 0,203,204
 360 231 360 231 349 220 c 0,205,206
 340 211 340 211 349 200 c 0,207,208
 360 191 360 191 369 200 c 0,209,210
 378 211 378 211 369 220 c 0,203,204
399 190 m 0,211,212
 390 199 390 199 379 190 c 0,213,214
 370 179 370 179 379 170 c 0,215,216
 390 161 390 161 399 170 c 0,217,218
 410 179 410 179 399 190 c 0,211,212
406 146 m 1,219,220
 408 149 408 149 412 154.5 c 128,-1,221
 416 160 416 160 418 163 c 1,222,223
 413 163 413 163 410 160 c 0,224,225
 404 154 404 154 406 146 c 1,219,220
203 326 m 0,226,227
 192 335 192 335 183 326 c 0,228,229
 173 316 173 316 183 306 c 0,230,231
 192 297 192 297 203 306 c 0,232,233
 211 316 211 316 203 326 c 0,226,227
172 356 m 0,234,235
 162 367 162 367 153 356 c 0,236,237
 142 347 142 347 153 336 c 0,238,239
 162 326 162 326 172 336 c 0,240,241
 183 347 183 347 172 356 c 0,234,235
233 296 m 0,242,243
 223 304 223 304 213 296 c 0,244,245
 204 285 204 285 213 276 c 0,246,247
 223 266 223 266 233 276 c 0,248,249
 242 285 242 285 233 296 c 0,242,243
263 265 m 0,250,251
 254 276 254 276 243 265 c 0,252,253
 234 256 234 256 243 246 c 0,254,255
 254 235 254 235 263 246 c 0,256,257
 274 256 274 256 263 265 c 0,250,251
293 235 m 0,258,259
 284 246 284 246 274 235 c 0,260,261
 263 226 263 226 274 215 c 0,262,263
 284 206 284 206 293 215 c 0,264,265
 304 226 304 226 293 235 c 0,258,259
324 205 m 0,266,267
 313 214 313 214 304 205 c 0,268,269
 294 195 294 195 304 185 c 0,270,271
 313 176 313 176 324 185 c 0,272,273
 332 195 332 195 324 205 c 0,266,267
354 175 m 0,274,275
 344 183 344 183 334 175 c 0,276,277
 325 164 325 164 334 155 c 0,278,279
 344 145 344 145 354 155 c 0,280,281
 363 164 363 164 354 175 c 0,274,275
384 144 m 0,282,283
 375 155 375 155 364 144 c 0,284,285
 354 134 354 134 364 125 c 0,286,287
 375 114 375 114 384 125 c 0,288,289
 395 134 395 134 384 144 c 0,282,283
157 311 m 0,290,291
 148 320 148 320 138 311 c 0,292,293
 127 300 127 300 138 291 c 0,294,295
 147 281 147 281 157 291 c 0,296,297
 168 300 168 300 157 311 c 0,290,291
127 341 m 0,298,299
 118 350 118 350 107 341 c 0,300,301
 98 332 98 332 107 321 c 0,302,303
 118 312 118 312 127 321 c 0,304,305
 138 332 138 332 127 341 c 0,298,299
188 281 m 0,306,307
 177 290 177 290 168 281 c 0,308,309
 157 270 157 270 168 261 c 0,310,311
 177 250 177 250 188 261 c 0,312,313
 197 270 197 270 188 281 c 0,306,307
218 250 m 0,314,315
 207 261 207 261 198 250 c 0,316,317
 189 241 189 241 198 230 c 0,318,319
 207 221 207 221 218 230 c 0,320,321
 227 241 227 241 218 250 c 0,314,315
248 220 m 0,322,323
 239 231 239 231 228 220 c 0,324,325
 219 211 219 211 228 200 c 0,326,327
 239 191 239 191 248 200 c 0,328,329
 259 211 259 211 248 220 c 0,322,323
278 190 m 0,330,331
 269 199 269 199 258 190 c 0,332,333
 249 179 249 179 258 170 c 0,334,335
 269 161 269 161 278 170 c 0,336,337
 289 179 289 179 278 190 c 0,330,331
309 160 m 0,338,339
 298 169 298 169 289 160 c 0,340,341
 278 149 278 149 289 140 c 0,342,343
 298 129 298 129 309 140 c 0,344,345
 318 149 318 149 309 160 c 0,338,339
339 129 m 0,346,347
 328 140 328 140 319 129 c 0,348,349
 310 120 310 120 319 110 c 0,350,351
 328 99 328 99 339 110 c 0,352,353
 348 120 348 120 339 129 c 0,346,347
349 99 m 0,354,355
 346 96 346 96 346 92 c 1,356,357
 355 97 355 97 362 103 c 1,358,359
 355 105 355 105 349 99 c 0,354,355
142 265 m 0,360,361
 133 276 133 276 122 265 c 0,362,363
 112 256 112 256 122 246 c 0,364,365
 133 235 133 235 142 246 c 0,366,367
 153 256 153 256 142 265 c 0,360,361
112 296 m 0,368,369
 102 304 102 304 92 296 c 0,370,371
 83 285 83 285 92 276 c 0,372,373
 102 266 102 266 112 276 c 0,374,375
 121 285 121 285 112 296 c 0,368,369
172 235 m 0,376,377
 162 246 162 246 153 235 c 0,378,379
 142 226 142 226 153 215 c 0,380,381
 162 206 162 206 172 215 c 0,382,383
 183 226 183 226 172 235 c 0,376,377
203 205 m 0,384,385
 192 214 192 214 183 205 c 0,386,387
 173 195 173 195 183 185 c 0,388,389
 192 176 192 176 203 185 c 0,390,391
 211 195 211 195 203 205 c 0,384,385
233 175 m 0,392,393
 223 183 223 183 213 175 c 0,394,395
 204 164 204 164 213 155 c 0,396,397
 223 145 223 145 233 155 c 0,398,399
 242 164 242 164 233 175 c 0,392,393
263 144 m 0,400,401
 254 155 254 155 243 144 c 0,402,403
 234 134 234 134 243 125 c 0,404,405
 254 114 254 114 263 125 c 0,406,407
 274 134 274 134 263 144 c 0,400,401
293 114 m 0,408,409
 284 125 284 125 274 114 c 0,410,411
 263 105 263 105 274 94 c 0,412,413
 284 84 284 84 293 94 c 0,414,415
 304 105 304 105 293 114 c 0,408,409
127 220 m 0,416,417
 118 231 118 231 107 220 c 0,418,419
 98 211 98 211 107 200 c 0,420,421
 118 191 118 191 127 200 c 0,422,423
 138 211 138 211 127 220 c 0,416,417
97 250 m 0,424,425
 86 261 86 261 77 250 c 0,426,427
 68 241 68 241 77 230 c 0,428,429
 86 221 86 221 97 230 c 0,430,431
 106 241 106 241 97 250 c 0,424,425
157 190 m 0,432,433
 148 200 148 200 138 190 c 0,434,435
 127 179 127 179 138 170 c 0,436,437
 148 160 148 160 157 170 c 0,438,439
 168 179 168 179 157 190 c 0,432,433
188 160 m 0,440,441
 177 169 177 169 168 160 c 0,442,443
 157 149 157 149 168 140 c 0,444,445
 177 129 177 129 188 140 c 0,446,447
 197 149 197 149 188 160 c 0,440,441
218 129 m 0,448,449
 207 140 207 140 198 129 c 0,450,451
 188 120 188 120 198 110 c 0,452,453
 207 99 207 99 218 110 c 0,454,455
 228 120 228 120 218 129 c 0,448,449
248 99 m 0,456,457
 239 110 239 110 228 99 c 0,458,459
 219 90 219 90 228 79 c 0,460,461
 239 70 239 70 248 79 c 0,462,463
 259 90 259 90 248 99 c 0,456,457
259 69 m 1,464,465
 270 69 270 69 276 70 c 1,466,467
 267 77 267 77 259 69 c 1,464,465
183 84 m 1,468,469
 190 80 190 80 206 76 c 1,470,471
 206 81 206 81 203 84 c 0,472,473
 192 93 192 93 183 84 c 1,468,469
149 102 m 0,474,475
 152 100 152 100 158 96.5 c 128,-1,476
 164 93 164 93 167 91 c 0,477,478
 171 93 171 93 172 94 c 0,479,480
 183 105 183 105 172 114 c 0,481,482
 162 125 162 125 153 114 c 0,483,484
 147 110 147 110 149 102 c 0,474,475
123 124 m 2,485,486
 133 114 133 114 142 125 c 0,487,488
 153 134 153 134 142 144 c 0,489,490
 133 155 133 155 122 144 c 0,491,492
 113 135 113 135 122 125 c 2,493,-1
 123 124 l 2,485,486
89 170 m 0,494,495
 91 167 91 167 95 160.5 c 128,-1,496
 99 154 99 154 101 151 c 0,497,498
 108 151 108 151 112 155 c 0,499,500
 121 164 121 164 112 175 c 0,501,502
 102 183 102 183 92 175 c 0,503,504
 92 174 92 174 91 172.5 c 128,-1,505
 90 171 90 171 89 170 c 0,494,495
82 205 m 0,506,507
 79 208 79 208 75 208 c 1,508,509
 80 191 80 191 82 186 c 1,510,511
 92 196 92 196 82 205 c 0,506,507
82 325 m 1,512,513
 80 320 80 320 75 303 c 1,514,515
 79 303 79 303 82 306 c 0,516,517
 92 316 92 316 82 325 c 1,512,513
123 387 m 2,518,-1
 122 386 l 2,519,520
 113 376 113 376 122 367 c 0,521,522
 133 356 133 356 142 367 c 0,523,524
 153 376 153 376 142 386 c 0,525,526
 133 397 133 397 123 387 c 2,518,-1
206 435 m 1,527,528
 190 431 190 431 183 427 c 1,529,530
 192 418 192 418 203 427 c 0,531,532
 206 430 206 430 206 435 c 1,527,528
247 442 m 1,533,534
 241 442 241 442 231 440 c 1,535,536
 240 435 240 435 247 442 c 1,533,534
325 429 m 1,537,538
 311 434 311 434 300 437 c 1,539,540
 300 431 300 431 304 427 c 0,541,542
 313 418 313 418 324 427 c 0,543,544
 324 428 324 428 325 429 c 1,537,538
357 412 m 1,545,546
 345 419 345 419 343 420 c 0,547,548
 338 420 338 420 334 417 c 0,549,550
 325 406 325 406 334 397 c 0,551,552
 344 387 344 387 354 397 c 0,553,554
 360 403 360 403 357 412 c 1,545,546
384 386 m 0,555,556
 375 397 375 397 364 386 c 0,557,558
 354 376 354 376 364 367 c 0,559,560
 375 356 375 356 384 367 c 0,561,562
 395 376 395 376 384 386 c 0,555,556
418 346 m 1,563,-1
 412 358 l 1,564,565
 401 364 401 364 395 356 c 0,566,567
 384 347 384 347 395 336 c 0,568,569
 404 326 404 326 414 336 c 0,570,571
 420 341 420 341 418 346 c 1,572,-1
 418 346 l 1,563,-1
EndSplineSet
Validated: 549
EndChar

StartChar: stoerung
Encoding: 9898 9898 32
Width: 512
GlyphClass: 2
Flags: W
LayerCount: 2
Fore
SplineSet
129 103 m 1,0,-1
 255 229 l 1,1,-1
 161 306 l 1,2,-1
 377 410 l 1,3,-1
 407 428 l 1,4,-1
 383 409 l 1,5,-1
 258 284 l 1,6,-1
 354 204 l 1,7,-1
 132 100 l 1,8,-1
 133 100 l 1,9,-1
 101 80 l 1,10,-1
 129 103 l 1,0,-1
127 311 m 1,11,-1
 227 228 l 1,12,-1
 32 32 l 1,13,-1
 389 200 l 1,14,-1
 286 286 l 1,15,-1
 480 480 l 1,16,-1
 127 311 l 1,11,-1
EndSplineSet
Validated: 9
EndChar

StartChar: muenzen
Encoding: 62112 62112 33
Width: 512
GlyphClass: 2
Flags: W
LayerCount: 2
Fore
SplineSet
237 368 m 128,-1,1
 237 329 237 329 210 302 c 128,-1,2
 183 275 183 275 144 275 c 128,-1,3
 105 275 105 275 78 302 c 128,-1,4
 51 329 51 329 51 368 c 128,-1,5
 51 407 51 407 78 434 c 128,-1,6
 105 461 105 461 144 461 c 128,-1,7
 183 461 183 461 210 434 c 128,-1,0
 237 407 237 407 237 368 c 128,-1,1
256 368 m 128,-1,9
 256 414 256 414 223 447 c 128,-1,10
 190 480 190 480 144 480 c 128,-1,11
 98 480 98 480 65 447 c 128,-1,12
 32 414 32 414 32 368 c 128,-1,13
 32 322 32 322 65 289 c 128,-1,14
 98 256 98 256 144 256 c 128,-1,15
 190 256 190 256 223 289 c 128,-1,8
 256 322 256 322 256 368 c 128,-1,9
186 395 m 0,16,17
 186 375 186 375 162 354 c 2,18,-1
 139 334 l 1,19,-1
 139 333 l 1,20,-1
 185 333 l 1,21,-1
 185 313 l 1,22,-1
 111 313 l 1,23,-1
 111 332 l 1,24,-1
 143 363 l 2,25,26
 154 374 154 374 156 379 c 0,27,28
 160 384 160 384 160 392 c 0,29,30
 160 407 160 407 144 407 c 128,-1,31
 128 407 128 407 116 396 c 1,32,-1
 116 418 l 1,33,34
 131 427 131 427 149 427 c 0,35,36
 166 427 166 427 176 418 c 0,37,38
 186 410 186 410 186 395 c 0,16,17
219 368 m 128,-1,40
 219 399 219 399 197 421 c 128,-1,41
 175 443 175 443 144 443 c 128,-1,42
 113 443 113 443 91 421 c 128,-1,43
 69 399 69 399 69 368 c 128,-1,44
 69 337 69 337 91 315 c 128,-1,45
 113 293 113 293 144 293 c 128,-1,46
 175 293 175 293 197 315 c 128,-1,39
 219 337 219 337 219 368 c 128,-1,40
301 85 m 1,47,-1
 251 85 l 1,48,-1
 251 99 l 1,49,-1
 268 99 l 1,50,-1
 268 148 l 1,51,-1
 251 145 l 1,52,-1
 251 159 l 1,53,-1
 285 166 l 1,54,-1
 285 99 l 1,55,-1
 301 99 l 1,56,-1
 301 85 l 1,47,-1
331 125 m 128,-1,58
 331 148 331 148 314.5 164.5 c 128,-1,59
 298 181 298 181 275 181 c 128,-1,60
 252 181 252 181 235.5 164.5 c 128,-1,61
 219 148 219 148 219 125 c 128,-1,62
 219 102 219 102 235.5 85.5 c 128,-1,63
 252 69 252 69 275 69 c 128,-1,64
 298 69 298 69 314.5 85.5 c 128,-1,57
 331 102 331 102 331 125 c 128,-1,58
349 125 m 128,-1,66
 349 94 349 94 327.5 72.5 c 128,-1,67
 306 51 306 51 275 51 c 128,-1,68
 244 51 244 51 222 72.5 c 128,-1,69
 200 94 200 94 200 125 c 128,-1,70
 200 156 200 156 222 178 c 128,-1,71
 244 200 244 200 275 200 c 128,-1,72
 306 200 306 200 327.5 178 c 128,-1,65
 349 156 349 156 349 125 c 128,-1,66
368 125 m 0,73,74
 368 164 368 164 340.5 191.5 c 128,-1,75
 313 219 313 219 275 219 c 0,76,77
 236 219 236 219 208.5 191.5 c 128,-1,78
 181 164 181 164 181 125 c 0,79,80
 181 87 181 87 208.5 59.5 c 128,-1,81
 236 32 236 32 275 32 c 0,82,83
 313 32 313 32 340.5 59.5 c 128,-1,84
 368 87 368 87 368 125 c 0,73,74
461 312 m 128,-1,86
 461 289 461 289 444.5 272.5 c 128,-1,87
 428 256 428 256 405 256 c 128,-1,88
 382 256 382 256 365.5 272.5 c 128,-1,89
 349 289 349 289 349 312 c 128,-1,90
 349 335 349 335 365.5 351.5 c 128,-1,91
 382 368 382 368 405 368 c 128,-1,92
 428 368 428 368 444.5 351.5 c 128,-1,85
 461 335 461 335 461 312 c 128,-1,86
480 312 m 1,93,94
 480 343 480 343 458 365 c 128,-1,95
 436 387 436 387 405 387 c 128,-1,96
 374 387 374 387 352.5 365 c 128,-1,97
 331 343 331 343 331 312 c 128,-1,98
 331 281 331 281 352.5 259 c 128,-1,99
 374 237 374 237 405 237 c 128,-1,100
 436 237 436 237 458 259 c 128,-1,101
 480 281 480 281 480 312 c 1,102,-1
 480 312 l 1,93,94
EndSplineSet
Validated: 5
EndChar

StartChar: kreispfeil-li-o
Encoding: 61979 61979 34
Width: 512
GlyphClass: 2
Flags: W
LayerCount: 2
Fore
SplineSet
265 181 m 1,0,-1
 99 169 l 1,1,-1
 179 32 l 1,2,-1
 190 51 l 1,3,-1
 143 132 l 1,4,5
 195 102 195 102 255.5 102 c 128,-1,6
 316 102 316 102 368 132 c 0,7,8
 448 179 448 179 472 268.5 c 128,-1,9
 496 358 496 358 450 438 c 1,10,-1
 449 439 l 1,11,-1
 432 429 l 2,12,13
 432 428 432 428 433 428 c 0,14,15
 475 355 475 355 453 273 c 128,-1,16
 431 191 431 191 358 149 c 0,17,18
 309 122 309 122 252.5 123 c 128,-1,19
 196 124 196 124 148 152 c 1,20,-1
 253 160 l 1,21,-1
 265 181 l 1,0,-1
EndSplineSet
Validated: 553
EndChar

StartChar: kreispfeil-li-u
Encoding: 61978 61978 35
Width: 512
GlyphClass: 2
Flags: W
LayerCount: 2
Fore
SplineSet
265 331 m 1,0,-1
 99 342 l 1,1,-1
 179 480 l 1,2,-1
 190 461 l 1,3,-1
 143 379 l 1,4,5
 195 409 195 409 255 409.5 c 128,-1,6
 315 410 315 410 368 380 c 0,7,8
 448 333 448 333 472 243.5 c 128,-1,9
 496 154 496 154 450 74 c 1,10,-1
 450 73 l 1,11,-1
 449 72 l 1,12,-1
 432 82 l 2,13,14
 432 83 432 83 433 84 c 0,15,16
 475 157 475 157 453 238.5 c 128,-1,17
 431 320 431 320 358 362 c 0,18,19
 310 390 310 390 253 389 c 128,-1,20
 196 388 196 388 148 360 c 1,21,-1
 253 352 l 1,22,-1
 265 331 l 1,0,-1
EndSplineSet
Validated: 545
EndChar

StartChar: kreispfeil-re-o
Encoding: 61980 61980 36
Width: 512
GlyphClass: 2
Flags: W
LayerCount: 2
Fore
SplineSet
247 181 m 1,0,-1
 413 169 l 1,1,-1
 333 32 l 1,2,-1
 322 51 l 1,3,-1
 369 132 l 1,4,5
 317 102 317 102 256.5 102 c 128,-1,6
 196 102 196 102 144 132 c 0,7,8
 64 179 64 179 40 268.5 c 128,-1,9
 16 358 16 358 62 438 c 1,10,-1
 63 439 l 1,11,-1
 80 429 l 2,12,13
 80 428 80 428 79 428 c 0,14,15
 37 355 37 355 59 273 c 128,-1,16
 81 191 81 191 154 149 c 0,17,18
 203 122 203 122 259.5 123 c 128,-1,19
 316 124 316 124 364 152 c 1,20,-1
 259 160 l 1,21,-1
 247 181 l 1,0,-1
EndSplineSet
Validated: 545
EndChar

StartChar: kreispfeil-re-u
Encoding: 61977 61977 37
Width: 512
GlyphClass: 2
Flags: W
LayerCount: 2
Fore
SplineSet
247 331 m 1,0,-1
 413 342 l 1,1,-1
 333 480 l 1,2,-1
 322 461 l 1,3,-1
 369 379 l 1,4,5
 317 409 317 409 257 409.5 c 128,-1,6
 197 410 197 410 144 380 c 0,7,8
 64 333 64 333 40 243.5 c 128,-1,9
 16 154 16 154 62 74 c 1,10,-1
 62 73 l 1,11,-1
 63 72 l 1,12,-1
 80 82 l 2,13,14
 80 83 80 83 79 84 c 0,15,16
 37 157 37 157 59 238.5 c 128,-1,17
 81 320 81 320 154 362 c 0,18,19
 202 390 202 390 259 389 c 128,-1,20
 316 388 316 388 364 360 c 1,21,-1
 259 352 l 1,22,-1
 247 331 l 1,0,-1
EndSplineSet
Validated: 553
EndChar

StartChar: austauschen-gu
Encoding: 62724 62724 38
Width: 512
GlyphClass: 2
Flags: W
LayerCount: 2
Fore
SplineSet
66 448 m 1,0,-1
 163 385 l 1,1,-1
 66 340 l 1,2,-1
 66 448 l 1,0,-1
141 423 m 1,3,4
 196 460 196 460 256 460 c 0,5,6
 340 460 340 460 400 400 c 128,-1,7
 460 340 460 340 460 256 c 1,8,-1
 480 256 l 1,9,10
 480 349 480 349 414.5 414.5 c 128,-1,11
 349 480 349 480 256 480 c 0,12,13
 183 480 183 480 122 435 c 1,14,-1
 49 480 l 1,15,-1
 49 310 l 1,16,-1
 199 387 l 1,17,-1
 141 423 l 1,3,4
446 64 m 1,18,-1
 349 127 l 1,19,-1
 446 172 l 1,20,-1
 446 64 l 1,18,-1
371 89 m 1,21,22
 316 52 316 52 256 52 c 0,23,24
 172 52 172 52 112.5 111.5 c 128,-1,25
 53 171 53 171 52 255 c 1,26,-1
 32 255 l 1,27,28
 33 163 33 163 98.5 97.5 c 128,-1,29
 164 32 164 32 256 32 c 0,30,31
 329 32 329 32 390 77 c 1,32,-1
 463 32 l 1,33,-1
 463 202 l 1,34,-1
 313 125 l 1,35,-1
 371 89 l 1,21,22
EndSplineSet
Validated: 521
EndChar

StartChar: austauschen-iu
Encoding: 62723 62723 39
Width: 512
GlyphClass: 2
Flags: W
LayerCount: 2
Fore
SplineSet
446 340 m 1,0,-1
 349 385 l 1,1,-1
 446 448 l 1,2,-1
 446 340 l 1,0,-1
313 387 m 1,3,-1
 463 310 l 1,4,-1
 463 480 l 1,5,-1
 390 435 l 1,6,7
 329 480 329 480 256 480 c 0,8,9
 163 480 163 480 97.5 414.5 c 128,-1,10
 32 349 32 349 32 256 c 1,11,-1
 52 256 l 1,12,13
 52 340 52 340 112 400 c 128,-1,14
 172 460 172 460 256 460 c 0,15,16
 316 460 316 460 371 423 c 1,17,-1
 313 387 l 1,3,-1
66 172 m 1,18,-1
 163 127 l 1,19,-1
 66 64 l 1,20,-1
 66 172 l 1,18,-1
199 125 m 1,21,-1
 49 202 l 1,22,-1
 49 32 l 1,23,-1
 122 77 l 1,24,25
 183 32 183 32 256 32 c 0,26,27
 348 32 348 32 413.5 97.5 c 128,-1,28
 479 163 479 163 480 255 c 1,29,-1
 460 255 l 1,30,31
 459 171 459 171 399.5 111.5 c 128,-1,32
 340 52 340 52 256 52 c 0,33,34
 196 52 196 52 141 89 c 1,35,-1
 199 125 l 1,21,-1
EndSplineSet
Validated: 521
EndChar

StartChar: kreispfeil1-gu-rueckgaengig
Encoding: 62727 62727 40
Width: 512
GlyphClass: 2
Flags: W
LayerCount: 2
Fore
SplineSet
460 254 m 1,0,1
 460 169 460 169 399.5 108.5 c 128,-1,2
 339 48 339 48 254 48 c 0,3,4
 181 48 181 48 123.5 95 c 128,-1,5
 66 142 66 142 52 214 c 1,6,-1
 32 210 l 1,7,8
 48 131 48 131 110.5 79.5 c 128,-1,9
 173 28 173 28 254 28 c 0,10,11
 348 28 348 28 414 94 c 128,-1,12
 480 160 480 160 480 254 c 128,-1,13
 480 348 480 348 414 414 c 128,-1,14
 348 480 348 480 254 480 c 0,15,16
 193 480 193 480 140 449.5 c 128,-1,17
 87 419 87 419 57 366 c 1,18,-1
 57 461 l 1,19,-1
 38 472 l 1,20,-1
 38 312 l 1,21,-1
 189 385 l 1,22,-1
 167 398 l 1,23,-1
 72 351 l 1,24,25
 99 400 99 400 149 430 c 128,-1,26
 199 460 199 460 254 460 c 0,27,28
 339 460 339 460 399.5 399.5 c 128,-1,29
 460 339 460 339 460 254 c 1,30,-1
 460 254 l 1,0,1
EndSplineSet
Validated: 517
EndChar

StartChar: kreispfeil1-iu-aktualisieren
Encoding: 62728 62728 41
Width: 512
GlyphClass: 2
Flags: W
LayerCount: 2
Fore
SplineSet
52 254 m 1,0,1
 52 169 52 169 112.5 108.5 c 128,-1,2
 173 48 173 48 258 48 c 0,3,4
 331 48 331 48 388.5 95 c 128,-1,5
 446 142 446 142 460 214 c 1,6,-1
 480 210 l 1,7,8
 464 131 464 131 401.5 79.5 c 128,-1,9
 339 28 339 28 258 28 c 0,10,11
 164 28 164 28 98 94 c 128,-1,12
 32 160 32 160 32 254 c 128,-1,13
 32 348 32 348 98 414 c 128,-1,14
 164 480 164 480 258 480 c 0,15,16
 319 480 319 480 372 449.5 c 128,-1,17
 425 419 425 419 455 366 c 1,18,-1
 455 461 l 1,19,-1
 474 472 l 1,20,-1
 474 312 l 1,21,-1
 323 385 l 1,22,-1
 345 398 l 1,23,-1
 440 351 l 1,24,25
 413 400 413 400 363 430 c 128,-1,26
 313 460 313 460 258 460 c 0,27,28
 173 460 173 460 112.5 399.5 c 128,-1,29
 52 339 52 339 52 254 c 1,30,-1
 52 254 l 1,0,1
EndSplineSet
Validated: 517
EndChar

StartChar: kreispfeil2-gu-rueckgaengig
Encoding: 62725 62725 42
Width: 512
GlyphClass: 2
Flags: W
LayerCount: 2
Fore
SplineSet
57 448 m 1,0,-1
 154 385 l 1,1,-1
 57 340 l 1,2,-1
 57 448 l 1,0,-1
132 423 m 1,3,4
 185 460 185 460 247 460 c 0,5,6
 331 460 331 460 391 400 c 128,-1,7
 451 340 451 340 451 256 c 128,-1,8
 451 172 451 172 391 112 c 128,-1,9
 331 52 331 52 247 52 c 0,10,11
 181 52 181 52 127 91 c 128,-1,12
 73 130 73 130 53 192 c 1,13,-1
 32 192 l 1,14,15
 53 121 53 121 112.5 76.5 c 128,-1,16
 172 32 172 32 247 32 c 0,17,18
 339 32 339 32 405 97.5 c 128,-1,19
 471 163 471 163 471 256 c 128,-1,20
 471 349 471 349 405 414.5 c 128,-1,21
 339 480 339 480 247 480 c 0,22,23
 174 480 174 480 113 435 c 1,24,-1
 39 480 l 1,25,-1
 39 310 l 1,26,-1
 190 387 l 1,27,-1
 132 423 l 1,3,4
EndSplineSet
Validated: 521
EndChar

StartChar: kreispfeil2-iu-aktualisieren
Encoding: 62726 62726 43
Width: 512
GlyphClass: 2
Flags: W
LayerCount: 2
Fore
SplineSet
446 340 m 1,0,-1
 349 385 l 1,1,-1
 446 448 l 1,2,-1
 446 340 l 1,0,-1
313 387 m 1,3,-1
 463 310 l 1,4,-1
 463 480 l 1,5,-1
 390 435 l 1,6,7
 329 480 329 480 256 480 c 0,8,9
 163 480 163 480 97.5 414.5 c 128,-1,10
 32 349 32 349 32 256 c 128,-1,11
 32 163 32 163 97.5 97.5 c 128,-1,12
 163 32 163 32 256 32 c 0,13,14
 331 32 331 32 390.5 76.5 c 128,-1,15
 450 121 450 121 471 192 c 1,16,-1
 450 192 l 1,17,18
 429 130 429 130 375.5 91 c 128,-1,19
 322 52 322 52 256 52 c 0,20,21
 172 52 172 52 112 112 c 128,-1,22
 52 172 52 172 52 256 c 128,-1,23
 52 340 52 340 112 400 c 128,-1,24
 172 460 172 460 256 460 c 0,25,26
 316 460 316 460 371 423 c 1,27,-1
 313 387 l 1,3,-1
EndSplineSet
Validated: 521
EndChar

StartChar: rotation-gu
Encoding: 62729 62729 44
Width: 512
GlyphClass: 2
Flags: W
LayerCount: 2
Fore
SplineSet
438 335 m 1,0,-1
 443 337 l 1,1,-1
 438 341 l 1,2,-1
 370 380 l 1,3,-1
 365 382 l 1,4,-1
 365 377 l 1,5,-1
 359 300 l 1,6,-1
 358 294 l 1,7,-1
 364 297 l 1,8,-1
 438 335 l 1,0,-1
370 194 m 0,9,10
 395 238 395 238 392 290 c 1,11,12
 348 266 348 266 344 264 c 2,13,-1
 338 261 l 1,14,-1
 338 267 l 1,15,-1
 346 408 l 1,16,-1
 346 414 l 1,17,-1
 351 411 l 1,18,-1
 474 340 l 1,19,-1
 480 337 l 1,20,-1
 474 333 l 2,21,22
 446 319 446 319 410 299 c 1,23,24
 416 237 416 237 386 185 c 0,25,26
 357 134 357 134 303 109 c 1,27,-1
 295 126 l 1,28,29
 343 148 343 148 370 194 c 0,9,10
63 358 m 1,30,-1
 68 360 l 1,31,-1
 138 393 l 1,32,-1
 143 396 l 1,33,-1
 138 399 l 1,34,-1
 68 444 l 1,35,-1
 63 448 l 1,36,-1
 63 358 l 1,30,-1
45 325 m 1,37,-1
 45 480 l 1,38,-1
 51 476 l 2,39,40
 61 470 61 470 113 438 c 1,41,42
 163 475 163 475 224 475 c 0,43,44
 281 475 281 475 331 441 c 1,45,-1
 320 426 l 1,46,47
 277 456 277 456 224 456 c 0,48,49
 174 456 174 456 130 427 c 1,50,51
 139 422 139 422 149.5 415 c 128,-1,52
 160 408 160 408 166.5 404 c 128,-1,53
 173 400 173 400 176 399 c 2,54,-1
 182 395 l 1,55,-1
 176 392 l 1,56,-1
 51 328 l 1,57,-1
 45 325 l 1,37,-1
161 64 m 1,58,-1
 166 67 l 1,59,-1
 234 106 l 1,60,-1
 238 108 l 1,61,-1
 234 111 l 1,62,-1
 170 156 l 1,63,-1
 165 159 l 1,64,-1
 165 153 l 1,65,-1
 161 70 l 1,66,-1
 161 64 l 1,58,-1
33 299 m 1,67,-1
 51 297 l 1,68,69
 46 245 46 245 73 199 c 0,70,71
 98 155 98 155 145 132 c 1,72,73
 146 157 146 157 146 186 c 1,74,-1
 147 193 l 1,75,-1
 152 189 l 1,76,-1
 270 113 l 1,77,-1
 276 109 l 1,78,-1
 270 106 l 1,79,-1
 148 35 l 1,80,-1
 142 32 l 1,81,-1
 142 39 l 2,82,83
 142 50 142 50 144 112 c 1,84,85
 88 136 88 136 57 189 c 0,86,87
 27 242 27 242 33 299 c 1,88,-1
 33 299 l 1,67,-1
EndSplineSet
Validated: 549
EndChar

StartChar: rotation-iu
Encoding: 62730 62730 45
Width: 512
GlyphClass: 2
Flags: W
LayerCount: 2
Fore
SplineSet
148 297 m 1,0,-1
 154 294 l 1,1,-1
 153 300 l 1,2,-1
 147 377 l 1,3,-1
 147 382 l 1,4,-1
 142 380 l 1,5,-1
 74 341 l 1,6,-1
 69 337 l 1,7,-1
 74 335 l 1,8,-1
 148 297 l 1,0,-1
142 194 m 0,9,10
 169 148 169 148 217 126 c 1,11,-1
 209 109 l 1,12,13
 155 134 155 134 126 185 c 0,14,15
 96 237 96 237 102 299 c 1,16,17
 66 319 66 319 38 333 c 2,18,-1
 32 337 l 1,19,-1
 38 340 l 1,20,-1
 161 411 l 1,21,-1
 166 414 l 1,22,-1
 166 408 l 1,23,-1
 174 267 l 1,24,-1
 174 261 l 1,25,-1
 168 264 l 2,26,27
 164 266 164 266 120 290 c 1,28,29
 117 238 117 238 142 194 c 0,9,10
449 363 m 1,30,-1
 449 448 l 1,31,-1
 444 444 l 1,32,-1
 374 399 l 1,33,-1
 369 396 l 1,34,-1
 374 393 l 1,35,-1
 444 360 l 1,36,-1
 449 358 l 1,37,-1
 449 363 l 1,30,-1
461 328 m 1,38,-1
 336 392 l 1,39,-1
 330 395 l 1,40,-1
 336 399 l 2,41,42
 339 400 339 400 345.5 404 c 128,-1,43
 352 408 352 408 362.5 415 c 128,-1,44
 373 422 373 422 382 427 c 1,45,46
 339 456 339 456 288 456 c 0,47,48
 235 456 235 456 192 426 c 1,49,-1
 181 441 l 1,50,51
 231 475 231 475 288 475 c 0,52,53
 349 475 349 475 399 438 c 1,54,55
 451 470 451 470 461 476 c 2,56,-1
 467 480 l 1,57,-1
 467 325 l 1,58,-1
 461 328 l 1,38,-1
351 70 m 1,59,-1
 347 153 l 1,60,-1
 347 159 l 1,61,-1
 342 156 l 1,62,-1
 278 111 l 1,63,-1
 274 108 l 1,64,-1
 278 106 l 1,65,-1
 346 67 l 1,66,-1
 351 64 l 1,67,-1
 351 70 l 1,59,-1
479 299 m 1,68,69
 485 242 485 242 455 189 c 0,70,71
 424 136 424 136 368 112 c 1,72,73
 370 50 370 50 370 39 c 2,74,-1
 370 32 l 1,75,-1
 364 35 l 1,76,-1
 242 106 l 1,77,-1
 236 109 l 1,78,-1
 242 113 l 1,79,-1
 360 189 l 1,80,-1
 365 193 l 1,81,-1
 366 186 l 1,82,83
 366 157 366 157 367 132 c 1,84,85
 414 155 414 155 439 199 c 0,86,87
 466 245 466 245 461 297 c 1,88,-1
 479 299 l 1,89,-1
 479 299 l 1,68,69
EndSplineSet
Validated: 549
EndChar

StartChar: recycling
Encoding: 9842 9842 46
Width: 512
GlyphClass: 2
Flags: W
LayerCount: 2
Fore
SplineSet
328 367 m 1,0,1
 334 366 334 366 345 365 c 128,-1,2
 356 364 356 364 362 364 c 1,3,-1
 374 394 l 1,4,-1
 364 409 l 2,5,6
 363 410 363 410 359.5 416 c 128,-1,7
 356 422 356 422 354 426 c 0,8,9
 346 440 346 440 340 449 c 0,10,11
 328 463 328 463 318 461 c 2,12,-1
 311 461 l 1,13,-1
 271 461 l 1,14,15
 303 426 303 426 321 382 c 2,16,-1
 328 367 l 1,0,1
375 344 m 1,17,-1
 368 345 l 1,18,-1
 299 351 l 1,19,-1
 270 353 l 1,20,-1
 304 374 l 1,21,22
 276 433 276 433 243 464 c 2,23,-1
 225 480 l 1,24,-1
 249 480 l 1,25,-1
 316 480 l 2,26,27
 336 482 336 482 354 461 c 0,28,29
 361 452 361 452 370 435 c 0,30,31
 372 433 372 433 380 419 c 1,32,-1
 417 442 l 1,33,-1
 375 344 l 1,17,-1
141 373 m 1,34,-1
 189 346 l 1,35,36
 217 399 217 399 234 421 c 1,37,38
 229 428 229 428 219 438 c 0,39,40
 206 448 206 448 196 448 c 2,41,-1
 195 448 l 2,42,43
 186 448 186 448 178 437 c 0,44,45
 172 429 172 429 141 373 c 1,34,-1
197 319 m 1,46,-1
 116 366 l 1,47,-1
 120 374 l 1,48,49
 161 446 161 446 162 448 c 0,50,51
 176 467 176 467 195 467 c 2,52,-1
 196 467 l 2,53,54
 213 467 213 467 231 452 c 0,55,56
 244 442 244 442 254 426 c 2,57,-1
 258 420 l 1,58,-1
 253 414 l 2,59,60
 236 396 236 396 202 328 c 2,61,-1
 197 319 l 1,46,-1
374 285 m 1,62,63
 408 231 408 231 417 210 c 1,64,65
 431 212 431 212 438 215 c 0,66,67
 451 219 451 219 458 229 c 0,68,69
 464 238 464 238 457 250 c 0,70,71
 453 261 453 261 421 312 c 1,72,-1
 374 285 l 1,62,63
403 190 m 1,73,-1
 401 197 l 2,74,75
 392 226 392 226 353 283 c 2,76,-1
 348 291 l 1,77,-1
 428 337 l 1,78,-1
 433 330 l 1,79,80
 470 267 470 267 474 258 c 0,81,82
 485 237 485 237 474 220 c 0,83,84
 465 204 465 204 444 197 c 0,85,86
 424 191 424 191 411 190 c 2,87,-1
 403 190 l 1,73,-1
306 119 m 1,88,-1
 325 94 l 1,89,-1
 344 94 l 2,90,91
 350 95 350 95 364 95 c 0,92,93
 387 95 387 95 391 96 c 0,94,95
 409 100 409 100 413 109 c 2,96,-1
 416 114 l 2,97,98
 425 129 425 129 437 150 c 1,99,100
 414 145 414 145 377 145 c 0,101,102
 369 145 369 145 356.5 145.5 c 128,-1,103
 344 146 344 146 341 146 c 2,104,-1
 325 148 l 1,105,-1
 306 119 l 1,88,-1
345 32 m 1,106,-1
 281 118 l 1,107,-1
 342 206 l 1,108,-1
 343 165 l 1,109,110
 351 164 351 164 377 164 c 0,111,112
 423 164 423 164 453 174 c 2,113,-1
 477 181 l 1,114,-1
 456 145 l 2,115,116
 451 137 451 137 445 126.5 c 128,-1,117
 439 116 439 116 435 109.5 c 128,-1,118
 431 103 431 103 430 101 c 0,119,120
 423 83 423 83 395 77 c 0,121,122
 389 76 389 76 364 76 c 2,123,-1
 344 76 l 1,124,-1
 345 32 l 1,106,-1
143 149 m 1,125,126
 138 138 138 138 137 127 c 0,127,128
 134 112 134 112 139 102 c 0,129,130
 144 94 144 94 158 92 c 2,131,-1
 180 92 l 2,132,133
 216 92 216 92 231 93 c 1,134,-1
 231 148 l 1,135,136
 218 147 218 147 185 147 c 0,137,138
 154 147 154 147 143 149 c 1,125,126
180 73 m 0,139,140
 161 73 161 73 157 74 c 0,141,142
 133 76 133 76 123 93 c 0,143,144
 114 110 114 110 118 131 c 0,145,146
 120 143 120 143 129 164 c 2,147,-1
 132 171 l 1,148,-1
 140 169 l 2,149,150
 154 166 154 166 185 166 c 0,151,152
 212 166 212 166 240 168 c 2,153,-1
 250 168 l 1,154,-1
 250 74 l 1,155,-1
 241 74 l 2,156,157
 235 74 235 74 213 73.5 c 128,-1,158
 191 73 191 73 180 73 c 0,139,140
96 289 m 1,159,-1
 87 273 l 2,160,161
 86 272 86 272 82.5 266 c 128,-1,162
 79 260 79 260 77 256 c 0,163,164
 75 253 75 253 72 247.5 c 128,-1,165
 69 242 69 242 66.5 237.5 c 128,-1,166
 64 233 64 233 64 232 c 0,167,168
 58 214 58 214 65 206 c 2,169,-1
 88 165 l 1,170,171
 104 208 104 208 133 249 c 2,172,-1
 142 263 l 1,173,-1
 128 293 l 1,174,-1
 96 289 l 1,159,-1
95 114 m 1,175,-1
 83 136 l 2,176,177
 80 142 80 142 72 156 c 128,-1,178
 64 170 64 170 57.5 181.5 c 128,-1,179
 51 193 51 193 50 195 c 0,180,181
 38 210 38 210 46 238 c 0,182,183
 49 244 49 244 60 264 c 1,184,-1
 61 265 l 1,185,186
 67 277 67 277 70 282 c 1,187,-1
 58 289 l 1,188,-1
 32 303 l 1,189,-1
 138 315 l 1,190,-1
 184 219 l 1,191,-1
 159 233 l 2,192,193
 150 238 150 238 148 238 c 0,194,195
 112 188 112 188 101 138 c 2,196,-1
 95 114 l 1,175,-1
EndSplineSet
Validated: 33
EndChar

StartChar: kreispfeil3-gu-rueckgaengig
Encoding: 62722 62722 47
Width: 512
GlyphClass: 2
Flags: W
LayerCount: 2
Fore
SplineSet
50 334 m 1,0,-1
 151 382 l 1,1,-1
 50 446 l 1,2,-1
 50 334 l 1,0,-1
188 383 m 1,3,-1
 32 304 l 1,4,-1
 32 480 l 1,5,-1
 108 433 l 1,6,7
 171 480 171 480 247 480 c 0,8,9
 344 480 344 480 412 412 c 128,-1,10
 480 344 480 344 480 247 c 0,11,12
 480 149 480 149 411 82 c 1,13,-1
 396 97 l 1,14,15
 459 158 459 158 459 247 c 0,16,17
 459 335 459 335 397 397 c 128,-1,18
 335 459 335 459 247 459 c 0,19,20
 183 459 183 459 128 421 c 1,21,-1
 188 383 l 1,3,-1
302 435 m 1,22,23
 380 412 380 412 417 342 c 0,24,25
 456 271 456 271 433.5 194 c 128,-1,26
 411 117 411 117 341 79 c 0,27,28
 271 40 271 40 193 63 c 1,29,-1
 199 81 l 1,30,31
 268 61 268 61 331 96 c 0,32,33
 395 131 395 131 415 200 c 128,-1,34
 435 269 435 269 400 333 c 128,-1,35
 365 397 365 397 296 416 c 1,36,-1
 302 435 l 1,22,23
384 323 m 1,37,38
 414 267 414 267 396 205.5 c 128,-1,39
 378 144 378 144 322 113 c 128,-1,40
 266 82 266 82 204.5 100 c 128,-1,41
 143 118 143 118 112 174 c 1,42,-1
 129 183 l 1,43,44
 156 134 156 134 209.5 118.5 c 128,-1,45
 263 103 263 103 313 130 c 0,46,47
 362 157 362 157 377.5 211 c 128,-1,48
 393 265 393 265 367 314 c 1,49,-1
 384 323 l 1,37,38
EndSplineSet
Validated: 545
EndChar

StartChar: kreispfeil3-iu-aktualisieren
Encoding: 62721 62721 48
Width: 512
GlyphClass: 2
Flags: W
LayerCount: 2
Fore
SplineSet
462 446 m 1,0,-1
 361 382 l 1,1,-1
 462 334 l 1,2,-1
 462 446 l 1,0,-1
384 421 m 1,3,4
 329 459 329 459 265 459 c 0,5,6
 177 459 177 459 115 397 c 128,-1,7
 53 335 53 335 53 247 c 0,8,9
 53 158 53 158 116 97 c 1,10,-1
 101 82 l 1,11,12
 32 149 32 149 32 247 c 0,13,14
 32 344 32 344 100 412 c 128,-1,15
 168 480 168 480 265 480 c 0,16,17
 341 480 341 480 404 433 c 1,18,-1
 480 480 l 1,19,-1
 480 304 l 1,20,-1
 324 383 l 1,21,-1
 384 421 l 1,3,4
210 435 m 1,22,23
 132 412 132 412 95 342 c 0,24,25
 56 271 56 271 78.5 194 c 128,-1,26
 101 117 101 117 171 79 c 0,27,28
 241 40 241 40 319 63 c 1,29,-1
 314 81 l 1,30,31
 244 61 244 61 181 96 c 0,32,33
 117 131 117 131 97 200 c 128,-1,34
 77 269 77 269 112 333 c 128,-1,35
 147 397 147 397 216 416 c 1,36,-1
 210 435 l 1,22,23
128 323 m 1,37,38
 98 267 98 267 116 205.5 c 128,-1,39
 134 144 134 144 190 113 c 128,-1,40
 246 82 246 82 307.5 100 c 128,-1,41
 369 118 369 118 400 174 c 1,42,-1
 383 183 l 1,43,44
 356 134 356 134 302.5 118.5 c 128,-1,45
 249 103 249 103 199 130 c 0,46,47
 150 157 150 157 134.5 211 c 128,-1,48
 119 265 119 265 145 314 c 1,49,-1
 128 323 l 1,37,38
EndSplineSet
Validated: 553
EndChar

StartChar: log-out-exit
Encoding: 77 77 49
Width: 512
GlyphClass: 2
Flags: W
LayerCount: 2
Fore
SplineSet
32 480 m 1,0,-1
 32 32 l 1,1,-1
 480 32 l 1,2,-1
 480 139 l 1,3,-1
 461 139 l 1,4,-1
 461 51 l 1,5,-1
 51 51 l 1,6,-1
 51 461 l 1,7,-1
 461 461 l 1,8,-1
 461 373 l 1,9,-1
 480 373 l 1,10,-1
 480 480 l 1,11,-1
 32 480 l 1,0,-1
270 294 m 1,12,-1
 270 330 l 1,13,-1
 267 342 l 2,14,15
 272 338 272 338 275 333 c 2,16,-1
 385 260 l 1,17,-1
 396 257 l 2,18,19
 390 255 390 255 384 254 c 2,20,-1
 275 180 l 1,21,-1
 267 172 l 2,22,23
 269 178 269 178 270 184 c 2,24,-1
 270 219 l 1,25,-1
 126 219 l 1,26,-1
 126 294 l 1,27,-1
 270 294 l 1,12,-1
251 369 m 1,28,-1
 251 313 l 1,29,-1
 107 313 l 1,30,-1
 107 201 l 1,31,-1
 251 201 l 1,32,-1
 251 144 l 1,33,-1
 426 257 l 1,34,-1
 251 369 l 1,28,-1
EndSplineSet
Validated: 521
EndChar

StartChar: pfeil-links
Encoding: 53 53 50
Width: 512
GlyphClass: 2
Flags: W
LayerCount: 2
Fore
SplineSet
237 83 m 1,0,-1
 242 64 l 1,1,-1
 234 80 l 1,2,-1
 58 255 l 1,3,-1
 234 432 l 1,4,-1
 242 447 l 2,5,6
 239 437 239 437 237 428 c 2,7,-1
 237 311 l 1,8,-1
 461 311 l 1,9,-1
 461 200 l 1,10,-1
 237 200 l 1,11,-1
 237 83 l 1,0,-1
256 32 m 1,12,-1
 256 181 l 1,13,-1
 480 181 l 1,14,-1
 480 330 l 1,15,-1
 256 330 l 1,16,-1
 256 480 l 1,17,-1
 32 255 l 1,18,-1
 256 32 l 1,12,-1
EndSplineSet
Validated: 521
EndChar

StartChar: pfeil-oben
Encoding: 54 54 51
Width: 512
GlyphClass: 2
Flags: W
LayerCount: 2
Fore
SplineSet
83 275 m 1,0,-1
 64 270 l 1,1,-1
 80 278 l 1,2,-1
 255 454 l 1,3,-1
 432 278 l 1,4,-1
 447 270 l 2,5,6
 437 273 437 273 428 275 c 2,7,-1
 311 275 l 1,8,-1
 311 51 l 1,9,-1
 200 51 l 1,10,-1
 200 275 l 1,11,-1
 83 275 l 1,0,-1
32 256 m 1,12,-1
 181 256 l 1,13,-1
 181 32 l 1,14,-1
 330 32 l 1,15,-1
 330 256 l 1,16,-1
 480 256 l 1,17,-1
 255 480 l 1,18,-1
 32 256 l 1,12,-1
EndSplineSet
Validated: 521
EndChar

StartChar: pfeil-rechts
Encoding: 56 56 52
Width: 512
GlyphClass: 2
Flags: W
LayerCount: 2
Fore
SplineSet
275 429 m 1,0,-1
 270 448 l 1,1,-1
 278 432 l 1,2,-1
 454 257 l 1,3,-1
 278 80 l 1,4,-1
 270 65 l 2,5,6
 273 75 273 75 275 84 c 2,7,-1
 275 201 l 1,8,-1
 51 201 l 1,9,-1
 51 312 l 1,10,-1
 275 312 l 1,11,-1
 275 429 l 1,0,-1
256 480 m 1,12,-1
 256 331 l 1,13,-1
 32 331 l 1,14,-1
 32 182 l 1,15,-1
 256 182 l 1,16,-1
 256 32 l 1,17,-1
 480 257 l 1,18,-1
 256 480 l 1,12,-1
EndSplineSet
Validated: 521
EndChar

StartChar: pfeil-unten
Encoding: 55 55 53
Width: 512
GlyphClass: 2
Flags: W
LayerCount: 2
Fore
SplineSet
429 237 m 1,0,-1
 448 242 l 1,1,-1
 432 234 l 1,2,-1
 257 58 l 1,3,-1
 80 234 l 1,4,-1
 65 242 l 2,5,6
 75 239 75 239 84 237 c 2,7,-1
 201 237 l 1,8,-1
 201 461 l 1,9,-1
 312 461 l 1,10,-1
 312 237 l 1,11,-1
 429 237 l 1,0,-1
480 256 m 1,12,-1
 331 256 l 1,13,-1
 331 480 l 1,14,-1
 182 480 l 1,15,-1
 182 256 l 1,16,-1
 32 256 l 1,17,-1
 257 32 l 1,18,-1
 480 256 l 1,12,-1
EndSplineSet
Validated: 521
EndChar

StartChar: pfeil-oben-li
Encoding: 52 52 54
Width: 512
GlyphClass: 2
Flags: W
LayerCount: 2
Fore
SplineSet
69 200 m 1,0,-1
 59 183 l 2,1,2
 61 191 61 191 65 200 c 1,3,-1
 64 448 l 1,4,-1
 313 448 l 1,5,-1
 330 454 l 2,6,7
 321 449 321 449 313 443 c 2,8,-1
 230 361 l 1,9,-1
 389 202 l 1,10,-1
 310 124 l 1,11,-1
 152 282 l 1,12,-1
 69 200 l 1,0,-1
46 150 m 1,13,-1
 152 256 l 1,14,-1
 310 98 l 1,15,-1
 415 202 l 1,16,-1
 257 361 l 1,17,-1
 363 467 l 1,18,-1
 45 466 l 1,19,-1
 46 150 l 1,13,-1
EndSplineSet
Validated: 521
EndChar

StartChar: pfeil-oben-re
Encoding: 57 57 55
Width: 512
GlyphClass: 2
Flags: W
LayerCount: 2
Fore
SplineSet
148 443 m 1,0,-1
 131 454 l 2,1,2
 139 451 139 451 148 448 c 2,3,-1
 396 448 l 1,4,-1
 396 199 l 1,5,-1
 402 183 l 2,6,7
 397 191 397 191 391 200 c 2,8,-1
 309 282 l 1,9,-1
 150 124 l 1,10,-1
 72 203 l 1,11,-1
 230 361 l 1,12,-1
 148 443 l 1,0,-1
98 467 m 1,13,-1
 204 361 l 1,14,-1
 45 203 l 1,15,-1
 150 98 l 1,16,-1
 309 256 l 1,17,-1
 415 150 l 1,18,-1
 414 467 l 1,19,-1
 98 467 l 1,13,-1
EndSplineSet
Validated: 521
EndChar

StartChar: pfeil-unten-li
Encoding: 51 51 56
Width: 512
GlyphClass: 2
Flags: W
LayerCount: 2
Fore
SplineSet
313 121 m 1,0,-1
 330 111 l 2,1,2
 321 114 321 114 313 117 c 2,3,-1
 65 116 l 1,4,-1
 64 365 l 1,5,-1
 58 382 l 2,6,7
 64 373 64 373 69 365 c 2,8,-1
 152 282 l 1,9,-1
 310 441 l 1,10,-1
 389 362 l 1,11,-1
 230 204 l 1,12,-1
 313 121 l 1,0,-1
362 98 m 1,13,-1
 257 204 l 1,14,-1
 415 362 l 1,15,-1
 310 467 l 1,16,-1
 152 309 l 1,17,-1
 45 415 l 1,18,-1
 46 98 l 1,19,-1
 362 98 l 1,13,-1
EndSplineSet
Validated: 521
EndChar

StartChar: pfeil-unten-re
Encoding: 58 58 57
Width: 512
GlyphClass: 2
Flags: W
LayerCount: 2
Fore
SplineSet
391 365 m 1,0,-1
 402 382 l 2,1,2
 399 373 399 373 396 365 c 2,3,-1
 396 117 l 1,4,-1
 147 116 l 1,5,-1
 131 111 l 2,6,7
 139 116 139 116 148 121 c 2,8,-1
 230 204 l 1,9,-1
 72 362 l 1,10,-1
 150 441 l 1,11,-1
 309 282 l 1,12,-1
 391 365 l 1,0,-1
414 414 m 1,13,-1
 309 309 l 1,14,-1
 151 467 l 1,15,-1
 45 362 l 1,16,-1
 204 204 l 1,17,-1
 98 98 l 1,18,-1
 415 98 l 1,19,-1
 414 414 l 1,13,-1
EndSplineSet
Validated: 521
EndChar

StartChar: excel-export
Encoding: 62065 62065 58
Width: 512
GlyphClass: 2
Flags: W
LayerCount: 2
Fore
SplineSet
150 212 m 1,0,-1
 193 128 l 1,1,-1
 154 132 l 1,2,-1
 130 187 l 1,3,-1
 129 187 l 1,4,-1
 110 138 l 1,5,-1
 74 141 l 1,6,-1
 110 214 l 1,7,-1
 72 281 l 1,8,-1
 108 283 l 1,9,-1
 130 234 l 1,10,-1
 156 289 l 1,11,-1
 192 292 l 1,12,-1
 150 212 l 1,0,-1
302 282 m 1,13,-1
 359 282 l 1,14,-1
 359 320 l 1,15,-1
 302 320 l 1,16,-1
 302 282 l 1,13,-1
302 225 m 1,17,-1
 359 225 l 1,18,-1
 359 263 l 1,19,-1
 302 263 l 1,20,-1
 302 225 l 1,17,-1
302 166 m 1,21,-1
 359 166 l 1,22,-1
 359 205 l 1,23,-1
 302 205 l 1,24,-1
 302 166 l 1,21,-1
302 109 m 1,25,-1
 359 109 l 1,26,-1
 359 148 l 1,27,-1
 302 148 l 1,28,-1
 302 109 l 1,25,-1
243 339 m 1,29,-1
 366 339 l 2,30,31
 372 339 372 339 376 335 c 2,32,-1
 378 326 l 1,33,-1
 378 102 l 2,34,35
 378 94 378 94 374 91.5 c 128,-1,36
 370 89 370 89 366 90 c 2,37,-1
 243 90 l 1,38,-1
 243 108 l 1,39,-1
 283 108 l 1,40,-1
 283 148 l 1,41,-1
 243 148 l 1,42,-1
 243 167 l 1,43,-1
 283 167 l 1,44,-1
 283 205 l 1,45,-1
 243 205 l 1,46,-1
 243 224 l 1,47,-1
 283 224 l 1,48,-1
 283 263 l 1,49,-1
 243 263 l 1,50,-1
 243 282 l 1,51,-1
 283 282 l 1,52,-1
 283 320 l 1,53,-1
 243 320 l 1,54,-1
 243 339 l 1,29,-1
139 378 m 1,55,-1
 32 357 l 1,56,-1
 32 74 l 1,57,-1
 243 32 l 1,58,-1
 243 70 l 1,59,-1
 368 70 l 2,60,61
 371 70 371 70 376 71 c 128,-1,62
 381 72 381 72 389.5 79.5 c 128,-1,63
 398 87 398 87 398 99 c 2,64,-1
 398 332 l 2,65,66
 398 335 398 335 397 339.5 c 128,-1,67
 396 344 396 344 389 351.5 c 128,-1,68
 382 359 382 359 370 359 c 2,69,-1
 244 359 l 1,70,-1
 244 398 l 1,71,-1
 219 393 l 1,72,73
 207 377 207 377 202 368 c 1,74,-1
 223 372 l 1,75,-1
 223 56 l 1,76,-1
 52 91 l 1,77,-1
 52 341 l 1,78,-1
 131 355 l 1,79,80
 132 360 132 360 139 378 c 1,55,-1
392 408 m 1,81,-1
 388 405 l 1,82,-1
 392 403 l 1,83,-1
 451 375 l 1,84,-1
 455 373 l 1,85,-1
 455 449 l 1,86,-1
 451 446 l 1,87,-1
 392 408 l 1,81,-1
146 318 m 1,88,89
 150 384 150 384 199 430.5 c 128,-1,90
 248 477 248 477 316 477 c 0,91,92
 372 477 372 477 415 444 c 1,93,94
 424 450 424 450 441.5 461 c 128,-1,95
 459 472 459 472 468 477 c 2,96,-1
 473 480 l 1,97,-1
 473 342 l 1,98,-1
 468 344 l 1,99,-1
 356 401 l 1,100,-1
 351 404 l 1,101,-1
 356 407 l 1,102,-1
 395 431 l 1,103,104
 358 455 358 455 316 455 c 0,105,106
 257 455 257 455 214.5 415 c 128,-1,107
 172 375 172 375 168 316 c 1,108,-1
 146 318 l 1,88,89
EndSplineSet
Validated: 521
EndChar

StartChar: excel-import
Encoding: 62066 62066 59
Width: 512
GlyphClass: 2
Flags: W
LayerCount: 2
Fore
SplineSet
235 240 m 1,0,-1
 243 222 l 1,1,-1
 281 218 l 1,2,-1
 269 242 l 1,3,4
 254 243 254 243 235 240 c 1,0,-1
240 302 m 1,5,-1
 280 377 l 1,6,-1
 245 374 l 1,7,-1
 220 321 l 1,8,-1
 198 369 l 1,9,-1
 163 367 l 1,10,-1
 200 302 l 1,11,-1
 195 291 l 1,12,13
 213 299 213 299 240 302 c 1,5,-1
480 190 m 2,14,-1
 480 417 l 2,15,16
 480 420 480 420 479.5 424.5 c 128,-1,17
 479 429 479 429 472 436 c 128,-1,18
 465 443 465 443 453 443 c 2,19,-1
 330 443 l 1,20,-1
 330 480 l 1,21,-1
 125 441 l 1,22,-1
 125 243 l 2,23,24
 126 244 126 244 128 246.5 c 128,-1,25
 130 249 130 249 131 250 c 0,26,27
 139 258 139 258 144 262 c 1,28,-1
 144 425 l 1,29,-1
 310 455 l 1,30,-1
 310 294 l 1,31,32
 339 285 339 285 368 267 c 1,33,-1
 368 294 l 1,34,-1
 330 294 l 1,35,-1
 330 312 l 1,36,-1
 368 312 l 1,37,-1
 368 349 l 1,38,-1
 330 349 l 1,39,-1
 330 368 l 1,40,-1
 368 368 l 1,41,-1
 368 405 l 1,42,-1
 330 405 l 1,43,-1
 330 423 l 1,44,-1
 449 423 l 2,45,46
 456 423 456 423 459 419 c 2,47,-1
 460 411 l 1,48,-1
 460 194 l 2,49,50
 460 181 460 181 449 181 c 2,51,-1
 330 181 l 1,52,-1
 330 200 l 1,53,-1
 352 200 l 1,54,55
 332 220 332 220 310 230 c 1,56,-1
 310 149 l 1,57,-1
 193 172 l 1,58,-1
 186 154 l 1,59,-1
 330 125 l 1,60,-1
 330 162 l 1,61,-1
 451 162 l 2,62,63
 480 164 480 164 480 190 c 2,14,-1
443 405 m 1,64,-1
 387 405 l 1,65,-1
 387 368 l 1,66,-1
 443 368 l 1,67,-1
 443 405 l 1,64,-1
443 349 m 1,68,-1
 387 349 l 1,69,-1
 387 312 l 1,70,-1
 443 312 l 1,71,-1
 443 349 l 1,68,-1
443 293 m 1,72,-1
 387 293 l 1,73,-1
 387 256 l 1,74,-1
 443 256 l 1,75,-1
 443 293 l 1,72,-1
443 238 m 1,76,-1
 388 238 l 1,77,-1
 387 237 l 1,78,-1
 387 200 l 1,79,-1
 443 200 l 1,80,-1
 443 238 l 1,76,-1
355 200 m 1,81,-1
 368 200 l 1,82,-1
 368 215 l 1,83,-1
 355 200 l 1,81,-1
137 134 m 1,84,-1
 142 135 l 1,85,-1
 140 130 l 1,86,-1
 119 71 l 1,87,-1
 117 67 l 1,88,-1
 114 70 l 1,89,-1
 69 115 l 1,90,-1
 66 118 l 1,91,-1
 71 119 l 1,92,-1
 137 134 l 1,84,-1
368 240 m 1,93,94
 319 284 319 284 253.5 282 c 128,-1,95
 188 280 188 280 142 234 c 0,96,97
 105 197 105 197 96 142 c 1,98,99
 87 140 87 140 67 135.5 c 128,-1,100
 47 131 47 131 38 129 c 2,101,-1
 32 127 l 1,102,-1
 123 36 l 1,103,-1
 127 33 l 1,104,-1
 128 38 l 1,105,-1
 166 154 l 1,106,-1
 168 159 l 1,107,-1
 162 158 l 2,108,109
 156 157 156 157 141.5 153.5 c 128,-1,110
 127 150 127 150 119 148 c 1,111,112
 128 190 128 190 157 219 c 0,113,114
 197 259 197 259 254.5 260.5 c 128,-1,115
 312 262 312 262 354 225 c 1,116,-1
 368 240 l 1,93,94
EndSplineSet
Validated: 553
EndChar

StartChar: excel
Encoding: 62064 62064 60
Width: 512
GlyphClass: 2
Flags: W
LayerCount: 2
Fore
SplineSet
355 384 m 1,0,-1
 436 384 l 1,1,-1
 436 335 l 1,2,-1
 355 335 l 1,3,-1
 355 384 l 1,0,-1
355 310 m 1,4,-1
 436 310 l 1,5,-1
 436 261 l 1,6,-1
 355 261 l 1,7,-1
 355 310 l 1,4,-1
355 235 m 1,8,-1
 436 235 l 1,9,-1
 436 187 l 1,10,-1
 355 187 l 1,11,-1
 355 235 l 1,8,-1
355 161 m 1,12,-1
 436 161 l 1,13,-1
 436 113 l 1,14,-1
 355 113 l 1,15,-1
 355 161 l 1,12,-1
177 258 m 1,16,-1
 231 152 l 1,17,-1
 182 157 l 1,18,-1
 152 226 l 1,19,-1
 151 226 l 1,20,-1
 126 165 l 1,21,-1
 82 168 l 1,22,-1
 127 260 l 1,23,-1
 79 344 l 1,24,-1
 124 347 l 1,25,-1
 151 285 l 1,26,-1
 152 285 l 1,27,-1
 184 354 l 1,28,-1
 230 358 l 1,29,-1
 177 258 l 1,16,-1
463 397 m 1,30,-1
 463 107 l 2,31,32
 463 98 463 98 458.5 93 c 128,-1,33
 454 88 454 88 450 88 c 2,34,-1
 445 88 l 1,35,-1
 291 88 l 1,36,-1
 291 113 l 1,37,-1
 340 113 l 1,38,-1
 340 161 l 1,39,-1
 291 161 l 1,40,-1
 291 186 l 1,41,-1
 340 186 l 1,42,-1
 340 235 l 1,43,-1
 291 235 l 1,44,-1
 291 260 l 1,45,-1
 340 260 l 1,46,-1
 340 308 l 1,47,-1
 291 308 l 1,48,-1
 291 335 l 1,49,-1
 340 335 l 1,50,-1
 340 384 l 1,51,-1
 291 384 l 1,52,-1
 291 416 l 1,53,-1
 445 416 l 2,54,55
 455 416 455 416 459.5 411 c 128,-1,56
 464 406 464 406 464 402 c 2,57,-1
 463 397 l 1,30,-1
272 55 m 1,58,-1
 51 99 l 1,59,-1
 51 418 l 1,60,-1
 272 458 l 1,61,-1
 272 55 l 1,58,-1
480 105 m 1,62,-1
 480 402 l 2,63,64
 480 405 480 405 479 410.5 c 128,-1,65
 478 416 478 416 470 424.5 c 128,-1,66
 462 433 462 433 448 433 c 2,67,-1
 291 433 l 1,68,-1
 291 480 l 1,69,-1
 32 433 l 1,70,-1
 32 84 l 1,71,-1
 291 32 l 1,72,-1
 291 72 l 1,73,-1
 450 72 l 2,74,75
 453 72 453 72 458 73.5 c 128,-1,76
 463 75 463 75 471.5 83 c 128,-1,77
 480 91 480 91 480 105 c 1,78,-1
 480 105 l 1,62,-1
EndSplineSet
Validated: 5
EndChar

StartChar: outlook
Encoding: 62068 62068 61
Width: 512
GlyphClass: 2
Flags: W
LayerCount: 2
Fore
SplineSet
192 249 m 128,-1,1
 192 191 192 191 160 193 c 0,2,3
 127 193 127 193 127 248 c 0,4,5
 127 302 127 302 160 305 c 0,6,0
 192 307 192 307 192 249 c 128,-1,1
240 250 m 0,7,8
 240 299 240 299 218.5 323.5 c 128,-1,9
 197 348 197 348 159 344 c 0,10,11
 122 341 122 341 102.5 316 c 128,-1,12
 83 291 83 291 83 249 c 0,13,14
 83 159 83 159 159 153 c 0,15,16
 197 151 197 151 218.5 176.5 c 128,-1,17
 240 202 240 202 240 250 c 0,7,8
463 369 m 1,18,-1
 463 345 l 1,19,-1
 331 239 l 1,20,-1
 291 271 l 1,21,-1
 291 388 l 1,22,-1
 445 388 l 2,23,24
 455 388 455 388 459.5 383 c 128,-1,25
 464 378 464 378 464 374 c 2,26,-1
 463 369 l 1,18,-1
272 55 m 1,27,-1
 51 99 l 1,28,-1
 51 418 l 1,29,-1
 272 458 l 1,30,-1
 272 55 l 1,27,-1
291 132 m 1,31,-1
 291 248 l 1,32,-1
 331 216 l 1,33,-1
 463 321 l 1,34,-1
 463 151 l 2,35,36
 463 142 463 142 458.5 137 c 128,-1,37
 454 132 454 132 450 132 c 2,38,-1
 445 132 l 1,39,-1
 291 132 l 1,31,-1
480 149 m 1,40,-1
 480 374 l 2,41,42
 480 377 480 377 479 382.5 c 128,-1,43
 478 388 478 388 470 396.5 c 128,-1,44
 462 405 462 405 448 405 c 2,45,-1
 291 405 l 1,46,-1
 291 480 l 1,47,-1
 32 433 l 1,48,-1
 32 84 l 1,49,-1
 291 32 l 1,50,-1
 291 116 l 1,51,-1
 450 116 l 2,52,53
 453 116 453 116 458 117 c 128,-1,54
 463 118 463 118 471.5 126.5 c 128,-1,55
 480 135 480 135 480 149 c 1,56,-1
 480 149 l 1,40,-1
EndSplineSet
Validated: 37
EndChar

StartChar: outlook-import
Encoding: 62070 62070 62
Width: 512
GlyphClass: 2
Flags: W
LayerCount: 2
Fore
SplineSet
214 234 m 1,0,1
 220 231 220 231 235 229 c 0,2,3
 256 228 256 228 272 240 c 1,4,5
 241 245 241 245 214 234 c 1,0,1
295 298 m 1,6,-1
 295 301 l 2,7,8
 295 338 295 338 279 356.5 c 128,-1,9
 263 375 263 375 235 372 c 0,10,11
 178 368 178 368 178 301 c 0,12,13
 178 289 178 289 179 284 c 1,14,15
 192 291 192 291 210 296 c 1,16,-1
 210 300 l 2,17,18
 210 341 210 341 235 343 c 0,19,20
 259 345 259 345 259 302 c 1,21,22
 279 302 279 302 295 298 c 1,6,-1
338 138 m 1,23,-1
 338 208 l 1,24,25
 330 215 330 215 319 222 c 1,26,-1
 319 161 l 1,27,-1
 197 185 l 1,28,-1
 191 167 l 1,29,-1
 338 138 l 1,23,-1
462 401 m 1,30,-1
 462 386 l 1,31,-1
 366 304 l 1,32,-1
 338 324 l 1,33,-1
 338 412 l 1,34,-1
 452 412 l 2,35,36
 458 412 458 412 461 409 c 2,37,-1
 462 401 l 1,30,-1
480 235 m 2,38,-1
 480 405 l 2,39,40
 480 408 480 408 479.5 412 c 128,-1,41
 479 416 479 416 472 423 c 128,-1,42
 465 430 465 430 453 430 c 2,43,-1
 338 430 l 1,44,-1
 338 480 l 1,45,-1
 139 444 l 1,46,-1
 139 257 l 1,47,48
 151 267 151 267 158 272 c 1,49,-1
 158 428 l 1,50,-1
 319 458 l 1,51,-1
 319 291 l 1,52,53
 331 287 331 287 338 284 c 1,54,-1
 338 303 l 1,55,-1
 366 283 l 1,56,-1
 462 365 l 1,57,-1
 462 237 l 2,58,59
 462 225 462 225 452 225 c 2,60,-1
 376 225 l 1,61,-1
 361 208 l 1,62,-1
 455 208 l 2,63,64
 458 208 458 208 462 209 c 128,-1,65
 466 210 466 210 473 217 c 128,-1,66
 480 224 480 224 480 235 c 2,38,-1
137 134 m 1,67,-1
 142 135 l 1,68,-1
 140 130 l 1,69,-1
 119 71 l 1,70,-1
 117 67 l 1,71,-1
 114 70 l 1,72,-1
 69 115 l 1,73,-1
 66 118 l 1,74,-1
 71 119 l 1,75,-1
 137 134 l 1,67,-1
368 240 m 1,76,77
 319 284 319 284 253.5 282 c 128,-1,78
 188 280 188 280 142 234 c 0,79,80
 105 197 105 197 96 142 c 1,81,82
 87 140 87 140 67 135.5 c 128,-1,83
 47 131 47 131 38 129 c 2,84,-1
 32 127 l 1,85,-1
 123 36 l 1,86,-1
 127 33 l 1,87,-1
 128 38 l 1,88,-1
 166 154 l 1,89,-1
 168 159 l 1,90,-1
 162 158 l 2,91,92
 156 157 156 157 141.5 153.5 c 128,-1,93
 127 150 127 150 119 148 c 1,94,95
 128 190 128 190 157 219 c 0,96,97
 197 259 197 259 254.5 260.5 c 128,-1,98
 312 262 312 262 354 225 c 1,99,-1
 368 240 l 1,76,77
EndSplineSet
Validated: 553
EndChar

StartChar: pdf-adobeacrobat
Encoding: 62074 62074 63
Width: 512
GlyphClass: 2
Flags: W
LayerCount: 2
Fore
SplineSet
232 461 m 2,0,-1
 231 461 l 2,1,2
 219 460 219 460 216.5 456 c 128,-1,3
 214 452 214 452 214 437 c 2,4,-1
 214 436 l 2,5,6
 213 393 213 393 251 314 c 1,7,8
 276 411 276 411 249 452 c 0,9,10
 242 461 242 461 232 461 c 2,0,-1
215 192 m 1,11,-1
 215 190 l 1,12,-1
 224 193 l 2,13,14
 228 194 228 194 233 195 c 128,-1,15
 238 196 238 196 245 198 c 128,-1,16
 252 200 252 200 256 201 c 0,17,18
 288 209 288 209 295 211 c 2,19,-1
 296 211 l 1,20,21
 286 221 286 221 272 239 c 0,22,23
 271 241 271 241 265 250.5 c 128,-1,24
 259 260 259 260 255 266 c 1,25,-1
 255 267 l 2,26,27
 253 263 253 263 248.5 253 c 128,-1,28
 244 243 244 243 241 238 c 0,29,30
 236 229 236 229 227.5 213.5 c 128,-1,31
 219 198 219 198 215 191 c 1,32,-1
 215 192 l 1,11,-1
337 201 m 1,33,34
 361 183 361 183 390 172 c 0,35,36
 392 172 392 172 395 170 c 128,-1,37
 398 168 398 168 399 168 c 0,38,39
 429 155 429 155 444 156 c 0,40,41
 454 156 454 156 459 169 c 0,42,43
 466 189 466 189 455 199 c 0,44,45
 432 220 432 220 337 201 c 1,33,34
171 155 m 1,46,47
 119 133 119 133 86 111 c 0,48,49
 44 79 44 79 52 56 c 0,50,51
 54 51 54 51 60 51 c 0,52,53
 80 51 80 51 99 68 c 0,54,55
 131 93 131 93 171 155 c 1,46,47
60 32 m 1,56,57
 40 32 40 32 34 50 c 0,58,59
 21 86 21 86 75 126 c 0,60,61
 115 155 115 155 188 182 c 1,62,63
 206 214 206 214 225 247 c 0,64,65
 239 278 239 278 243 289 c 1,66,67
 194 380 194 380 195 436 c 2,68,-1
 195 438 l 2,69,70
 195 450 195 450 196.5 457 c 128,-1,71
 198 464 198 464 206 471.5 c 128,-1,72
 214 479 214 479 229 480 c 0,73,74
 250 482 250 482 264 463 c 0,75,76
 281 439 281 439 280.5 390.5 c 128,-1,77
 280 342 280 342 263 290 c 1,78,79
 274 269 274 269 288 250 c 0,80,81
 299 233 299 233 318 216 c 1,82,83
 435 242 435 242 467 213 c 0,84,85
 489 194 489 194 477 163 c 0,86,87
 468 139 468 139 445 137 c 0,88,89
 425 136 425 136 391 151 c 2,90,-1
 382 154 l 1,91,92
 337 176 337 176 313 196 c 1,93,94
 305 194 305 194 296 191.5 c 128,-1,95
 287 189 287 189 276.5 186.5 c 128,-1,96
 266 184 266 184 261 183 c 0,97,98
 253 181 253 181 228 175 c 0,99,100
 213 171 213 171 200 166 c 1,101,102
 150 84 150 84 111 53 c 0,103,104
 84 32 84 32 60 32 c 1,105,-1
 60 32 l 1,56,57
EndSplineSet
Validated: 549
EndChar

StartChar: pdf-import
Encoding: 62076 62076 64
Width: 512
GlyphClass: 2
Flags: W
LayerCount: 2
Fore
SplineSet
271 449 m 1,0,1
 267 459 267 459 264 463 c 0,2,3
 250 482 250 482 229 480 c 0,4,5
 214 479 214 479 206 471.5 c 128,-1,6
 198 464 198 464 197 457.5 c 128,-1,7
 196 451 196 451 195 438 c 1,8,9
 198 439 198 439 201 440 c 128,-1,10
 204 441 204 441 208 442 c 128,-1,11
 212 443 212 443 214 444 c 0,12,13
 215 454 215 454 218 457 c 128,-1,14
 221 460 221 460 231 461 c 2,15,-1
 232 461 l 2,16,17
 242 461 242 461 249 452 c 0,18,19
 249 450 249 450 250 449 c 0,20,21
 260 450 260 450 271 449 c 1,0,1
459 169 m 0,22,23
 454 156 454 156 444 156 c 0,24,25
 429 155 429 155 399 168 c 0,26,27
 398 168 398 168 395 170 c 128,-1,28
 392 172 392 172 390 172 c 0,29,30
 361 183 361 183 337 201 c 1,31,32
 432 220 432 220 455 199 c 0,33,34
 466 189 466 189 459 169 c 0,22,23
296 211 m 1,35,-1
 295 211 l 2,36,37
 288 209 288 209 256 201 c 0,38,39
 252 200 252 200 245 198 c 128,-1,40
 238 196 238 196 233 195 c 128,-1,41
 228 194 228 194 224 193 c 2,42,-1
 215 190 l 1,43,-1
 215 192 l 1,44,45
 237 231 237 231 241 238 c 0,46,47
 246 247 246 247 254 267 c 1,48,-1
 255 266 l 2,49,50
 259 260 259 260 265 250.5 c 128,-1,51
 271 241 271 241 272 239 c 0,52,53
 286 221 286 221 296 211 c 1,35,-1
171 155 m 1,54,55
 131 93 131 93 99 68 c 0,56,57
 80 51 80 51 60 51 c 0,58,59
 54 51 54 51 52 56 c 0,60,61
 44 79 44 79 86 111 c 0,62,63
 119 133 119 133 171 155 c 1,54,55
467 213 m 0,64,65
 435 242 435 242 318 216 c 1,66,67
 299 233 299 233 288 250 c 0,68,69
 274 269 274 269 263 290 c 1,70,71
 280 343 280 343 280 388 c 1,72,73
 268 390 268 390 261 390 c 1,74,75
 261 353 261 353 251 314 c 1,76,77
 233 351 233 351 223 385 c 1,78,79
 211 381 211 381 205 378 c 1,80,81
 219 333 219 333 243 289 c 1,82,83
 237 271 237 271 224 247 c 0,84,85
 210 219 210 219 188 182 c 1,86,87
 115 155 115 155 75 126 c 0,88,89
 21 86 21 86 34 50 c 0,90,91
 40 32 40 32 60 32 c 0,92,93
 84 32 84 32 111 53 c 0,94,95
 150 84 150 84 200 166 c 1,96,97
 213 171 213 171 228 175 c 0,98,99
 253 181 253 181 261 183 c 0,100,101
 266 184 266 184 276.5 186.5 c 128,-1,102
 287 189 287 189 296 191.5 c 128,-1,103
 305 194 305 194 313 196 c 1,104,105
 337 176 337 176 382 154 c 1,106,-1
 391 151 l 2,107,108
 425 136 425 136 445 137 c 0,109,110
 468 139 468 139 477 163 c 0,111,112
 489 194 489 194 467 213 c 0,64,65
137 282 m 1,113,-1
 142 283 l 1,114,-1
 140 278 l 1,115,-1
 119 219 l 1,116,-1
 118 214 l 1,117,-1
 115 218 l 1,118,-1
 70 263 l 1,119,-1
 66 266 l 1,120,-1
 71 267 l 1,121,-1
 137 282 l 1,113,-1
368 388 m 1,122,123
 319 431 319 431 253.5 429 c 128,-1,124
 188 427 188 427 142 381 c 0,125,126
 105 344 105 344 96 290 c 1,127,128
 83 287 83 287 38 276 c 2,129,-1
 32 275 l 1,130,-1
 37 271 l 1,131,-1
 123 184 l 1,132,-1
 127 180 l 1,133,-1
 129 186 l 1,134,-1
 166 301 l 1,135,-1
 168 307 l 1,136,-1
 162 306 l 2,137,138
 146 301 146 301 119 296 c 1,139,140
 128 337 128 337 157 366 c 0,141,142
 197 406 197 406 254 408 c 128,-1,143
 311 410 311 410 353 372 c 1,144,-1
 368 388 l 1,122,123
EndSplineSet
Validated: 553
EndChar

StartChar: pdf-export
Encoding: 62075 62075 65
Width: 512
GlyphClass: 2
Flags: W
LayerCount: 2
Fore
SplineSet
171 155 m 1,0,1
 131 93 131 93 99 68 c 0,2,3
 80 51 80 51 60 51 c 0,4,5
 54 51 54 51 52 56 c 0,6,7
 44 79 44 79 86 111 c 0,8,9
 119 133 119 133 171 155 c 1,0,1
215 190 m 1,10,-1
 215 192 l 1,11,-1
 215 191 l 1,12,13
 219 198 219 198 227.5 213.5 c 128,-1,14
 236 229 236 229 241 238 c 0,15,16
 244 243 244 243 248.5 253 c 128,-1,17
 253 263 253 263 255 267 c 2,18,-1
 255 266 l 1,19,20
 259 260 259 260 265 250.5 c 128,-1,21
 271 241 271 241 272 239 c 0,22,23
 286 221 286 221 296 211 c 1,24,-1
 295 211 l 2,25,26
 288 209 288 209 256 201 c 0,27,28
 252 200 252 200 245 198 c 128,-1,29
 238 196 238 196 233 195 c 128,-1,30
 228 194 228 194 224 193 c 2,31,-1
 215 190 l 1,10,-1
337 201 m 1,32,33
 432 220 432 220 455 199 c 0,34,35
 466 189 466 189 459 169 c 0,36,37
 454 156 454 156 444 156 c 0,38,39
 429 155 429 155 399 168 c 0,40,41
 398 168 398 168 395 170 c 128,-1,42
 392 172 392 172 390 172 c 0,43,44
 361 183 361 183 337 201 c 1,32,33
188 182 m 1,45,46
 115 155 115 155 75 126 c 0,47,48
 21 86 21 86 34 50 c 0,49,50
 40 32 40 32 60 32 c 0,51,52
 84 32 84 32 111 53 c 0,53,54
 150 84 150 84 200 166 c 1,55,56
 213 171 213 171 228 175 c 0,57,58
 253 181 253 181 261 183 c 0,59,60
 266 184 266 184 276.5 186.5 c 128,-1,61
 287 189 287 189 296 191.5 c 128,-1,62
 305 194 305 194 313 196 c 1,63,64
 337 176 337 176 382 154 c 1,65,-1
 391 151 l 2,66,67
 425 136 425 136 445 137 c 0,68,69
 468 139 468 139 477 163 c 0,70,71
 489 194 489 194 467 213 c 0,72,73
 435 242 435 242 318 216 c 1,74,75
 299 233 299 233 288 250 c 0,76,77
 274 269 274 269 263 290 c 1,78,79
 271 313 271 313 274 333 c 1,80,-1
 273 333 l 1,81,-1
 275 335 l 1,82,83
 277 345 277 345 279 363 c 0,84,85
 276 366 276 366 269 364 c 2,86,-1
 260 361 l 1,87,88
 257 337 257 337 251 314 c 1,89,90
 242 331 242 331 235 349 c 1,91,92
 228 344 228 344 220 337 c 1,93,94
 237 298 237 298 243 289 c 1,95,96
 237 271 237 271 224 247 c 0,97,98
 210 219 210 219 188 182 c 1,45,46
278 426 m 1,99,100
 273 449 273 449 264 463 c 0,101,102
 250 482 250 482 229 480 c 0,103,104
 214 479 214 479 206 471.5 c 128,-1,105
 198 464 198 464 196.5 457 c 128,-1,106
 195 450 195 450 195 438 c 2,107,-1
 195 436 l 2,108,109
 195 420 195 420 200 397 c 1,110,111
 209 403 209 403 217 407 c 1,112,113
 214 424 214 424 214 436 c 2,114,-1
 214 437 l 2,115,116
 214 452 214 452 216.5 456 c 128,-1,117
 219 460 219 460 231 461 c 2,118,-1
 232 461 l 2,119,120
 242 461 242 461 249 452 c 128,-1,121
 256 443 256 443 259 423 c 1,122,123
 277 426 277 426 278 426 c 1,99,100
351 359 m 1,124,-1
 347 355 l 1,125,-1
 352 354 l 1,126,-1
 414 344 l 1,127,-1
 419 343 l 1,128,-1
 417 347 l 1,129,-1
 400 408 l 1,130,-1
 399 413 l 1,131,-1
 396 409 l 1,132,-1
 351 359 l 1,124,-1
144 211 m 1,133,134
 130 275 130 275 164 331 c 128,-1,135
 198 387 198 387 261 404 c 0,136,137
 312 418 312 418 363 399 c 1,138,139
 369 405 369 405 376 412.5 c 128,-1,140
 383 420 383 420 391 429 c 128,-1,141
 399 438 399 438 404 443 c 2,142,-1
 408 447 l 1,143,-1
 410 441 l 1,144,-1
 442 323 l 1,145,-1
 444 318 l 1,146,-1
 438 319 l 1,147,-1
 319 343 l 1,148,-1
 313 345 l 1,149,-1
 317 349 l 2,150,151
 337 371 337 371 347 381 c 1,152,153
 308 394 308 394 267 383 c 0,154,155
 212 368 212 368 182.5 319.5 c 128,-1,156
 153 271 153 271 165 216 c 1,157,-1
 144 211 l 1,133,134
EndSplineSet
Validated: 549
EndChar

StartChar: piks
Encoding: 62077 62077 66
Width: 512
GlyphClass: 2
Flags: W
LayerCount: 2
Fore
SplineSet
376 396 m 128,-1,1
 376 369 376 369 357 350 c 128,-1,2
 338 331 338 331 311 331 c 128,-1,3
 284 331 284 331 264.5 350 c 128,-1,4
 245 369 245 369 245 396 c 128,-1,5
 245 423 245 423 264.5 442 c 128,-1,6
 284 461 284 461 311 461 c 128,-1,7
 338 461 338 461 357 442 c 128,-1,0
 376 423 376 423 376 396 c 128,-1,1
395 396 m 128,-1,9
 395 430 395 430 370.5 455 c 128,-1,10
 346 480 346 480 311 480 c 128,-1,11
 276 480 276 480 251.5 455.5 c 128,-1,12
 227 431 227 431 227 396 c 128,-1,13
 227 361 227 361 251.5 336.5 c 128,-1,14
 276 312 276 312 311 312 c 128,-1,15
 346 312 346 312 370.5 337 c 128,-1,8
 395 362 395 362 395 396 c 128,-1,9
337 412 m 0,16,17
 337 400 337 400 322 387 c 2,18,-1
 307 375 l 1,19,-1
 307 374 l 1,20,-1
 336 374 l 1,21,-1
 335 361 l 1,22,-1
 289 362 l 1,23,-1
 289 374 l 1,24,-1
 310 393 l 2,25,26
 317 400 317 400 318 402 c 0,27,28
 321 406 321 406 321 411 c 0,29,30
 321 420 321 420 311 421 c 0,31,32
 304 421 304 421 293 414 c 1,33,-1
 294 427 l 1,34,35
 303 433 303 433 314 433 c 128,-1,36
 325 433 325 433 331 427 c 128,-1,37
 337 421 337 421 337 412 c 0,16,17
357 395 m 0,38,39
 358 414 358 414 344.5 428 c 128,-1,40
 331 442 331 442 311 443 c 0,41,42
 292 443 292 443 278 429.5 c 128,-1,43
 264 416 264 416 264 397 c 0,44,45
 263 378 263 378 276.5 364 c 128,-1,46
 290 350 290 350 310 349 c 0,47,48
 330 349 330 349 343.5 362.5 c 128,-1,49
 357 376 357 376 357 395 c 0,38,39
439 249 m 1,50,51
 426 255 426 255 412 255 c 0,52,53
 404 255 404 255 392 251 c 0,54,55
 384 247 384 247 379 239 c 128,-1,56
 374 231 374 231 374 223 c 0,57,58
 374 214 374 214 379 207 c 0,59,60
 384 199 384 199 393 193 c 0,61,62
 397 191 397 191 402 187 c 2,63,-1
 407 183 l 2,64,65
 410 178 410 178 410 173 c 0,66,67
 410 167 410 167 405 162 c 0,68,69
 399 158 399 158 391 158 c 0,70,71
 384 158 384 158 377 161 c 0,72,73
 369 164 369 164 364 168 c 1,74,-1
 361 150 l 1,75,76
 368 146 368 146 375 145 c 0,77,78
 385 143 385 143 391 143 c 0,79,80
 403 143 403 143 411 147 c 0,81,82
 418 149 418 149 425 158 c 0,83,84
 429 165 429 165 429 175 c 128,-1,85
 429 185 429 185 425 190 c 0,86,87
 420 198 420 198 409 205 c 0,88,89
 399 211 399 211 397 215 c 0,90,91
 394 220 394 220 394 225 c 128,-1,92
 394 230 394 230 396 232 c 0,93,94
 398 236 398 236 402 237 c 0,95,96
 405 239 405 239 412 239 c 0,97,98
 420 239 420 239 424 237 c 0,99,100
 430 236 430 236 436 232 c 1,101,-1
 439 249 l 1,50,51
346 253 m 1,102,-1
 302 207 l 1,103,-1
 298 202 l 1,104,-1
 308 253 l 1,105,-1
 290 253 l 1,106,-1
 267 145 l 1,107,-1
 285 145 l 1,108,-1
 297 198 l 2,109,110
 298 197 298 197 299 194.5 c 128,-1,111
 300 192 300 192 300 191 c 2,112,-1
 327 145 l 1,113,-1
 349 145 l 1,114,-1
 316 200 l 1,115,-1
 369 253 l 1,116,-1
 346 253 l 1,102,-1
263 253 m 1,117,-1
 245 253 l 1,118,-1
 222 145 l 1,119,-1
 241 145 l 1,120,-1
 263 253 l 1,117,-1
192 205 m 0,121,122
 184 199 184 199 172 199 c 2,123,-1
 159 199 l 1,124,-1
 167 238 l 1,125,-1
 180 238 l 2,126,127
 189 238 189 238 194 233 c 0,128,129
 199 230 199 230 199 222 c 0,130,131
 199 212 199 212 192 205 c 0,121,122
209 245 m 0,132,133
 199 253 199 253 184 253 c 2,134,-1
 152 253 l 1,135,-1
 129 145 l 1,136,-1
 148 145 l 1,137,-1
 156 184 l 1,138,-1
 172 184 l 2,139,140
 185 184 185 184 197 189 c 0,141,142
 206 193 206 193 213 203 c 0,143,144
 218 213 218 213 218 223 c 0,145,146
 218 237 218 237 209 245 c 0,132,133
210 329 m 2,147,148
 214 337 214 337 211 350 c 0,149,150
 210 359 210 359 200 381 c 2,151,-1
 199 383 l 2,152,153
 199 384 199 384 197.5 386.5 c 128,-1,154
 196 389 196 389 195 390 c 2,155,-1
 187 409 l 1,156,-1
 178 391 l 2,157,158
 130 289 130 289 69 279 c 0,159,160
 58 278 58 278 42 275 c 2,161,-1
 32 274 l 1,162,-1
 32 218 l 1,163,-1
 51 218 l 1,164,-1
 51 257 l 1,165,166
 63 259 63 259 72 260 c 0,167,168
 135 271 135 271 186 365 c 1,169,170
 192 350 192 350 193 347 c 0,171,172
 194 341 194 341 192 333 c 2,173,-1
 186 305 l 1,174,-1
 205 309 l 1,175,-1
 210 329 l 2,147,148
480 236 m 2,176,-1
 480 239 l 2,177,178
 479 242 479 242 478 246 c 128,-1,179
 477 250 477 250 474.5 255.5 c 128,-1,180
 472 261 472 261 469 267 c 128,-1,181
 466 273 466 273 461.5 279.5 c 128,-1,182
 457 286 457 286 450 292 c 128,-1,183
 443 298 443 298 435 304 c 128,-1,184
 427 310 427 310 415.5 315 c 128,-1,185
 404 320 404 320 391 324 c 2,186,-1
 386 326 l 1,187,-1
 382 322 l 2,188,189
 351 293 351 293 311 293 c 0,190,191
 266 293 266 293 235 327 c 0,192,193
 231 329 231 329 229 329 c 0,194,195
 220 329 220 329 220 319 c 0,196,197
 220 315 220 315 223 312 c 1,198,-1
 223 312 l 1,199,200
 258 275 258 275 311 275 c 0,201,202
 355 275 355 275 391 305 c 1,203,204
 420 296 420 296 437 278 c 128,-1,205
 454 260 454 260 457.5 249.5 c 128,-1,206
 461 239 461 239 461 234 c 2,207,-1
 462 235 l 1,208,-1
 461 234 l 1,209,210
 464 195 464 195 448 153 c 0,211,212
 438 127 438 127 385 52 c 1,213,-1
 364 52 l 1,214,-1
 347 112 l 1,215,-1
 331 110 l 1,216,-1
 328 109 l 2,217,218
 289 100 289 100 257 100 c 2,219,-1
 255 100 l 2,220,221
 228 100 228 100 214 109 c 0,222,223
 204 113 204 113 198 115 c 2,224,-1
 182 120 l 1,225,-1
 175 105 l 2,226,227
 172 97 172 97 164 82 c 0,228,229
 158 67 158 67 150 51 c 1,230,-1
 144 51 l 1,231,232
 129 112 129 112 111 148.5 c 128,-1,233
 93 185 93 185 63 206 c 1,234,-1
 61 208 l 1,235,-1
 61 207 l 2,236,237
 59 209 59 209 57 209 c 0,238,239
 47 209 47 209 47 200 c 0,240,241
 47 196 47 196 51 192 c 0,242,243
 79 172 79 172 96 136.5 c 128,-1,244
 113 101 113 101 128 40 c 1,245,-1
 129 32 l 1,246,-1
 137 32 l 2,247,248
 146 34 146 34 156 32 c 2,249,-1
 162 32 l 1,250,-1
 165 38 l 2,251,252
 175 60 175 60 182 74 c 0,253,254
 190 92 190 92 192 98 c 1,255,256
 197 96 197 96 205 92 c 0,257,258
 227 81 227 81 255 81 c 2,259,-1
 257 81 l 2,260,261
 298 81 298 81 333 91 c 1,262,-1
 334 91 l 1,263,-1
 350 33 l 1,264,-1
 357 34 l 1,265,-1
 390 34 l 1,266,-1
 395 34 l 1,267,-1
 398 38 l 2,268,269
 453 113 453 113 466 146 c 0,270,271
 483 192 483 192 480 236 c 2,176,-1
153 267 m 1,272,273
 163 267 163 267 163 276 c 128,-1,274
 163 285 163 285 153 285 c 0,275,276
 144 285 144 285 144 276 c 128,-1,277
 144 267 144 267 153 267 c 1,278,-1
 153 267 l 1,272,273
EndSplineSet
Validated: 37
EndChar

StartChar: gv-cat
Encoding: 62078 62078 67
Width: 512
GlyphClass: 2
Flags: W
LayerCount: 2
Fore
SplineSet
194 414 m 1,0,1
 191 408 191 408 191 407 c 2,2,-1
 191 399 l 1,3,-1
 176 412 l 1,4,-1
 194 414 l 1,0,1
215 400 m 1,5,-1
 215 399 l 2,6,7
 214 399 214 399 212.5 398.5 c 128,-1,8
 211 398 211 398 205.5 397 c 128,-1,9
 200 396 200 396 195 398 c 1,10,11
 198 404 198 404 198 405 c 0,12,13
 200 411 200 411 198 413 c 1,14,15
 203 411 203 411 207 408 c 128,-1,16
 211 405 211 405 213 402 c 2,17,-1
 215 400 l 1,5,-1
242 413 m 1,18,19
 241 411 241 411 241 405 c 0,20,21
 242 402 242 402 244 398 c 2,22,-1
 225 400 l 1,23,24
 231 409 231 409 242 413 c 1,18,19
248 399 m 1,25,26
 248 400 248 400 248 401 c 0,27,28
 249 405 249 405 248 407 c 0,29,30
 248 408 248 408 245 414 c 1,31,-1
 264 412 l 1,32,33
 258 403 258 403 248 399 c 1,25,26
314 312 m 128,-1,35
 306 320 306 320 306 333 c 0,36,37
 306 347 306 347 315 356 c 0,38,39
 323 364 323 364 336 364 c 0,40,41
 348 364 348 364 354 359 c 2,42,-1
 358 357 l 1,43,-1
 358 377 l 1,44,-1
 357 378 l 1,45,46
 345 382 345 382 334 382 c 0,47,48
 314 382 314 382 300 368 c 128,-1,49
 286 354 286 354 286 333 c 0,50,51
 286 314 286 314 299 299 c 0,52,53
 311 287 311 287 331 287 c 0,54,55
 348 287 348 287 357 292 c 2,56,-1
 358 293 l 1,57,-1
 358 312 l 1,58,-1
 354 310 l 2,59,60
 346 304 346 304 334 304 c 128,-1,34
 322 304 322 304 314 312 c 128,-1,35
408 318 m 1,61,-1
 408 316 l 2,62,63
 408 310 408 310 404 306 c 0,64,65
 401 302 401 302 395 302 c 0,66,67
 391 302 391 302 389 304 c 0,68,69
 387 305 387 305 387 309 c 0,70,71
 387 312 387 312 389 314 c 0,72,73
 390 315 390 315 397 317 c 2,74,-1
 408 318 l 1,61,-1
426 288 m 1,75,-1
 426 331 l 2,76,77
 426 357 426 357 400 357 c 0,78,79
 386 357 386 357 376 350 c 1,80,-1
 375 350 l 1,81,-1
 375 331 l 1,82,-1
 379 334 l 2,83,84
 386 341 386 341 397 341 c 0,85,86
 407 341 407 341 408 332 c 1,87,-1
 391 330 l 2,88,89
 369 327 369 327 369 307 c 0,90,91
 369 299 369 299 374 292 c 0,92,93
 381 287 381 287 391 287 c 128,-1,94
 401 287 401 287 408 294 c 1,95,-1
 408 288 l 1,96,-1
 426 288 l 1,75,-1
465 311 m 2,97,-1
 465 339 l 1,98,-1
 480 339 l 1,99,-1
 480 355 l 1,100,-1
 465 355 l 1,101,-1
 465 374 l 1,102,-1
 446 369 l 1,103,-1
 446 355 l 1,104,-1
 436 355 l 1,105,-1
 436 339 l 1,106,-1
 446 339 l 1,107,-1
 446 306 l 2,108,109
 446 287 446 287 467 287 c 0,110,111
 473 287 473 287 479 289 c 2,112,-1
 480 290 l 1,113,-1
 480 307 l 1,114,-1
 476 304 l 2,115,116
 475 303 475 303 471 303 c 128,-1,117
 467 303 467 303 466 304 c 2,118,-1
 466 306 l 2,119,120
 465 309 465 309 465 311 c 2,97,-1
313 193 m 1,121,-1
 293 193 l 1,122,-1
 268 119 l 1,123,-1
 268 116 l 2,124,125
 267 117 267 117 267 119 c 2,126,-1
 243 193 l 1,127,-1
 242 193 l 1,128,-1
 222 193 l 1,129,-1
 257 94 l 1,130,-1
 277 94 l 1,131,-1
 312 192 l 1,132,-1
 313 193 l 1,121,-1
216 101 m 1,133,-1
 217 101 l 1,134,-1
 217 149 l 1,135,-1
 178 149 l 1,136,-1
 178 133 l 1,137,-1
 198 133 l 1,138,-1
 198 112 l 1,139,140
 192 109 192 109 182 109 c 0,141,142
 168 109 168 109 159 118 c 0,143,144
 151 128 151 128 151 143 c 0,145,146
 151 159 151 159 161 169 c 0,147,148
 170 179 170 179 186 179 c 0,149,150
 198 179 198 179 212 172 c 1,151,-1
 213 170 l 1,152,-1
 213 190 l 1,153,154
 200 195 200 195 185 195 c 0,155,156
 162 195 162 195 147 180 c 128,-1,157
 132 165 132 165 132 142 c 128,-1,158
 132 119 132 119 146 106 c 0,159,160
 160 92 160 92 181 92 c 0,161,162
 201 92 201 92 216 101 c 1,133,-1
262 350 m 1,163,-1
 262 350 l 1,164,165
 287 370 287 370 287 404 c 0,166,167
 287 419 287 419 279 435 c 1,168,169
 291 452 291 452 296 466 c 2,170,-1
 300 480 l 1,171,-1
 286 478 l 2,172,173
 267 476 267 476 244 465 c 1,174,175
 232 470 232 470 219 470 c 2,176,-1
 218 470 l 2,177,178
 208 470 208 470 196 465 c 1,179,180
 170 477 170 477 154 479 c 2,181,-1
 141 480 l 1,182,-1
 144 467 l 2,183,184
 149 452 149 452 161 435 c 1,185,186
 153 419 153 419 153 404 c 0,187,188
 153 368 153 368 178 350 c 1,189,190
 177 330 177 330 171.5 314.5 c 128,-1,191
 166 299 166 299 159.5 290 c 128,-1,192
 153 281 153 281 138 262 c 2,193,-1
 137 261 l 2,194,195
 119 245 119 245 108.5 213.5 c 128,-1,196
 98 182 98 182 97 153 c 0,197,198
 97 128 97 128 107 101 c 0,199,200
 109 94 109 94 116 94 c 0,201,202
 125 94 125 94 125 103 c 0,203,204
 125 105 125 105 124 106 c 2,205,-1
 125 106 l 1,206,207
 115 129 115 129 115 153 c 0,208,209
 115 176 115 176 125.5 205 c 128,-1,210
 136 234 136 234 150 247 c 2,211,-1
 153 250 l 2,212,213
 168 269 168 269 175.5 280 c 128,-1,214
 183 291 183 291 189.5 309 c 128,-1,215
 196 327 196 327 197 349 c 2,216,-1
 197 359 l 1,217,-1
 189 365 l 2,218,219
 172 379 172 379 172 404 c 0,220,221
 172 414 172 414 177 426 c 2,222,-1
 183 436 l 1,223,-1
 176 445 l 2,224,225
 174 449 174 449 170 455 c 1,226,227
 182 451 182 451 188 448 c 2,228,-1
 195 445 l 1,229,-1
 202 448 l 2,230,231
 211 451 211 451 218 451 c 2,232,-1
 220 451 l 1,233,-1
 222 451 l 2,234,235
 231 451 231 451 238 448 c 2,236,-1
 245 445 l 1,237,-1
 252 448 l 2,238,239
 258 451 258 451 270 455 c 1,240,241
 269 453 269 453 267 449.5 c 128,-1,242
 265 446 265 446 264 445 c 2,243,-1
 257 436 l 1,244,-1
 263 426 l 2,245,246
 268 414 268 414 268 404 c 0,247,248
 268 378 268 378 250 365 c 2,249,-1
 243 359 l 1,250,-1
 243 349 l 2,251,252
 244 317 244 317 254 297.5 c 128,-1,253
 264 278 264 278 288 250 c 1,254,-1
 289 248 l 1,255,256
 304 234 304 234 314 205.5 c 128,-1,257
 324 177 324 177 324 153 c 0,258,259
 324 108 324 108 298 76 c 0,260,261
 291 69 291 69 281 63 c 0,262,263
 280 62 280 62 269 58 c 0,264,265
 240 50 240 50 222 50 c 0,266,267
 200 50 200 50 171 58 c 0,268,269
 163 61 163 61 158 64 c 0,270,271
 146 70 146 70 142 75 c 2,272,-1
 140 79 l 2,273,274
 137 87 137 87 128 85 c 0,275,276
 99 74 99 74 76 88 c 0,277,278
 55 100 55 100 52 129 c 0,279,280
 47 167 47 167 69 201 c 0,281,282
 82 221 82 221 85 233 c 0,283,284
 89 255 89 255 71 281 c 0,285,286
 57 305 57 305 59 318 c 0,287,288
 64 341 64 341 78 345 c 0,289,290
 96 349 96 349 107 338 c 0,291,292
 110 330 110 330 118 332 c 0,293,294
 127 334 127 334 125 343 c 0,295,296
 124 352 124 352 110 358.5 c 128,-1,297
 96 365 96 365 83 364 c 0,298,299
 76 364 76 364 68.5 361.5 c 128,-1,300
 61 359 61 359 52.5 348.5 c 128,-1,301
 44 338 44 338 41 321 c 0,302,303
 37 302 37 302 55 271 c 0,304,305
 69 250 69 250 66 237 c 0,306,307
 64 227 64 227 53 211 c 0,308,309
 28 170 28 170 33 126 c 0,310,311
 38 89 38 89 66 72 c 0,312,313
 82 62 82 62 105 62 c 0,314,315
 117 62 117 62 127 65 c 1,316,-1
 130 62 l 1,317,-1
 133 59 l 1,318,319
 129 55 129 55 129 50 c 0,320,321
 129 44 129 44 134 39 c 0,322,323
 140 33 140 33 148 33 c 2,324,-1
 149 33 l 2,325,326
 158 33 158 33 164 41 c 1,327,328
 186 32 186 32 221 32 c 0,329,330
 231 32 231 32 245 34 c 128,-1,331
 259 36 259 36 268 38 c 2,332,-1
 277 41 l 1,333,334
 285 33 285 33 291 33 c 0,335,336
 311 33 311 33 311 50 c 0,337,338
 311 52 311 52 307 60 c 1,339,-1
 310 61 l 1,340,-1
 311 62 l 2,341,342
 342 95 342 95 342 153 c 0,343,344
 342 181 342 181 331 213 c 128,-1,345
 320 245 320 245 302 262 c 0,346,347
 280 288 280 288 271.5 305 c 128,-1,348
 263 322 263 322 262 350 c 1,349,-1
 262 350 l 1,163,-1
EndSplineSet
Validated: 549
EndChar

StartChar: deleatur-kz
Encoding: 96 96 68
Width: 512
GlyphClass: 2
Flags: W
LayerCount: 2
Fore
SplineSet
246 461 m 0,0,1
 226 461 226 461 214 450 c 0,2,3
 187 429 187 429 195 391 c 0,4,5
 201 364 201 364 221.5 345.5 c 128,-1,6
 242 327 242 327 266 319 c 128,-1,7
 290 311 290 311 301 307 c 1,8,9
 301 309 301 309 301.5 312.5 c 128,-1,10
 302 316 302 316 303 318 c 0,11,12
 321 429 321 429 270 455 c 0,13,14
 259 461 259 461 246 461 c 0,0,1
314 32 m 1,15,16
 303 32 303 32 287 36 c 0,17,18
 248 50 248 50 250 89 c 0,19,20
 250 98 250 98 260 98 c 0,21,22
 269 98 269 98 269 88 c 0,23,24
 267 64 267 64 293 54 c 0,25,26
 319 45 319 45 353 59 c 128,-1,27
 387 73 387 73 415 112 c 0,28,29
 438 147 438 147 425 185 c 0,30,31
 406 242 406 242 313 282 c 1,32,33
 293 215 293 215 251 152 c 128,-1,34
 209 89 209 89 169 88 c 0,35,36
 146 88 146 88 136 102 c 0,37,38
 120 124 120 124 145 204 c 0,39,40
 167 280 167 280 156 294 c 0,41,42
 149 301 149 301 137 301 c 0,43,44
 101 301 101 301 64 263 c 0,45,46
 58 256 58 256 51 263 c 0,47,48
 44 269 44 269 51 276 c 0,49,50
 90 319 90 319 137 319 c 0,51,52
 160 319 160 319 172 305 c 0,53,54
 179 294 179 294 179 275.5 c 128,-1,55
 179 257 179 257 175.5 242 c 128,-1,56
 172 227 172 227 163 199 c 0,57,58
 140 128 140 128 151 113 c 0,59,60
 154 107 154 107 169 107 c 0,61,62
 199 107 199 107 238.5 167 c 128,-1,63
 278 227 278 227 296 289 c 0,64,65
 294 290 294 290 281 294.5 c 128,-1,66
 268 299 268 299 260 302 c 0,67,68
 232 311 232 311 208 333 c 128,-1,69
 184 355 184 355 177 387 c 0,70,71
 166 437 166 437 203 465 c 0,72,73
 239 493 239 493 279 472 c 0,74,75
 342 440 342 440 321 315 c 0,76,77
 321 308 321 308 318 300 c 1,78,79
 422 256 422 256 443 191 c 0,80,81
 459 143 459 143 430 101 c 0,82,83
 381 32 381 32 314 32 c 1,84,-1
 314 32 l 1,15,16
EndSplineSet
Validated: 549
EndChar

StartChar: fehlt-noch-kz
Encoding: 180 180 69
Width: 512
GlyphClass: 2
Flags: W
LayerCount: 2
Fore
SplineSet
357 319 m 1,0,1
 352 305 352 305 341 276 c 128,-1,2
 330 247 330 247 327 240 c 1,3,4
 286 229 286 229 248 213 c 1,5,6
 242 231 242 231 228 265 c 1,7,8
 298 300 298 300 357 319 c 1,0,1
255 195 m 1,9,10
 299 213 299 213 320 219 c 1,11,12
 305 177 305 177 280 99 c 1,13,14
 273 137 273 137 255 195 c 1,9,10
480 472 m 1,15,16
 478 482 478 482 469 480 c 0,17,18
 424 471 424 471 367 341 c 1,19,20
 314 326 314 326 220 282 c 1,21,22
 162 412 162 412 114 428 c 0,23,24
 77 440 77 440 33 365 c 0,25,26
 30 356 30 356 37 352 c 0,27,28
 46 348 46 348 49 356 c 0,29,30
 63 379 63 379 80 396.5 c 128,-1,31
 97 414 97 414 108 410 c 0,32,33
 147 397 147 397 203 275 c 1,34,35
 161 255 161 255 67 204 c 0,36,37
 60 200 60 200 63 191 c 0,38,39
 66 186 66 186 71 186 c 0,40,41
 72 186 72 186 76 188 c 0,42,43
 143 226 143 226 211 257 c 1,44,-1
 232 206 l 1,45,46
 137 166 137 166 79 131 c 0,47,48
 71 128 71 128 75 119 c 0,49,50
 78 114 78 114 83 114 c 0,51,52
 86 114 86 114 88 115 c 0,53,54
 160 155 160 155 238 188 c 1,55,56
 273 88 273 88 264 50 c 0,57,58
 261 35 261 35 270 33 c 0,59,60
 271 32 271 32 274 32 c 0,61,62
 279 32 279 32 288 63 c 0,63,64
 326 184 326 184 341 225 c 1,65,66
 392 237 392 237 412 229 c 0,67,68
 422 225 422 225 425 215 c 0,69,70
 428 207 428 207 437 209 c 0,71,72
 446 213 446 213 443 221 c 0,73,74
 439 238 439 238 419 246 c 0,75,76
 395 256 395 256 349 246 c 1,77,78
 367 295 367 295 380 325 c 1,79,80
 411 334 411 334 427 329 c 0,81,82
 431 328 431 328 431 325 c 0,83,84
 434 317 434 317 443 319 c 0,85,86
 451 322 451 322 449 331 c 0,87,88
 444 343 444 343 433 346 c 0,89,90
 418 352 418 352 389 346 c 1,91,92
 439 454 439 454 472 462 c 0,93,94
 482 462 482 462 480 472 c 1,95,-1
 480 472 l 1,15,16
EndSplineSet
Validated: 553
EndChar

StartChar: jw1
Encoding: 57349 57349 70
Width: 512
GlyphClass: 2
Flags: W
LayerCount: 2
Fore
SplineSet
305 268 m 0,0,1
 364 196 364 196 361 159 c 0,2,3
 360 144 360 144 347 135 c 1,4,5
 340 183 340 183 291 253 c 0,6,7
 292 254 292 254 295 260 c 2,8,-1
 296 263 l 1,9,-1
 302 272 l 2,10,11
 304 270 304 270 305 268 c 0,0,1
289 288 m 1,12,13
 280 272 280 272 280 271 c 2,14,-1
 279 270 l 1,15,16
 276 275 276 275 272 281 c 2,17,-1
 266 290 l 2,18,19
 267 292 267 292 277 307 c 1,20,21
 278 305 278 305 281 300.5 c 128,-1,22
 284 296 284 296 285 294 c 2,23,-1
 289 288 l 1,12,13
276 342 m 1,24,25
 268 354 268 354 265 360 c 1,26,27
 280 388 280 388 280 403 c 0,28,29
 282 427 282 427 269 438 c 0,30,31
 262 443 262 443 254 443 c 128,-1,32
 246 443 246 443 239 438 c 0,33,34
 226 427 226 427 228 403 c 0,35,36
 228 388 228 388 243 360 c 0,37,38
 242 357 242 357 240 354 c 128,-1,39
 238 351 238 351 235.5 347.5 c 128,-1,40
 233 344 233 344 232 341 c 1,41,42
 215 373 215 373 211 388 c 0,43,44
 203 422 203 422 221 445 c 0,45,46
 234 461 234 461 255 461 c 0,47,48
 280 461 280 461 294 441 c 0,49,50
 310 415 310 415 299 388 c 0,51,52
 292 370 292 370 276 342 c 1,24,25
226 297 m 2,53,-1
 232 306 l 1,54,55
 239 298 239 298 243 289 c 1,56,57
 235 275 235 275 230 267 c 1,58,59
 230 268 230 268 229.5 268 c 128,-1,60
 229 268 229 268 229 269 c 2,61,-1
 227 273 l 2,62,63
 225 277 225 277 219 287 c 1,64,65
 223 293 223 293 226 297 c 2,53,-1
219 248 m 1,66,67
 180 182 180 182 172 132 c 0,68,69
 171 132 171 132 171 131 c 1,70,71
 154 139 154 139 151 159 c 0,72,73
 147 189 147 189 204 265 c 0,74,75
 204 266 204 266 205 267.5 c 128,-1,76
 206 269 206 269 207 270 c 2,77,-1
 210 264 l 1,78,-1
 213 260 l 1,79,-1
 219 248 l 1,66,67
190 127 m 1,80,-1
 190 130 l 1,81,82
 196 170 196 170 228 226 c 1,83,84
 242 187 242 187 235 163 c 0,85,86
 225 130 225 130 197 127 c 2,87,-1
 190 127 l 1,80,-1
270 251 m 1,88,89
 258 227 258 227 254 204 c 1,90,91
 251 221 251 221 240 247 c 1,92,93
 245 256 245 256 255 272 c 1,94,-1
 257 270 l 2,95,96
 265 258 265 258 270 251 c 1,88,89
254 380 m 1,97,98
 246 396 246 396 246 403 c 0,99,100
 246 420 246 420 251 423 c 1,101,-1
 251 424 l 1,102,-1
 253 424 l 1,103,-1
 254 424 l 1,104,-1
 256 424 l 2,105,106
 257 424 257 424 257 423 c 0,107,108
 262 418 262 418 261 403 c 0,109,110
 261 398 261 398 254 380 c 1,97,98
265 324 m 0,111,112
 263 321 263 321 259.5 315 c 128,-1,113
 256 309 256 309 254 306 c 1,114,115
 252 309 252 309 248.5 315 c 128,-1,116
 245 321 245 321 243 324 c 0,117,118
 251 336 251 336 254 342 c 1,119,120
 256 339 256 339 259.5 333 c 128,-1,121
 263 327 263 327 265 324 c 0,111,112
312 127 m 0,122,123
 281 133 281 133 273 163 c 0,124,125
 266 191 266 191 282 233 c 1,126,127
 325 168 325 168 330 127 c 1,128,129
 321 126 321 126 312 127 c 0,122,123
190 109 m 1,130,-1
 198 109 l 2,131,132
 219 110 219 110 233.5 125 c 128,-1,133
 248 140 248 140 253 158 c 0,134,135
 253 161 253 161 254 162 c 1,136,137
 254 159 254 159 255 158 c 0,138,139
 260 139 260 139 274.5 126 c 128,-1,140
 289 113 289 113 308 109 c 0,141,142
 313 108 313 108 321 108 c 2,143,-1
 329 108 l 1,144,145
 324 91 324 91 313 78 c 0,146,147
 288 51 288 51 255 51 c 0,148,149
 226 51 226 51 206 76 c 0,150,151
 193 89 193 89 190 109 c 1,130,-1
450 313 m 1,152,153
 452 345 452 345 431 364 c 0,154,155
 408 382 408 382 372 375 c 0,156,157
 340 368 340 368 300 306 c 1,158,159
 299 308 299 308 294.5 314.5 c 128,-1,160
 290 321 290 321 287 325 c 1,161,162
 305 354 305 354 316 380 c 0,163,164
 332 418 332 418 310 451 c 0,165,166
 290 480 290 480 255 480 c 0,167,168
 225 480 225 480 207 457 c 0,169,170
 183 426 183 426 193 384 c 0,171,172
 200 356 200 356 221 324 c 0,173,174
 219 320 219 320 215 314.5 c 128,-1,175
 211 309 211 309 210 307 c 0,176,177
 210 306 210 306 209.5 306 c 128,-1,178
 209 306 209 306 209 305 c 1,179,180
 171 367 171 367 135 375 c 0,181,182
 100 382 100 382 77 364 c 0,183,184
 56 345 56 345 58 313 c 0,185,186
 60 285 60 285 77 269 c 0,187,188
 90 257 90 257 107 259 c 0,189,190
 121 260 121 260 132 269.5 c 128,-1,191
 143 279 143 279 144 295 c 0,192,193
 145 309 145 309 139 319 c 128,-1,194
 133 329 133 329 124 331 c 2,195,-1
 118 331 l 2,196,197
 104 331 104 331 104 317 c 128,-1,198
 104 303 104 303 118 303 c 0,199,200
 121 303 121 303 125 305 c 1,201,202
 125 304 125 304 125.5 301 c 128,-1,203
 126 298 126 298 126 296 c 0,204,205
 125 279 125 279 106 277 c 0,206,207
 97 277 97 277 89 283 c 0,208,209
 77 295 77 295 77 314 c 0,210,211
 75 338 75 338 89 350 c 0,212,213
 104 362 104 362 131 356 c 0,214,215
 161 350 161 350 197 288 c 0,216,217
 196 286 196 286 193 282 c 128,-1,218
 190 278 190 278 189 276 c 0,219,220
 128 195 128 195 133 156 c 0,221,222
 136 122 136 122 171 112 c 1,223,224
 174 86 174 86 192 63 c 0,225,226
 220 32 220 32 255 32 c 0,227,228
 296 32 296 32 326 65 c 0,229,230
 346 86 346 86 349 114 c 1,231,232
 354 116 354 116 358 120 c 0,233,234
 378 135 378 135 379 157 c 0,235,236
 383 204 383 204 319 280 c 0,237,238
 315 286 315 286 312 289 c 1,239,240
 350 351 350 351 376 356 c 0,241,242
 405 362 405 362 418 349 c 0,243,244
 433 338 433 338 431 314 c 0,245,246
 429 293 429 293 418 283 c 0,247,248
 412 277 412 277 402 277 c 0,249,250
 382 279 382 279 382 296 c 0,251,252
 382 302 382 302 383 305 c 1,253,254
 387 303 387 303 389 303 c 0,255,256
 403 303 403 303 403 317 c 128,-1,257
 403 331 403 331 388 331 c 2,258,-1
 384 331 l 2,259,260
 375 329 375 329 368.5 319 c 128,-1,261
 362 309 362 309 363 295 c 0,262,263
 364 279 364 279 375 269.5 c 128,-1,264
 386 260 386 260 401 259 c 0,265,266
 416 257 416 257 431 269 c 0,267,268
 448 285 448 285 450 313 c 1,269,-1
 450 313 l 1,152,153
EndSplineSet
Validated: 41
EndChar

StartChar: jw2
Encoding: 57348 57348 71
Width: 512
GlyphClass: 2
Flags: W
LayerCount: 2
Fore
SplineSet
330 153 m 128,-1,1
 330 139 330 139 344 139 c 128,-1,2
 358 139 358 139 358 153 c 128,-1,3
 358 167 358 167 344 167 c 128,-1,0
 330 167 330 167 330 153 c 128,-1,1
151 181 m 1,4,5
 138 108 138 108 126 86 c 0,6,7
 106 50 106 50 80 50 c 0,8,9
 64 50 64 50 55 65 c 0,10,11
 43 87 43 87 62 119 c 0,12,13
 69 131 69 131 123 164 c 0,14,15
 128 167 128 167 138 173 c 128,-1,16
 148 179 148 179 151 181 c 1,4,5
480 446 m 1,17,18
 478 467 478 467 454 477 c 0,19,20
 432 485 432 485 419 474 c 0,21,22
 412 467 412 467 418 461 c 0,23,24
 423 454 423 454 431 460 c 0,25,26
 437 463 437 463 448 459 c 0,27,28
 460 455 460 455 461 444 c 0,29,30
 467 376 467 376 376 284 c 0,31,32
 364 271 364 271 334 245 c 0,33,34
 280 196 280 196 268 178 c 1,35,36
 265 196 265 196 270 245 c 0,37,38
 274 275 274 275 272.5 291.5 c 128,-1,39
 271 308 271 308 260 309 c 0,40,41
 254 310 254 310 250 304 c 0,42,43
 229 258 229 258 177 220 c 1,44,45
 185 266 185 266 194 297 c 0,46,47
 205 332 205 332 233 390 c 0,48,49
 254 433 254 433 260 453 c 0,50,51
 262 458 262 458 258 463 c 0,52,53
 248 476 248 476 92 467 c 0,54,55
 51 465 51 465 38 435 c 0,56,57
 28 406 28 406 50 384 c 0,58,59
 74 360 74 360 105 381 c 0,60,61
 129 398 129 398 119 417 c 0,62,63
 116 425 116 425 107 421 c 0,64,65
 97 417 97 417 103 409 c 0,66,67
 106 404 106 404 94 397 c 0,68,69
 78 383 78 383 64 397 c 0,70,71
 49 412 49 412 56 428 c 0,72,73
 62 446 62 446 93 448 c 0,74,75
 199 454 199 454 240 451 c 1,76,77
 230 426 230 426 216 398 c 0,78,79
 186 336 186 336 176 303 c 0,80,81
 167 275 167 275 156 207 c 0,82,83
 156 206 156 206 155 206 c 0,84,85
 141 196 141 196 113 180 c 0,86,87
 54 144 54 144 46 129 c 0,88,89
 22 88 22 88 39 55 c 0,90,91
 53 31 53 31 80 31 c 0,92,93
 117 33 117 33 142 77 c 0,94,95
 156 103 156 103 172 194 c 1,96,97
 226 230 226 230 253 271 c 1,98,99
 253 262 253 262 251 246 c 0,100,101
 246 206 246 206 248.5 181 c 128,-1,102
 251 156 251 156 265 152 c 0,103,104
 272 148 272 148 276 156 c 0,105,106
 289 179 289 179 347 231 c 0,107,108
 389 270 389 270 390 271 c 0,109,110
 486 370 486 370 480 446 c 1,111,-1
 480 446 l 1,17,18
EndSplineSet
Validated: 41
EndChar

StartChar: drucken-a4
Encoding: 62886 62886 72
Width: 512
GlyphClass: 2
Flags: W
LayerCount: 2
Fore
SplineSet
205 340 m 1,0,-1
 164 340 l 1,1,-1
 184 407 l 1,2,-1
 185 407 l 1,3,-1
 205 340 l 1,0,-1
239 293 m 1,4,-1
 197 423 l 1,5,-1
 174 423 l 1,6,-1
 132 293 l 1,7,-1
 150 293 l 1,8,-1
 160 326 l 1,9,-1
 210 326 l 1,10,-1
 220 293 l 1,11,-1
 239 293 l 1,4,-1
321 325 m 1,12,-1
 302 325 l 1,13,-1
 302 293 l 1,14,-1
 285 293 l 1,15,-1
 285 325 l 1,16,-1
 238 325 l 1,17,-1
 238 338 l 1,18,-1
 276 425 l 1,19,-1
 291 419 l 1,20,-1
 257 339 l 1,21,-1
 285 339 l 1,22,-1
 287 374 l 1,23,-1
 302 374 l 1,24,-1
 302 339 l 1,25,-1
 321 339 l 1,26,-1
 321 325 l 1,12,-1
349 292 m 1,27,-1
 349 425 l 1,28,-1
 294 480 l 1,29,-1
 107 480 l 1,30,-1
 107 292 l 1,31,-1
 125 292 l 1,32,-1
 125 461 l 1,33,-1
 284 461 l 1,34,-1
 331 415 l 1,35,-1
 331 292 l 1,36,-1
 349 292 l 1,27,-1
171 124 m 2,37,-1
 285 124 l 2,38,39
 295 124 295 124 295 134 c 128,-1,40
 295 144 295 144 285 144 c 2,41,-1
 171 144 l 2,42,43
 163 142 163 142 163 134 c 128,-1,44
 163 126 163 126 171 124 c 2,37,-1
171 87 m 1,45,-1
 248 87 l 2,46,47
 258 87 258 87 258 97 c 128,-1,48
 258 107 258 107 248 107 c 2,49,-1
 171 107 l 2,50,51
 163 105 163 105 163 97 c 0,52,53
 163 88 163 88 171 88 c 1,54,-1
 171 87 l 1,45,-1
480 135 m 1,55,-1
 480 246 l 2,56,57
 480 258 480 258 473 265 c 128,-1,58
 466 272 466 272 459 273 c 2,59,-1
 452 274 l 1,60,-1
 60 274 l 2,61,62
 59 274 59 274 57 274 c 128,-1,63
 55 274 55 274 50 272.5 c 128,-1,64
 45 271 45 271 41.5 268 c 128,-1,65
 38 265 38 265 35 259.5 c 128,-1,66
 32 254 32 254 32 246 c 2,67,-1
 32 135 l 2,68,69
 32 134 32 134 32 132 c 128,-1,70
 32 130 32 130 33.5 125 c 128,-1,71
 35 120 35 120 38 116.5 c 128,-1,72
 41 113 41 113 46.5 110 c 128,-1,73
 52 107 52 107 60 107 c 2,74,-1
 88 107 l 1,75,-1
 88 125 l 1,76,-1
 60 125 l 2,77,78
 56 125 56 125 54 127.5 c 128,-1,79
 52 130 52 130 52 132 c 2,80,-1
 51 135 l 1,81,-1
 51 246 l 2,82,83
 51 250 51 250 53.5 252 c 128,-1,84
 56 254 56 254 58 254 c 2,85,-1
 60 255 l 1,86,-1
 452 255 l 2,87,88
 461 255 461 255 461 246 c 2,89,-1
 461 135 l 2,90,91
 461 125 461 125 452 125 c 2,92,-1
 368 125 l 1,93,-1
 368 107 l 1,94,-1
 452 107 l 2,95,96
 464 107 464 107 471 114 c 128,-1,97
 478 121 478 121 479 128 c 2,98,-1
 480 135 l 1,55,-1
125 181 m 1,99,-1
 331 181 l 1,100,-1
 331 51 l 1,101,-1
 125 51 l 1,102,-1
 125 181 l 1,99,-1
379 190 m 0,103,104
 379 200 379 200 369 200 c 2,105,-1
 87 200 l 2,106,107
 79 198 79 198 79 190 c 0,108,109
 79 183 79 183 87 181 c 2,110,-1
 107 181 l 1,111,-1
 107 32 l 1,112,-1
 349 32 l 1,113,-1
 349 181 l 1,114,-1
 369 181 l 2,115,116
 379 181 379 181 379 190 c 0,103,104
425 222 m 1,117,118
 425 216 425 216 420.5 212 c 128,-1,119
 416 208 416 208 411 208 c 0,120,121
 405 208 405 208 401 212.5 c 128,-1,122
 397 217 397 217 397 222 c 0,123,124
 397 236 397 236 411 236 c 128,-1,125
 425 236 425 236 425 222 c 1,126,-1
 425 222 l 1,117,118
EndSplineSet
Validated: 517
EndChar

StartChar: drucken-etiketten
Encoding: 62891 62891 73
Width: 512
GlyphClass: 2
Flags: W
LayerCount: 2
Fore
SplineSet
331 419 m 2,0,1
 331 413 331 413 327.5 409.5 c 128,-1,2
 324 406 324 406 320 406 c 2,3,-1
 317 405 l 1,4,-1
 139 405 l 2,5,6
 133 405 133 405 129.5 408.5 c 128,-1,7
 126 412 126 412 126 416 c 2,8,-1
 125 419 l 1,9,-1
 125 447 l 2,10,11
 125 453 125 453 128.5 456.5 c 128,-1,12
 132 460 132 460 136 460 c 2,13,-1
 139 461 l 1,14,-1
 317 461 l 2,15,16
 323 461 323 461 326.5 457.5 c 128,-1,17
 330 454 330 454 330 450 c 2,18,-1
 331 447 l 1,19,-1
 331 419 l 2,0,1
348 414 m 2,20,-1
 348 452 l 2,21,22
 348 453 348 453 348 455 c 128,-1,23
 348 457 348 457 346.5 462 c 128,-1,24
 345 467 345 467 342 470.5 c 128,-1,25
 339 474 339 474 333.5 477 c 128,-1,26
 328 480 328 480 320 480 c 2,27,-1
 136 480 l 2,28,29
 135 480 135 480 133 480 c 128,-1,30
 131 480 131 480 126 478.5 c 128,-1,31
 121 477 121 477 117.5 474 c 128,-1,32
 114 471 114 471 111 465.5 c 128,-1,33
 108 460 108 460 108 452 c 2,34,-1
 108 414 l 2,35,36
 108 413 108 413 108 411 c 128,-1,37
 108 409 108 409 109.5 404 c 128,-1,38
 111 399 111 399 114 395.5 c 128,-1,39
 117 392 117 392 122.5 389 c 128,-1,40
 128 386 128 386 136 386 c 2,41,-1
 320 386 l 2,42,43
 321 386 321 386 323 386 c 128,-1,44
 325 386 325 386 330 387.5 c 128,-1,45
 335 389 335 389 338.5 392 c 128,-1,46
 342 395 342 395 345 400.5 c 128,-1,47
 348 406 348 406 348 414 c 2,20,-1
331 65 m 2,48,49
 331 59 331 59 327.5 55.5 c 128,-1,50
 324 52 324 52 320 52 c 2,51,-1
 317 51 l 1,52,-1
 139 51 l 2,53,54
 133 51 133 51 129.5 54.5 c 128,-1,55
 126 58 126 58 126 62 c 2,56,-1
 125 65 l 1,57,-1
 125 93 l 2,58,59
 125 99 125 99 128.5 102.5 c 128,-1,60
 132 106 132 106 136 106 c 2,61,-1
 139 107 l 1,62,-1
 317 107 l 2,63,64
 323 107 323 107 326.5 103.5 c 128,-1,65
 330 100 330 100 330 96 c 2,66,-1
 331 93 l 1,67,-1
 331 65 l 2,48,49
348 60 m 2,68,-1
 348 98 l 2,69,70
 348 99 348 99 348 101 c 128,-1,71
 348 103 348 103 346.5 108 c 128,-1,72
 345 113 345 113 342 116.5 c 128,-1,73
 339 120 339 120 333.5 123 c 128,-1,74
 328 126 328 126 320 126 c 2,75,-1
 136 126 l 2,76,77
 135 126 135 126 133 126 c 128,-1,78
 131 126 131 126 126 124.5 c 128,-1,79
 121 123 121 123 117.5 120 c 128,-1,80
 114 117 114 117 111 111.5 c 128,-1,81
 108 106 108 106 108 98 c 2,82,-1
 108 60 l 2,83,84
 108 59 108 59 108 57 c 128,-1,85
 108 55 108 55 109.5 50 c 128,-1,86
 111 45 111 45 114 41.5 c 128,-1,87
 117 38 117 38 122.5 35 c 128,-1,88
 128 32 128 32 136 32 c 2,89,-1
 320 32 l 2,90,91
 321 32 321 32 323 32 c 128,-1,92
 325 32 325 32 330 33.5 c 128,-1,93
 335 35 335 35 338.5 38 c 128,-1,94
 342 41 342 41 345 46.5 c 128,-1,95
 348 52 348 52 348 60 c 2,68,-1
87 199 m 2,96,-1
 370 199 l 2,97,98
 380 199 380 199 380 209 c 128,-1,99
 380 219 380 219 370 219 c 2,100,-1
 87 219 l 1,101,-1
 87 218 l 1,102,103
 79 218 79 218 79 209 c 0,104,105
 79 201 79 201 87 199 c 2,96,-1
480 153 m 1,106,-1
 480 265 l 2,107,108
 480 277 480 277 473 284 c 128,-1,109
 466 291 466 291 459 292 c 2,110,-1
 452 293 l 1,111,-1
 60 293 l 2,112,113
 59 293 59 293 57 293 c 128,-1,114
 55 293 55 293 50 291.5 c 128,-1,115
 45 290 45 290 41.5 287 c 128,-1,116
 38 284 38 284 35 278.5 c 128,-1,117
 32 273 32 273 32 265 c 2,118,-1
 32 153 l 2,119,120
 32 152 32 152 32 150 c 128,-1,121
 32 148 32 148 33.5 143 c 128,-1,122
 35 138 35 138 38 134.5 c 128,-1,123
 41 131 41 131 46.5 128 c 128,-1,124
 52 125 52 125 60 125 c 2,125,-1
 88 125 l 1,126,-1
 88 144 l 1,127,-1
 60 144 l 2,128,129
 56 144 56 144 54 146 c 128,-1,130
 52 148 52 148 52 150 c 2,131,-1
 51 153 l 1,132,-1
 51 265 l 2,133,134
 51 269 51 269 53.5 271.5 c 128,-1,135
 56 274 56 274 58 274 c 2,136,-1
 60 274 l 1,137,-1
 452 274 l 2,138,139
 461 274 461 274 461 265 c 2,140,-1
 461 153 l 2,141,142
 461 144 461 144 452 144 c 2,143,-1
 368 144 l 1,144,-1
 368 125 l 1,145,-1
 452 125 l 2,146,147
 464 125 464 125 471 132 c 128,-1,148
 478 139 478 139 479 146 c 2,149,-1
 480 153 l 1,106,-1
87 199 m 2,150,-1
 370 199 l 2,151,152
 380 199 380 199 380 209 c 128,-1,153
 380 219 380 219 370 219 c 2,154,-1
 87 219 l 1,155,-1
 87 218 l 1,156,157
 79 218 79 218 79 209 c 0,158,159
 79 201 79 201 87 199 c 2,150,-1
171 68 m 1,160,-1
 285 68 l 2,161,162
 295 68 295 68 295 78 c 128,-1,163
 295 88 295 88 285 88 c 2,164,-1
 171 88 l 2,165,166
 163 86 163 86 163 78 c 0,167,168
 163 69 163 69 171 69 c 1,169,-1
 171 68 l 1,160,-1
348 312 m 1,170,-1
 348 340 l 2,171,172
 348 341 348 341 348 343 c 128,-1,173
 348 345 348 345 346.5 350 c 128,-1,174
 345 355 345 355 342 358.5 c 128,-1,175
 339 362 339 362 333.5 365 c 128,-1,176
 328 368 328 368 320 368 c 2,177,-1
 136 368 l 2,178,179
 135 368 135 368 133 368 c 128,-1,180
 131 368 131 368 126 366.5 c 128,-1,181
 121 365 121 365 117.5 362 c 128,-1,182
 114 359 114 359 111 353.5 c 128,-1,183
 108 348 108 348 108 340 c 2,184,-1
 108 312 l 1,185,-1
 125 312 l 1,186,-1
 125 335 l 2,187,188
 125 341 125 341 128.5 344.5 c 128,-1,189
 132 348 132 348 136 348 c 2,190,-1
 139 349 l 1,191,-1
 317 349 l 2,192,193
 323 349 323 349 326.5 345.5 c 128,-1,194
 330 342 330 342 330 338 c 2,195,-1
 331 335 l 1,196,-1
 331 312 l 1,197,-1
 348 312 l 1,170,-1
108 181 m 1,198,-1
 108 171 l 2,199,200
 108 170 108 170 108 168 c 128,-1,201
 108 166 108 166 109.5 161 c 128,-1,202
 111 156 111 156 114 152.5 c 128,-1,203
 117 149 117 149 122.5 146 c 128,-1,204
 128 143 128 143 136 143 c 2,205,-1
 320 143 l 2,206,207
 321 143 321 143 323 143 c 128,-1,208
 325 143 325 143 330 144.5 c 128,-1,209
 335 146 335 146 338.5 149 c 128,-1,210
 342 152 342 152 345 157.5 c 128,-1,211
 348 163 348 163 348 171 c 2,212,-1
 348 181 l 1,213,-1
 331 181 l 1,214,-1
 331 176 l 2,215,216
 331 170 331 170 327.5 166.5 c 128,-1,217
 324 163 324 163 320 162 c 2,218,-1
 317 162 l 1,219,-1
 139 162 l 2,220,221
 133 162 133 162 129.5 165.5 c 128,-1,222
 126 169 126 169 126 172 c 2,223,-1
 125 176 l 1,224,-1
 125 181 l 1,225,-1
 108 181 l 1,198,-1
425 242 m 1,226,227
 425 236 425 236 420.5 232 c 128,-1,228
 416 228 416 228 411 228 c 0,229,230
 397 228 397 228 397 242 c 128,-1,231
 397 256 397 256 411 256 c 0,232,233
 417 256 417 256 421 251.5 c 128,-1,234
 425 247 425 247 425 242 c 1,235,-1
 425 242 l 1,226,227
EndSplineSet
Validated: 517
EndChar

StartChar: drucken
Encoding: 62888 62888 74
Width: 512
GlyphClass: 2
Flags: W
LayerCount: 2
Fore
SplineSet
270 449 m 1,0,-1
 270 404 l 1,1,-1
 315 404 l 1,2,-1
 270 449 l 1,0,-1
349 292 m 1,3,-1
 349 425 l 1,4,-1
 294 480 l 1,5,-1
 107 480 l 1,6,-1
 107 292 l 1,7,-1
 125 292 l 1,8,-1
 125 461 l 1,9,-1
 284 461 l 1,10,-1
 331 415 l 1,11,-1
 331 292 l 1,12,-1
 349 292 l 1,3,-1
171 124 m 2,13,-1
 285 124 l 2,14,15
 295 124 295 124 295 134 c 128,-1,16
 295 144 295 144 285 144 c 2,17,-1
 171 144 l 2,18,19
 163 142 163 142 163 134 c 128,-1,20
 163 126 163 126 171 124 c 2,13,-1
171 87 m 1,21,-1
 248 87 l 2,22,23
 258 87 258 87 258 97 c 128,-1,24
 258 107 258 107 248 107 c 2,25,-1
 171 107 l 2,26,27
 163 105 163 105 163 97 c 0,28,29
 163 88 163 88 171 88 c 1,30,-1
 171 87 l 1,21,-1
425 222 m 0,31,32
 425 216 425 216 420.5 212 c 128,-1,33
 416 208 416 208 411 208 c 0,34,35
 405 208 405 208 401 212.5 c 128,-1,36
 397 217 397 217 397 222 c 0,37,38
 397 236 397 236 411 236 c 128,-1,39
 425 236 425 236 425 222 c 0,31,32
480 135 m 1,40,-1
 480 246 l 2,41,42
 480 258 480 258 473 265 c 128,-1,43
 466 272 466 272 459 273 c 2,44,-1
 452 274 l 1,45,-1
 60 274 l 2,46,47
 59 274 59 274 57 274 c 128,-1,48
 55 274 55 274 50 272.5 c 128,-1,49
 45 271 45 271 41.5 268 c 128,-1,50
 38 265 38 265 35 259.5 c 128,-1,51
 32 254 32 254 32 246 c 2,52,-1
 32 135 l 2,53,54
 32 134 32 134 32 132 c 128,-1,55
 32 130 32 130 33.5 125 c 128,-1,56
 35 120 35 120 38 116.5 c 128,-1,57
 41 113 41 113 46.5 110 c 128,-1,58
 52 107 52 107 60 107 c 2,59,-1
 88 107 l 1,60,-1
 88 125 l 1,61,-1
 60 125 l 2,62,63
 56 125 56 125 54 127.5 c 128,-1,64
 52 130 52 130 52 132 c 2,65,-1
 51 135 l 1,66,-1
 51 246 l 2,67,68
 51 250 51 250 53.5 252 c 128,-1,69
 56 254 56 254 58 254 c 2,70,-1
 60 255 l 1,71,-1
 452 255 l 2,72,73
 461 255 461 255 461 246 c 2,74,-1
 461 135 l 2,75,76
 461 125 461 125 452 125 c 2,77,-1
 368 125 l 1,78,-1
 368 107 l 1,79,-1
 452 107 l 2,80,81
 464 107 464 107 471 114 c 128,-1,82
 478 121 478 121 479 128 c 2,83,-1
 480 135 l 1,40,-1
125 181 m 1,84,-1
 331 181 l 1,85,-1
 331 51 l 1,86,-1
 125 51 l 1,87,-1
 125 181 l 1,84,-1
379 190 m 1,88,89
 379 200 379 200 369 200 c 2,90,-1
 87 200 l 2,91,92
 79 198 79 198 79 190 c 0,93,94
 79 183 79 183 87 181 c 2,95,-1
 107 181 l 1,96,-1
 107 32 l 1,97,-1
 349 32 l 1,98,-1
 349 181 l 1,99,-1
 369 181 l 2,100,101
 379 181 379 181 379 190 c 1,102,-1
 379 190 l 1,88,89
EndSplineSet
Validated: 5
EndChar

StartChar: drucken-serie
Encoding: 62887 62887 75
Width: 512
GlyphClass: 2
Flags: W
LayerCount: 2
Fore
SplineSet
88 51 m 1,0,-1
 51 51 l 1,1,-1
 51 88 l 1,2,-1
 32 88 l 1,3,-1
 32 32 l 1,4,-1
 88 32 l 1,5,-1
 88 51 l 1,0,-1
415 312 m 1,6,-1
 415 425 l 1,7,-1
 359 480 l 1,8,-1
 331 480 l 1,9,-1
 331 461 l 1,10,-1
 350 461 l 1,11,-1
 396 415 l 1,12,-1
 396 312 l 1,13,-1
 415 312 l 1,6,-1
480 312 m 1,14,-1
 480 425 l 1,15,-1
 425 480 l 1,16,-1
 396 480 l 1,17,-1
 396 461 l 1,18,-1
 415 461 l 1,19,-1
 461 415 l 1,20,-1
 461 312 l 1,21,-1
 480 312 l 1,14,-1
270 449 m 1,22,-1
 270 404 l 1,23,-1
 315 404 l 1,24,-1
 270 449 l 1,22,-1
349 292 m 1,25,-1
 349 425 l 1,26,-1
 294 480 l 1,27,-1
 107 480 l 1,28,-1
 107 292 l 1,29,-1
 125 292 l 1,30,-1
 125 461 l 1,31,-1
 284 461 l 1,32,-1
 331 415 l 1,33,-1
 331 292 l 1,34,-1
 349 292 l 1,25,-1
171 124 m 2,35,-1
 285 124 l 2,36,37
 295 124 295 124 295 134 c 128,-1,38
 295 144 295 144 285 144 c 2,39,-1
 171 144 l 2,40,41
 163 142 163 142 163 134 c 128,-1,42
 163 126 163 126 171 124 c 2,35,-1
171 87 m 1,43,-1
 248 87 l 2,44,45
 258 87 258 87 258 97 c 128,-1,46
 258 107 258 107 248 107 c 2,47,-1
 171 107 l 2,48,49
 163 105 163 105 163 97 c 0,50,51
 163 88 163 88 171 88 c 1,52,-1
 171 87 l 1,43,-1
480 135 m 1,53,-1
 480 246 l 2,54,55
 480 258 480 258 473 265 c 128,-1,56
 466 272 466 272 459 273 c 2,57,-1
 452 274 l 1,58,-1
 60 274 l 2,59,60
 59 274 59 274 57 274 c 128,-1,61
 55 274 55 274 50 272.5 c 128,-1,62
 45 271 45 271 41.5 268 c 128,-1,63
 38 265 38 265 35 259.5 c 128,-1,64
 32 254 32 254 32 246 c 2,65,-1
 32 135 l 2,66,67
 32 134 32 134 32 132 c 128,-1,68
 32 130 32 130 33.5 125 c 128,-1,69
 35 120 35 120 38 116.5 c 128,-1,70
 41 113 41 113 46.5 110 c 128,-1,71
 52 107 52 107 60 107 c 2,72,-1
 88 107 l 1,73,-1
 88 125 l 1,74,-1
 60 125 l 2,75,76
 56 125 56 125 54 127.5 c 128,-1,77
 52 130 52 130 52 132 c 2,78,-1
 51 135 l 1,79,-1
 51 246 l 2,80,81
 51 250 51 250 53.5 252 c 128,-1,82
 56 254 56 254 58 254 c 2,83,-1
 60 255 l 1,84,-1
 452 255 l 2,85,86
 461 255 461 255 461 246 c 2,87,-1
 461 135 l 2,88,89
 461 125 461 125 452 125 c 2,90,-1
 368 125 l 1,91,-1
 368 107 l 1,92,-1
 452 107 l 2,93,94
 464 107 464 107 471 114 c 128,-1,95
 478 121 478 121 479 128 c 2,96,-1
 480 135 l 1,53,-1
125 181 m 1,97,-1
 331 181 l 1,98,-1
 331 51 l 1,99,-1
 125 51 l 1,100,-1
 125 181 l 1,97,-1
379 190 m 0,101,102
 379 200 379 200 369 200 c 2,103,-1
 87 200 l 2,104,105
 79 198 79 198 79 190 c 0,106,107
 79 183 79 183 87 181 c 2,108,-1
 107 181 l 1,109,-1
 107 32 l 1,110,-1
 349 32 l 1,111,-1
 349 181 l 1,112,-1
 369 181 l 2,113,114
 379 181 379 181 379 190 c 0,101,102
425 222 m 1,115,116
 425 216 425 216 420.5 212 c 128,-1,117
 416 208 416 208 411 208 c 0,118,119
 405 208 405 208 401 212.5 c 128,-1,120
 397 217 397 217 397 222 c 0,121,122
 397 236 397 236 411 236 c 128,-1,123
 425 236 425 236 425 222 c 1,124,-1
 425 222 l 1,115,116
EndSplineSet
Validated: 517
EndChar

StartChar: achtung
Encoding: 9888 9888 76
Width: 512
GlyphClass: 2
Flags: W
LayerCount: 2
Fore
SplineSet
54 85 m 1,0,-1
 458 85 l 1,1,-1
 256 436 l 1,2,-1
 54 85 l 1,0,-1
47 67 m 2,3,4
 32 67 32 67 32 82 c 0,5,6
 32 88 32 88 36 92 c 2,7,-1
 242 449 l 2,8,9
 247 459 247 459 256 459 c 0,10,11
 266 459 266 459 271 448 c 2,12,-1
 478 90 l 2,13,14
 480 84 480 84 480 82 c 0,15,16
 480 67 480 67 467 67 c 2,17,-1
 47 67 l 2,3,4
393 123 m 1,18,-1
 119 123 l 1,19,-1
 256 359 l 1,20,-1
 393 123 l 1,18,-1
422 109 m 0,21,22
 422 112 422 112 421 113 c 2,23,-1
 260 391 l 2,24,25
 258 393 258 393 256 393 c 0,26,27
 252 393 252 393 252 390 c 2,28,-1
 91 112 l 2,29,30
 90 111 90 111 90 109 c 0,31,32
 90 104 90 104 95 104 c 2,33,-1
 417 104 l 2,34,35
 422 104 422 104 422 109 c 0,21,22
270 155 m 0,36,37
 270 150 270 150 266 145.5 c 128,-1,38
 262 141 262 141 256 141 c 128,-1,39
 250 141 250 141 246 145.5 c 128,-1,40
 242 150 242 150 242 155 c 0,41,42
 242 169 242 169 256 169 c 128,-1,43
 270 169 270 169 270 155 c 0,36,37
270 289 m 1,44,-1
 270 290 l 2,45,46
 268 300 268 300 258 302 c 2,47,-1
 257 302 l 1,48,-1
 256 302 l 2,49,50
 242 302 242 302 242 289 c 2,51,-1
 242 288 l 1,52,-1
 247 194 l 2,53,54
 247 186 247 186 257 186 c 0,55,56
 266 186 266 186 266 194 c 2,57,-1
 270 288 l 1,58,-1
 270 288 l 1,59,-1
 270 289 l 1,44,-1
EndSplineSet
Validated: 5
EndChar

StartChar: apfel
Encoding: 62286 62286 77
Width: 512
GlyphClass: 2
Flags: W
LayerCount: 2
Fore
SplineSet
479 288 m 1,0,1
 467 407 467 407 350 420 c 0,2,3
 317 424 317 424 288 418 c 0,4,5
 276 416 276 416 278 404 c 0,6,7
 281 394 281 394 292 400 c 0,8,9
 319 405 319 405 347 401 c 0,10,11
 401 395 401 395 428 367.5 c 128,-1,12
 455 340 455 340 461 286 c 0,13,14
 466 233 466 233 438 168 c 128,-1,15
 410 103 410 103 374 83 c 0,16,17
 368 80 368 80 348 83.5 c 128,-1,18
 328 87 328 87 312 92 c 2,19,-1
 295 97 l 1,20,21
 250 52 250 52 232 51 c 0,22,23
 192 53 192 53 137.5 97.5 c 128,-1,24
 83 142 83 142 64 193 c 0,25,26
 28 291 28 291 115 346 c 0,27,28
 140 362 140 362 166 369 c 0,29,30
 186 373 186 373 207 368 c 1,31,32
 228 350 228 350 235 373 c 0,33,34
 243 391 243 391 237 394 c 0,35,36
 236 395 236 395 233 395 c 0,37,38
 224 395 224 395 211 402 c 0,39,40
 209 403 209 403 206 404.5 c 128,-1,41
 203 406 203 406 199 409 c 128,-1,42
 195 412 195 412 192 413 c 0,43,44
 183 419 183 419 173 424 c 0,45,46
 148 435 148 435 97 425 c 1,47,-1
 95 425 l 2,48,49
 85 423 85 423 62 414 c 1,50,51
 85 445 85 445 106 453 c 0,52,53
 117 457 117 457 125 458 c 0,54,55
 152 464 152 464 186 458 c 0,56,57
 201 454 201 454 213.5 443.5 c 128,-1,58
 226 433 226 433 230 423 c 0,59,60
 230 422 230 422 230 418.5 c 128,-1,61
 230 415 230 415 230 414 c 0,62,63
 232 402 232 402 242 408 c 0,64,65
 246 410 246 410 248 417.5 c 128,-1,66
 250 425 250 425 248 430 c 0,67,68
 242 444 242 444 226 457.5 c 128,-1,69
 210 471 210 471 190 476 c 0,70,71
 152 484 152 484 121 477 c 0,72,73
 107 473 107 473 100 470 c 0,74,75
 79 463 79 463 58 439.5 c 128,-1,76
 37 416 37 416 32 401 c 0,77,78
 31 395 31 395 34 392 c 0,79,80
 38 388 38 388 43 389 c 0,81,82
 51 390 51 390 67 397 c 0,83,84
 72 398 72 398 83 401.5 c 128,-1,85
 94 405 94 405 99 407 c 2,86,-1
 100 407 l 1,87,88
 144 416 144 416 166 406 c 0,89,90
 179 400 179 400 182 397 c 0,91,92
 184 396 184 396 188.5 393.5 c 128,-1,93
 193 391 193 391 195 390 c 1,94,95
 182 391 182 391 161 387 c 0,96,97
 134 381 134 381 105 362 c 0,98,99
 6 298 6 298 47 186 c 0,100,101
 68 128 68 128 127 81 c 128,-1,102
 186 34 186 34 231 32 c 0,103,104
 235 32 235 32 237 33 c 0,105,106
 248 36 248 36 263.5 47 c 128,-1,107
 279 58 279 58 289 68 c 2,108,-1
 299 78 l 1,109,110
 305 76 305 76 315.5 73 c 128,-1,111
 326 70 326 70 347 66 c 128,-1,112
 368 62 368 62 378 65 c 0,113,114
 379 66 379 66 380.5 66 c 128,-1,115
 382 66 382 66 383 67 c 0,116,117
 424 90 424 90 454.5 159 c 128,-1,118
 485 228 485 228 479 288 c 1,119,-1
 479 288 l 1,0,1
EndSplineSet
Validated: 41
EndChar

StartChar: naehrwert
Encoding: 62250 62250 78
Width: 512
GlyphClass: 2
Flags: W
LayerCount: 2
Fore
SplineSet
479 288 m 0,0,1
 467 407 467 407 350 420 c 0,2,3
 317 424 317 424 288 418 c 0,4,5
 276 416 276 416 278 404 c 0,6,7
 281 394 281 394 292 400 c 0,8,9
 319 405 319 405 347 401 c 0,10,11
 401 395 401 395 428 367.5 c 128,-1,12
 455 340 455 340 461 286 c 0,13,14
 466 233 466 233 438 168 c 128,-1,15
 410 103 410 103 374 83 c 0,16,17
 368 80 368 80 348 83.5 c 128,-1,18
 328 87 328 87 312 92 c 2,19,-1
 295 97 l 1,20,21
 250 52 250 52 232 51 c 0,22,23
 192 53 192 53 137.5 97.5 c 128,-1,24
 83 142 83 142 64 193 c 0,25,26
 28 291 28 291 115 346 c 0,27,28
 140 362 140 362 166 369 c 0,29,30
 186 373 186 373 207 368 c 1,31,32
 228 350 228 350 235 373 c 0,33,34
 243 391 243 391 237 394 c 0,35,36
 236 395 236 395 233 395 c 0,37,38
 224 395 224 395 211 402 c 0,39,40
 209 403 209 403 206 404.5 c 128,-1,41
 203 406 203 406 199 409 c 128,-1,42
 195 412 195 412 192 413 c 0,43,44
 183 419 183 419 173 424 c 0,45,46
 148 435 148 435 97 425 c 1,47,-1
 95 425 l 2,48,49
 85 423 85 423 62 414 c 1,50,51
 85 445 85 445 106 453 c 0,52,53
 117 457 117 457 125 458 c 0,54,55
 152 464 152 464 186 458 c 0,56,57
 201 454 201 454 213.5 443.5 c 128,-1,58
 226 433 226 433 230 423 c 0,59,60
 230 422 230 422 230 418.5 c 128,-1,61
 230 415 230 415 230 414 c 0,62,63
 232 402 232 402 242 408 c 0,64,65
 246 410 246 410 248 417.5 c 128,-1,66
 250 425 250 425 248 430 c 0,67,68
 242 444 242 444 226 457.5 c 128,-1,69
 210 471 210 471 190 476 c 0,70,71
 152 484 152 484 121 477 c 0,72,73
 107 473 107 473 100 470 c 0,74,75
 79 463 79 463 58 439.5 c 128,-1,76
 37 416 37 416 32 401 c 0,77,78
 31 395 31 395 34 392 c 0,79,80
 38 388 38 388 43 389 c 0,81,82
 51 390 51 390 67 397 c 0,83,84
 72 398 72 398 83 401.5 c 128,-1,85
 94 405 94 405 99 407 c 2,86,-1
 100 407 l 1,87,88
 144 416 144 416 166 406 c 0,89,90
 179 400 179 400 182 397 c 0,91,92
 184 396 184 396 188.5 393.5 c 128,-1,93
 193 391 193 391 195 390 c 1,94,95
 182 391 182 391 161 387 c 0,96,97
 134 381 134 381 105 362 c 0,98,99
 6 298 6 298 47 186 c 0,100,101
 68 128 68 128 127 81 c 128,-1,102
 186 34 186 34 231 32 c 0,103,104
 235 32 235 32 237 33 c 0,105,106
 248 36 248 36 263.5 47 c 128,-1,107
 279 58 279 58 289 68 c 2,108,-1
 299 78 l 1,109,110
 305 76 305 76 315.5 73 c 128,-1,111
 326 70 326 70 347 66 c 128,-1,112
 368 62 368 62 378 65 c 0,113,114
 379 66 379 66 380.5 66 c 128,-1,115
 382 66 382 66 383 67 c 0,116,117
 424 90 424 90 454.5 159 c 128,-1,118
 485 228 485 228 479 288 c 0,0,1
176 229 m 0,119,120
 183 230 183 230 191.5 227.5 c 128,-1,121
 200 225 200 225 204 222 c 2,122,-1
 209 218 l 1,123,124
 199 198 199 198 183 195 c 0,125,126
 158 189 158 189 156 207 c 0,127,128
 152 225 152 225 176 229 c 0,119,120
222 256 m 1,129,130
 200 255 200 255 189 267 c 0,131,132
 173 284 173 284 186 297 c 0,133,134
 200 307 200 307 216 290 c 0,135,136
 221 285 221 285 222.5 276.5 c 128,-1,137
 224 268 224 268 223 262 c 2,138,-1
 222 256 l 1,129,130
243 156 m 0,139,140
 236 134 236 134 218 139 c 0,141,142
 200 145 200 145 209 167 c 0,143,144
 211 174 211 174 218 180 c 128,-1,145
 225 186 225 186 230 188 c 2,146,-1
 236 190 l 2,147,148
 237 188 237 188 239 185 c 128,-1,149
 241 182 241 182 243.5 172 c 128,-1,150
 246 162 246 162 243 156 c 0,139,140
303 204 m 1,151,152
 325 206 325 206 336 194 c 0,153,154
 352 175 352 175 339 164 c 0,155,156
 325 152 325 152 309 170 c 0,157,158
 304 175 304 175 302.5 183.5 c 128,-1,159
 301 192 301 192 302 198 c 2,160,-1
 303 204 l 1,151,152
317 290 m 0,161,162
 314 283 314 283 307.5 277.5 c 128,-1,163
 301 272 301 272 296 270 c 2,164,-1
 290 268 l 2,165,166
 289 270 289 270 287 273 c 128,-1,167
 285 276 285 276 282 285.5 c 128,-1,168
 279 295 279 295 283 301 c 0,169,170
 290 325 290 325 307 319 c 128,-1,171
 324 313 324 313 317 290 c 0,161,162
370 250 m 1,172,173
 374 233 374 233 349 229 c 0,174,175
 342 227 342 227 333.5 230 c 128,-1,176
 325 233 325 233 320 236 c 2,177,-1
 316 240 l 1,178,179
 326 260 326 260 342 263 c 0,180,181
 367 267 367 267 370 250 c 1,182,-1
 370 250 l 1,172,173
EndSplineSet
Validated: 41
EndChar

StartChar: taschenrechner
Encoding: 62889 62889 79
Width: 512
GlyphClass: 2
Flags: W
LayerCount: 2
Fore
SplineSet
461 88 m 2,0,1
 461 72 461 72 451.5 62.5 c 128,-1,2
 442 53 442 53 433 52 c 2,3,-1
 424 51 l 1,4,-1
 88 51 l 2,5,6
 72 51 72 51 62.5 60.5 c 128,-1,7
 53 70 53 70 52 79 c 2,8,-1
 51 88 l 1,9,-1
 51 424 l 2,10,11
 51 440 51 440 60.5 449.5 c 128,-1,12
 70 459 70 459 79 460 c 2,13,-1
 88 461 l 1,14,-1
 424 461 l 2,15,16
 440 461 440 461 449.5 451.5 c 128,-1,17
 459 442 459 442 460 433 c 2,18,-1
 461 424 l 1,19,-1
 461 88 l 2,0,1
480 88 m 2,20,-1
 480 424 l 2,21,22
 480 430 480 430 478.5 439.5 c 128,-1,23
 477 449 477 449 463 464.5 c 128,-1,24
 449 480 449 480 424 480 c 2,25,-1
 88 480 l 2,26,27
 82 480 82 480 72.5 478.5 c 128,-1,28
 63 477 63 477 47.5 463 c 128,-1,29
 32 449 32 449 32 424 c 2,30,-1
 32 88 l 2,31,32
 32 82 32 82 33.5 72.5 c 128,-1,33
 35 63 35 63 49 47.5 c 128,-1,34
 63 32 63 32 88 32 c 2,35,-1
 424 32 l 2,36,37
 430 32 430 32 439.5 33.5 c 128,-1,38
 449 35 449 35 464.5 49 c 128,-1,39
 480 63 480 63 480 88 c 2,20,-1
443 331 m 2,40,-1
 443 424 l 2,41,42
 443 443 443 443 424 443 c 2,43,-1
 115 443 l 2,44,45
 106 443 106 443 106 433 c 0,46,47
 106 424 106 424 115 424 c 2,48,-1
 420 424 l 1,49,-1
 424 419 l 1,50,-1
 424 336 l 1,51,-1
 420 331 l 1,52,-1
 93 331 l 1,53,-1
 88 336 l 1,54,-1
 88 396 l 2,55,56
 88 405 88 405 79 405 c 0,57,58
 69 405 69 405 69 396 c 2,59,-1
 69 331 l 2,60,61
 69 312 69 312 88 312 c 2,62,-1
 424 312 l 2,63,64
 426 312 426 312 429 312.5 c 128,-1,65
 432 313 432 313 437.5 318 c 128,-1,66
 443 323 443 323 443 331 c 2,40,-1
351 349 m 2,67,-1
 336 349 l 2,68,69
 332 349 332 349 330 350 c 2,70,-1
 325 352 l 2,71,72
 321 354 321 354 321 358 c 0,73,74
 321 360 321 360 323 362 c 0,75,76
 327 366 327 366 331 363 c 2,77,-1
 336 361 l 1,78,-1
 347 361 l 1,79,-1
 347 371 l 1,80,-1
 328 371 l 1,81,-1
 328 405 l 1,82,-1
 354 405 l 2,83,84
 356 405 356 405 358 403 c 0,85,86
 360 402 360 402 360 399 c 0,87,88
 360 395 360 395 358 394 c 0,89,90
 356 392 356 392 354 392 c 2,91,-1
 341 392 l 1,92,-1
 341 383 l 1,93,-1
 351 383 l 2,94,95
 356 383 356 383 357 380 c 0,96,97
 360 378 360 378 360 374 c 2,98,-1
 360 358 l 2,99,100
 360 354 360 354 357 351 c 0,101,102
 355 349 355 349 351 349 c 2,67,-1
396 350 m 2,103,-1
 374 350 l 2,104,105
 371 350 371 350 369 351 c 0,106,107
 368 353 368 353 368 356 c 128,-1,108
 368 359 368 359 369 360 c 0,109,110
 373 362 373 362 374 362 c 2,111,-1
 393 362 l 1,112,-1
 393 371 l 1,113,-1
 380 371 l 2,114,115
 378 371 378 371 376 373 c 128,-1,116
 374 375 374 375 374 377 c 0,117,118
 374 380 374 380 376 382 c 128,-1,119
 378 384 378 384 380 384 c 2,120,-1
 393 384 l 1,121,-1
 393 393 l 1,122,-1
 374 393 l 2,123,124
 370 393 370 393 369 394 c 0,125,126
 367 398 367 398 367 399 c 0,127,128
 367 401 367 401 369 403 c 128,-1,129
 371 405 371 405 374 405 c 2,130,-1
 396 405 l 2,131,132
 400 405 400 405 403 402 c 128,-1,133
 406 399 406 399 406 396 c 2,134,-1
 406 384 l 2,135,136
 406 381 406 381 404 377 c 0,137,138
 406 373 406 373 406 371 c 2,139,-1
 406 359 l 2,140,141
 406 355 406 355 403 352 c 0,142,143
 399 350 399 350 396 350 c 2,103,-1
302 349 m 2,144,-1
 280 349 l 2,145,146
 276 349 276 349 275 351 c 0,147,148
 273 353 273 353 273 355 c 0,149,150
 273 356 273 356 275 360 c 0,151,152
 276 361 276 361 280 361 c 2,153,-1
 299 361 l 1,154,-1
 299 371 l 1,155,-1
 286 371 l 2,156,157
 283 371 283 371 282 372 c 0,158,159
 280 374 280 374 280 377 c 128,-1,160
 280 380 280 380 282 381 c 0,161,162
 283 383 283 383 286 383 c 2,163,-1
 299 383 l 1,164,-1
 299 392 l 1,165,-1
 279 392 l 2,166,167
 277 392 277 392 275 394 c 128,-1,168
 273 396 273 396 273 399 c 0,169,170
 273 401 273 401 275 403 c 128,-1,171
 277 405 277 405 279 405 c 2,172,-1
 302 405 l 2,173,174
 306 405 306 405 309 402 c 128,-1,175
 312 399 312 399 312 395 c 2,176,-1
 312 384 l 2,177,178
 312 379 312 379 310 377 c 1,179,180
 312 375 312 375 312 371 c 2,181,-1
 312 358 l 2,182,183
 312 354 312 354 309 351 c 0,184,185
 305 349 305 349 302 349 c 2,144,-1
244 349 m 0,186,187
 240 349 240 349 239 351 c 0,188,189
 237 353 237 353 237 355 c 2,190,-1
 237 371 l 2,191,192
 237 374 237 374 239 376 c 2,193,-1
 240 376 l 1,194,-1
 250 385 l 1,195,-1
 250 392 l 1,196,-1
 236 392 l 2,197,198
 234 390 234 390 231 390 c 0,199,200
 227 390 227 390 226 391 c 0,201,202
 224 395 224 395 224 396 c 2,203,-1
 224 399 l 2,204,205
 224 401 224 401 226 403 c 128,-1,206
 228 405 228 405 231 405 c 2,207,-1
 263 405 l 1,208,-1
 263 382 l 2,209,210
 263 381 263 381 261 377 c 2,211,-1
 250 368 l 1,212,-1
 250 355 l 2,213,214
 250 353 250 353 248 351 c 0,215,216
 247 349 247 349 244 349 c 0,186,187
144 219 m 1,217,-1
 144 275 l 1,218,-1
 69 275 l 1,219,-1
 69 256 l 1,220,-1
 126 256 l 1,221,-1
 126 219 l 1,222,-1
 144 219 l 1,217,-1
424 92 m 2,223,224
 424 88 424 88 419 88 c 2,225,-1
 391 88 l 2,226,227
 387 88 387 88 387 92 c 2,228,-1
 387 177 l 2,229,230
 387 181 387 181 391 181 c 2,231,-1
 419 181 l 2,232,233
 424 181 424 181 424 177 c 2,234,-1
 424 92 l 2,223,224
443 88 m 2,235,-1
 443 181 l 2,236,237
 443 200 443 200 424 200 c 2,238,-1
 387 200 l 2,239,240
 385 200 385 200 382 199.5 c 128,-1,241
 379 199 379 199 373.5 194 c 128,-1,242
 368 189 368 189 368 181 c 2,243,-1
 368 88 l 2,244,245
 368 69 368 69 387 69 c 2,246,-1
 424 69 l 2,247,248
 426 69 426 69 429 69.5 c 128,-1,249
 432 70 432 70 437.5 75 c 128,-1,250
 443 80 443 80 443 88 c 2,235,-1
237 219 m 1,251,-1
 237 275 l 1,252,-1
 163 275 l 1,253,-1
 163 256 l 1,254,-1
 219 256 l 1,255,-1
 219 219 l 1,256,-1
 237 219 l 1,251,-1
331 219 m 1,257,-1
 331 275 l 1,258,-1
 256 275 l 1,259,-1
 256 256 l 1,260,-1
 312 256 l 1,261,-1
 312 219 l 1,262,-1
 331 219 l 1,257,-1
144 144 m 1,263,-1
 144 200 l 1,264,-1
 69 200 l 1,265,-1
 69 181 l 1,266,-1
 126 181 l 1,267,-1
 126 144 l 1,268,-1
 144 144 l 1,263,-1
237 144 m 1,269,-1
 237 200 l 1,270,-1
 163 200 l 1,271,-1
 163 181 l 1,272,-1
 219 181 l 1,273,-1
 219 144 l 1,274,-1
 237 144 l 1,269,-1
331 144 m 1,275,-1
 331 200 l 1,276,-1
 256 200 l 1,277,-1
 256 181 l 1,278,-1
 312 181 l 1,279,-1
 312 144 l 1,280,-1
 331 144 l 1,275,-1
144 69 m 1,281,-1
 144 125 l 1,282,-1
 69 125 l 1,283,-1
 69 107 l 1,284,-1
 126 107 l 1,285,-1
 126 69 l 1,286,-1
 144 69 l 1,281,-1
237 69 m 1,287,-1
 237 125 l 1,288,-1
 163 125 l 1,289,-1
 163 107 l 1,290,-1
 219 107 l 1,291,-1
 219 69 l 1,292,-1
 237 69 l 1,287,-1
331 69 m 1,293,-1
 331 125 l 1,294,-1
 256 125 l 1,295,-1
 256 107 l 1,296,-1
 312 107 l 1,297,-1
 312 69 l 1,298,-1
 331 69 l 1,293,-1
443 219 m 1,299,-1
 443 275 l 1,300,-1
 368 275 l 1,301,-1
 368 256 l 1,302,-1
 424 256 l 1,303,-1
 424 219 l 1,304,-1
 443 219 l 1,299,-1
EndSplineSet
Validated: 9
EndChar

StartChar: naehrwertberechnung
Encoding: 62251 62251 80
Width: 512
GlyphClass: 2
Flags: W
LayerCount: 2
Fore
SplineSet
480 176 m 2,0,-1
 480 437 l 2,1,2
 480 442 480 442 478.5 449 c 128,-1,3
 477 456 477 456 466 468 c 128,-1,4
 455 480 455 480 436 480 c 2,5,-1
 189 480 l 2,6,7
 184 480 184 480 176.5 478.5 c 128,-1,8
 169 477 169 477 157 466.5 c 128,-1,9
 145 456 145 456 145 437 c 2,10,-1
 145 310 l 1,11,12
 156 306 156 306 163 298 c 1,13,-1
 163 437 l 2,14,15
 163 448 163 448 170 454 c 128,-1,16
 177 460 177 460 181.5 461 c 128,-1,17
 186 462 186 462 189 462 c 2,18,-1
 436 462 l 2,19,20
 461 462 461 462 461 437 c 2,21,-1
 461 176 l 2,22,23
 461 165 461 165 454.5 159 c 128,-1,24
 448 153 448 153 443.5 152 c 128,-1,25
 439 151 439 151 436 151 c 2,26,-1
 309 151 l 1,27,28
 307 139 307 139 305 133 c 1,29,-1
 436 133 l 2,30,31
 441 133 441 133 448.5 134.5 c 128,-1,32
 456 136 456 136 468 146.5 c 128,-1,33
 480 157 480 157 480 176 c 2,0,-1
362 371 m 2,34,-1
 351 371 l 2,35,36
 348 371 348 371 346 372 c 2,37,-1
 343 373 l 2,38,39
 340 374 340 374 340 377 c 128,-1,40
 340 380 340 380 341 381 c 0,41,42
 344 382 344 382 347 381 c 2,43,-1
 351 380 l 1,44,-1
 359 380 l 1,45,-1
 359 387 l 1,46,-1
 345 387 l 1,47,-1
 345 412 l 1,48,-1
 364 412 l 2,49,50
 367 412 367 412 368 411 c 128,-1,51
 369 410 369 410 369 407 c 0,52,53
 369 405 369 405 368 404 c 128,-1,54
 367 403 367 403 364 403 c 2,55,-1
 354 403 l 1,56,-1
 354 396 l 1,57,-1
 362 396 l 2,58,59
 363 396 363 396 367 394 c 0,60,61
 369 392 369 392 369 389 c 2,62,-1
 369 378 l 2,63,64
 369 375 369 375 367 373 c 128,-1,65
 365 371 365 371 362 371 c 2,34,-1
403 371 m 2,66,-1
 386 371 l 2,67,68
 384 371 384 371 382 373 c 0,69,70
 381 374 381 374 381 376 c 128,-1,71
 381 378 381 378 382 379 c 0,72,73
 384 381 384 381 386 381 c 2,74,-1
 400 381 l 1,75,-1
 400 387 l 1,76,-1
 391 387 l 2,77,78
 389 387 389 387 387 389 c 0,79,80
 386 389 386 389 386 392 c 0,81,82
 386 394 386 394 387 395 c 128,-1,83
 388 396 388 396 391 396 c 2,84,-1
 400 396 l 1,85,-1
 400 403 l 1,86,-1
 386 403 l 2,87,88
 383 403 383 403 382 404 c 128,-1,89
 381 405 381 405 381 407 c 0,90,91
 381 410 381 410 382 411 c 128,-1,92
 383 412 383 412 386 412 c 2,93,-1
 403 412 l 2,94,95
 404 412 404 412 408 410 c 0,96,97
 410 408 410 408 410 405 c 2,98,-1
 410 397 l 2,99,100
 410 394 410 394 408 392 c 0,101,102
 410 388 410 388 410 387 c 2,103,-1
 410 378 l 2,104,105
 410 377 410 377 408 373 c 0,106,107
 404 371 404 371 403 371 c 2,66,-1
319 371 m 2,108,-1
 302 371 l 2,109,110
 300 371 300 371 299 372 c 0,111,112
 297 374 297 374 297 375 c 0,113,114
 297 377 297 377 299 379 c 0,115,116
 300 380 300 380 302 380 c 2,117,-1
 317 380 l 1,118,-1
 317 387 l 1,119,-1
 307 387 l 2,120,121
 304 387 304 387 304 388 c 0,122,123
 302 390 302 390 302 391 c 0,124,125
 302 393 302 393 304 395 c 0,126,127
 305 396 305 396 307 396 c 2,128,-1
 317 396 l 1,129,-1
 317 403 l 1,130,-1
 302 403 l 2,131,132
 299 403 299 403 299 404 c 0,133,134
 297 406 297 406 297 407 c 0,135,136
 297 409 297 409 299 411 c 0,137,138
 299 412 299 412 302 412 c 2,139,-1
 319 412 l 2,140,141
 322 412 322 412 324 410 c 0,142,143
 326 409 326 409 326 405 c 2,144,-1
 326 396 l 2,145,146
 326 393 326 393 325 391 c 0,147,148
 327 389 327 389 327 387 c 2,149,-1
 327 378 l 2,150,151
 327 374 327 374 324 373 c 0,152,153
 323 371 323 371 319 371 c 2,108,-1
269 371 m 0,154,155
 266 371 266 371 265 372 c 128,-1,156
 264 373 264 373 264 375 c 2,157,-1
 264 387 l 2,158,159
 264 389 264 389 266 391 c 2,160,-1
 274 397 l 1,161,-1
 274 403 l 1,162,-1
 263 403 l 2,163,164
 262 401 262 401 259 401 c 128,-1,165
 256 401 256 401 256 402 c 0,166,167
 254 404 254 404 254 405 c 2,168,-1
 254 407 l 2,169,170
 254 409 254 409 256 411 c 0,171,172
 257 412 257 412 259 412 c 2,173,-1
 283 412 l 1,174,-1
 283 395 l 2,175,176
 283 393 283 393 282 392 c 2,177,-1
 273 385 l 1,178,-1
 273 375 l 2,179,180
 273 373 273 373 272 372 c 128,-1,181
 271 371 271 371 269 371 c 0,154,155
417 186 m 1,182,-1
 397 186 l 1,183,-1
 397 250 l 1,184,-1
 417 250 l 1,185,-1
 417 186 l 1,182,-1
434 186 m 2,186,-1
 434 250 l 2,187,188
 434 269 434 269 415 269 c 2,189,-1
 399 269 l 2,190,191
 397 269 397 269 394 268.5 c 128,-1,192
 391 268 391 268 385.5 263 c 128,-1,193
 380 258 380 258 380 250 c 2,194,-1
 380 186 l 2,195,196
 380 184 380 184 380.5 181 c 128,-1,197
 381 178 381 178 386 173 c 128,-1,198
 391 168 391 168 399 168 c 2,199,-1
 415 168 l 2,200,201
 434 168 434 168 434 186 c 2,186,-1
228 280 m 1,202,-1
 228 323 l 1,203,-1
 191 323 l 1,204,-1
 191 305 l 1,205,-1
 210 305 l 1,206,-1
 210 283 l 1,207,-1
 212 283 l 2,208,209
 218 282 218 282 228 280 c 1,202,-1
298 283 m 1,210,-1
 298 323 l 1,211,-1
 258 323 l 1,212,-1
 258 305 l 1,213,-1
 280 305 l 1,214,-1
 280 283 l 1,215,-1
 298 283 l 1,210,-1
363 283 m 1,216,-1
 363 323 l 1,217,-1
 326 323 l 1,218,-1
 326 305 l 1,219,-1
 345 305 l 1,220,-1
 345 283 l 1,221,-1
 363 283 l 1,216,-1
432 283 m 1,222,-1
 432 323 l 1,223,-1
 396 323 l 1,224,-1
 396 305 l 1,225,-1
 414 305 l 1,226,-1
 414 283 l 1,227,-1
 432 283 l 1,222,-1
297 223 m 1,228,-1
 298 223 l 1,229,-1
 298 268 l 1,230,-1
 262 268 l 1,231,232
 287 253 287 253 297 223 c 1,228,-1
363 228 m 1,233,-1
 363 265 l 1,234,-1
 327 265 l 1,235,-1
 327 247 l 1,236,-1
 345 247 l 1,237,-1
 345 228 l 1,238,-1
 363 228 l 1,233,-1
363 173 m 1,239,-1
 363 212 l 1,240,-1
 327 212 l 1,241,-1
 327 193 l 1,242,-1
 345 193 l 1,243,-1
 345 173 l 1,244,-1
 363 173 l 1,239,-1
442 357 m 2,245,-1
 442 425 l 2,246,247
 442 443 442 443 424 443 c 2,248,-1
 217 443 l 2,249,250
 208 443 208 443 208 434 c 128,-1,251
 208 425 208 425 217 425 c 2,252,-1
 218 425 l 1,253,-1
 420 425 l 1,254,-1
 424 421 l 1,255,-1
 424 362 l 1,256,-1
 420 357 l 1,257,-1
 206 357 l 1,258,-1
 201 362 l 1,259,-1
 201 405 l 2,260,261
 201 414 201 414 192 414 c 0,262,263
 182 414 182 414 182 405 c 2,264,-1
 182 357 l 2,265,266
 181 339 181 339 199 339 c 2,267,-1
 424 339 l 2,268,269
 426 339 426 339 429 339.5 c 128,-1,270
 432 340 432 340 437 344.5 c 128,-1,271
 442 349 442 349 442 357 c 2,245,-1
291 180 m 0,272,273
 284 248 284 248 215 257 c 0,274,275
 191 259 191 259 179 255 c 0,276,277
 174 255 174 255 171 250 c 0,278,279
 169 246 169 246 170 243 c 0,280,281
 172 236 172 236 178 236 c 2,282,-1
 180 236 l 1,283,-1
 182 237 l 1,284,-1
 183 237 l 1,285,286
 198 241 198 241 212 238 c 0,287,288
 268 232 268 232 272 178 c 0,289,290
 275 150 275 150 260.5 116 c 128,-1,291
 246 82 246 82 227 71 c 1,292,-1
 226 71 l 1,293,-1
 223 71 l 2,294,295
 209 71 209 71 185 79 c 2,296,-1
 183 80 l 1,297,-1
 181 78 l 2,298,299
 158 55 158 55 149 53 c 0,300,301
 127 54 127 54 97.5 77.5 c 128,-1,302
 68 101 68 101 58 129 c 0,303,304
 39 180 39 180 85 209 c 0,305,306
 98 217 98 217 112 221 c 0,307,308
 114 221 114 221 117.5 221.5 c 128,-1,309
 121 222 121 222 122 222 c 0,310,311
 131 222 131 222 137 231 c 2,312,-1
 138 232 l 2,313,314
 138 234 138 234 138 236 c 128,-1,315
 138 238 138 238 138 240.5 c 128,-1,316
 138 243 138 243 137 245 c 128,-1,317
 136 247 136 247 134 248 c 0,318,319
 124 256 124 256 117 258 c 0,320,321
 109 262 109 262 95 262 c 0,322,323
 87 262 87 262 72 259 c 2,324,-1
 70 259 l 1,325,-1
 68 258 l 1,326,-1
 66 258 l 1,327,328
 74 265 74 265 79 267 c 0,329,330
 80 268 80 268 84 269 c 128,-1,331
 88 270 88 270 89 270 c 0,332,333
 94 271 94 271 104 271 c 128,-1,334
 114 271 114 271 122 269 c 0,335,336
 123 269 123 269 140 262 c 0,337,338
 151 260 151 260 153 267 c 0,339,340
 154 273 154 273 146.5 278.5 c 128,-1,341
 139 284 139 284 126 287 c 0,342,343
 107 291 107 291 85 288 c 0,344,345
 83 288 83 288 79 286 c 128,-1,346
 75 284 75 284 73 284 c 0,347,348
 60 279 60 279 48 265.5 c 128,-1,349
 36 252 36 252 32 243 c 0,350,351
 31 239 31 239 34 234 c 0,352,353
 37 231 37 231 41 231 c 2,354,-1
 43 231 l 2,355,356
 50 233 50 233 58 236 c 0,357,358
 67 240 67 240 74 241 c 2,359,-1
 75 241 l 2,360,361
 87 244 87 244 95 244 c 0,362,363
 105 244 105 244 109 241 c 0,364,365
 111 241 111 241 113 239 c 1,366,367
 110 239 110 239 108 238 c 0,368,369
 93 235 93 235 75 224 c 0,370,371
 16 187 16 187 40 123 c 0,372,373
 53 90 53 90 87 63 c 128,-1,374
 121 36 121 36 148 35 c 0,375,376
 151 35 151 35 152 36 c 0,377,378
 167 40 167 40 187 60 c 1,379,380
 212 53 212 53 224 53 c 2,381,-1
 231 53 l 2,382,383
 232 54 232 54 233 54 c 128,-1,384
 234 54 234 54 235 55 c 0,385,386
 259 68 259 68 276.5 107 c 128,-1,387
 294 146 294 146 291 180 c 0,272,273
199 107 m 0,388,389
 193 107 193 107 186 114 c 0,390,391
 181 120 181 120 181 135 c 1,392,-1
 182 138 l 1,393,-1
 186 138 l 2,394,395
 187 139 187 139 188 139 c 0,396,397
 200 139 200 139 206 132 c 0,398,399
 212 126 212 126 212 119 c 0,400,401
 210 113 210 113 207 110 c 128,-1,402
 204 107 204 107 199 107 c 0,388,389
211 155 m 0,403,404
 207 155 207 155 202.5 156.5 c 128,-1,405
 198 158 198 158 196 160 c 2,406,-1
 194 162 l 1,407,-1
 191 164 l 1,408,-1
 193 168 l 2,409,410
 199 180 199 180 209 182 c 0,411,412
 225 185 225 185 229 172 c 0,413,414
 231 159 231 159 215 156 c 0,415,416
 214 155 214 155 211 155 c 0,403,404
173 186 m 1,417,-1
 171 188 l 1,418,419
 164 202 164 202 167 209 c 0,420,421
 171 221 171 221 181 221 c 2,422,-1
 185 221 l 2,423,424
 189 220 189 220 193 214 c 0,425,426
 196 209 196 209 193 201 c 0,427,428
 188 187 188 187 176 187 c 2,429,-1
 173 186 l 1,417,-1
138 181 m 2,430,431
 125 181 125 181 119 187 c 0,432,433
 114 193 114 193 114 200 c 0,434,435
 114 204 114 204 119 209 c 0,436,437
 122 212 122 212 127 212 c 0,438,439
 134 212 134 212 140 205 c 0,440,441
 150 195 150 195 144 184 c 1,442,-1
 144 181 l 1,443,-1
 140 181 l 1,444,-1
 138 181 l 2,430,431
145 97 m 2,445,-1
 141 97 l 2,446,447
 137 98 137 98 133 104 c 0,448,449
 130 109 130 109 133 117 c 0,450,451
 139 131 139 131 150 131 c 2,452,-1
 153 132 l 1,453,-1
 155 130 l 1,454,-1
 156 128 l 2,455,456
 157 126 157 126 158.5 123 c 128,-1,457
 160 120 160 120 160 116.5 c 128,-1,458
 160 113 160 113 159 109 c 0,459,460
 155 97 155 97 145 97 c 2,445,-1
111 136 m 1,461,462
 99 136 99 136 97 146 c 0,463,464
 97 153 97 153 100 156 c 0,465,466
 103 160 103 160 111 162 c 0,467,468
 116 163 116 163 121 161.5 c 128,-1,469
 126 160 126 160 129 158 c 2,470,-1
 132 156 l 1,471,-1
 135 154 l 1,472,-1
 133 150 l 2,473,474
 133 149 133 149 131 146.5 c 128,-1,475
 129 144 129 144 125 140.5 c 128,-1,476
 121 137 121 137 117 136 c 2,477,-1
 111 136 l 1,478,-1
 111 136 l 1,461,462
EndSplineSet
Validated: 37
EndChar

StartChar: erdbeere-diaetetik
Encoding: 62291 62291 81
Width: 512
GlyphClass: 2
Flags: W
LayerCount: 2
Fore
SplineSet
392 120 m 0,0,1
 387 102 387 102 405 97 c 0,2,3
 423 93 423 93 428 111 c 0,4,5
 432 129 432 129 414 133 c 0,6,7
 407 135 407 135 400 131 c 128,-1,8
 393 127 393 127 392 120 c 0,0,1
349 257 m 0,9,10
 347 249 347 249 351 242 c 128,-1,11
 355 235 355 235 362 234 c 0,12,13
 380 229 380 229 385 247 c 0,14,15
 389 265 389 265 372 270 c 0,16,17
 364 272 364 272 357 268 c 128,-1,18
 350 264 350 264 349 257 c 0,9,10
299 184 m 0,19,20
 294 166 294 166 312 162 c 0,21,22
 330 157 330 157 335 175 c 0,23,24
 338 192 338 192 322 198 c 0,25,26
 303 202 303 202 299 184 c 0,19,20
318 410 m 0,27,28
 313 392 313 392 331 387 c 128,-1,29
 349 382 349 382 354 400 c 0,30,31
 358 418 358 418 341 423 c 0,32,33
 333 425 333 425 326 421 c 128,-1,34
 319 417 319 417 318 410 c 0,27,28
266 276 m 0,35,36
 262 258 262 258 280 253 c 128,-1,37
 298 248 298 248 302 266 c 0,38,39
 307 284 307 284 289 289 c 128,-1,40
 271 294 271 294 266 276 c 0,35,36
206 148 m 0,41,42
 204 141 204 141 208.5 134 c 128,-1,43
 213 127 213 127 220 126 c 0,44,45
 238 121 238 121 242 139 c 0,46,47
 247 157 247 157 229 162 c 0,48,49
 211 166 211 166 206 148 c 0,41,42
239 358 m 128,-1,51
 234 340 234 340 252 335 c 0,52,53
 270 331 270 331 275 348 c 0,54,55
 277 356 277 356 273 363 c 128,-1,56
 269 370 269 370 262 371 c 0,57,50
 244 376 244 376 239 358 c 128,-1,51
151 247 m 0,58,59
 147 229 147 229 165 224 c 128,-1,60
 183 219 183 219 187 237 c 0,61,62
 192 255 192 255 174 260 c 128,-1,63
 156 265 156 265 151 247 c 0,58,59
103 186 m 128,-1,65
 98 168 98 168 116 163 c 0,66,67
 134 159 134 159 139 177 c 128,-1,68
 144 195 144 195 126 199 c 0,69,64
 108 204 108 204 103 186 c 128,-1,65
455 177 m 0,70,71
 430 238 430 238 442 299 c 0,72,73
 457 377 457 377 403 441 c 0,74,75
 374 479 374 479 309 479 c 0,76,77
 267 479 267 479 247.5 461.5 c 128,-1,78
 228 444 228 444 210 404 c 0,79,80
 202 390 202 390 196.5 365 c 128,-1,81
 191 340 191 340 194 325 c 0,82,83
 194 321 194 321 197 318 c 0,84,85
 205 312 205 312 210 319 c 0,86,87
 214 322 214 322 212 328 c 0,88,89
 209 339 209 339 214.5 360.5 c 128,-1,90
 220 382 220 382 227 396 c 0,91,92
 239 421 239 421 246 432 c 128,-1,93
 253 443 253 443 269 452 c 128,-1,94
 285 461 285 461 309 461 c 0,95,96
 363 461 363 461 389 429 c 0,97,98
 437 372 437 372 424 303 c 0,99,100
 411 236 411 236 437 170 c 0,101,102
 466 98 466 98 460 81 c 128,-1,103
 454 64 454 64 441 57 c 0,104,105
 429 51 429 51 410 51 c 0,106,107
 378 51 378 51 293 77 c 2,108,-1
 290 78 l 2,109,110
 227 98 227 98 207 100 c 0,111,112
 144 105 144 105 114 112.5 c 128,-1,113
 84 120 84 120 70 139 c 0,114,115
 61 151 61 151 55 172 c 128,-1,116
 49 193 49 193 52 220 c 128,-1,117
 55 247 55 247 75 263 c 0,118,119
 91 275 91 275 114 285 c 2,120,-1
 163 315 l 2,121,122
 170 322 170 322 163 328 c 128,-1,123
 156 334 156 334 150 328 c 0,124,125
 121 309 121 309 106 302 c 0,126,127
 78 288 78 288 64 277 c 0,128,129
 39 257 39 257 34 224.5 c 128,-1,130
 29 192 29 192 36.5 167.5 c 128,-1,131
 44 143 44 143 55 128 c 0,132,133
 72 105 72 105 105.5 96 c 128,-1,134
 139 87 139 87 205 81 c 0,135,136
 226 79 226 79 285 60 c 1,137,-1
 287 60 l 1,138,139
 373 32 373 32 410 32 c 0,140,141
 433 32 433 32 449 40 c 0,142,143
 471 51 471 51 478 76 c 0,144,145
 486 99 486 99 455 177 c 0,70,71
36 464 m 1,146,-1
 36 464 l 1,147,-1
 36 464 l 1,148,149
 29 470 29 470 36 477 c 0,150,151
 42 484 42 484 49 477 c 2,152,-1
 140 392 l 2,153,154
 147 385 147 385 140 378 c 0,155,156
 134 372 134 372 127 378 c 2,157,-1
 36 464 l 1,146,-1
128 469 m 1,158,-1
 128 469 l 1,159,-1
 128 469 l 1,160,161
 126 478 126 478 136 480 c 0,162,163
 144 482 144 482 147 473 c 2,164,-1
 162 401 l 2,165,166
 164 392 164 392 154 390 c 0,167,168
 145 388 145 388 143 397 c 2,169,-1
 128 469 l 1,158,-1
44 391 m 1,170,-1
 44 391 l 1,171,-1
 44 391 l 1,172,173
 35 393 35 393 32 384 c 0,174,175
 30 375 30 375 39 373 c 2,176,-1
 121 352 l 2,177,178
 130 350 130 350 133 359 c 0,179,180
 135 368 135 368 126 370 c 2,181,-1
 44 391 l 1,170,-1
41 333 m 1,182,-1
 41 333 l 1,183,-1
 41 333 l 1,184,185
 31 331 31 331 33 322 c 0,186,187
 35 314 35 314 44 314 c 2,188,-1
 126 326 l 2,189,190
 136 326 136 326 134 336 c 128,-1,191
 132 346 132 346 124 344 c 2,192,-1
 41 333 l 1,182,-1
213 468 m 1,193,-1
 213 468 l 1,194,-1
 213 468 l 1,195,196
 215 477 215 477 206 480 c 0,197,198
 197 482 197 482 195 473 c 2,199,-1
 173 393 l 2,200,201
 170 385 170 385 179 381 c 0,202,203
 188 379 188 379 191 388 c 2,204,-1
 213 468 l 1,205,-1
 213 468 l 1,193,-1
EndSplineSet
Validated: 549
EndChar

